<?xml version="1.0" encoding="UTF-8"?>
<svg version="1.1" viewBox="0 0 1600 1600" width="1280" height="1280" xmlns="http://www.w3.org/2000/svg">
<path transform="translate(407 -.276)" d="m0 0c4.34 0 8.68-0.01 13-0.01 7.59-0.02 15.2-0.02 22.8-0.02 11.3 0 22.6-0.01 33.9-0.02 22.5-0.03 45-0.04 67.5-0.04h3.53 3.54c13-0.01 25.9-0.01 38.9-0.02 39.2-0.02 78.4-0.03 118-0.04h3.79 15.2 11.5 3.82c39.6 0 79.2-0.03 119-0.06 44.6-0.04 89.1-0.07 134-0.07h14.3 3.55c18.8 0 37.6-0.02 56.4-0.04 18.9-0.02 37.8-0.03 56.8-0.01 11.2 0.01 22.4 0 33.6-0.02 7.52-0.02 15-0.02 22.6 0 4.27 0.01 8.53 0.01 12.8-0.01 23.3-0.11 45.7 1.94 68.7 5.64 1.15 0.18 2.3 0.36 3.49 0.55 6.2 1.01 12.4 2.15 18.5 3.45 1.41 0.29 1.41 0.29 2.85 0.59 66.8 14.2 131 47.6 181 94.5 2.89 2.77 2.89 2.77 6.24 4.9v2c0.56 0.23 1.12 0.46 1.7 0.71 6.91 3.87 12.4 11.2 17.5 17.2 2.13 2.46 4.35 4.84 6.57 7.23 5.78 6.35 11.1 13 16.2 19.9 0.45 0.58 0.89 1.16 1.35 1.76 12 15.8 22.7 32.7 32.4 50 0.78 1.39 1.56 2.78 2.35 4.15 25.1 43.7 37.7 93.9 44.4 143 0.32 2.28 0.65 4.56 1.02 6.83 2.16 15 1.77 30.1 1.75 45.2 0 4.3 0.01 8.61 0.01 12.9 0.01 7.53 0.02 15.1 0.02 22.6-0.01 11.2 0 22.4 0.01 33.6 0.02 21.2 0.03 42.4 0.03 63.5 0 16.4 0 32.7 0.01 49.1v14.1c0 1.18 0 2.35 0.01 3.56 0.01 33 0.02 65.9 0.01 98.9v3.76 18.9 3.79 7.59c0 39.3 0.02 78.6 0.04 118 0.04 44.2 0.05 88.4 0.05 133v14.2 3.52c0 18.6 0.01 37.3 0.03 55.9 0.02 18.8 0.02 37.5 0.01 56.3-0.01 11.1-0.01 22.2 0.01 33.4 0.01 7.46 0.01 14.9 0 22.4-0.01 4.23-0.01 8.46 0 12.7 0.24 64.1-12.3 128-40.5 185l-2.04 4.29c-13.5 28-31 53.9-51 77.7-0.47 0.56-0.93 1.12-1.42 1.69-5.67 6.77-11.4 13.3-17.8 19.5-1.95 1.87-1.95 1.87-3.88 4.44-2.24 2.75-4.73 4.88-7.42 7.17-2.52 2.2-4.94 4.48-7.37 6.78-6.79 6.42-13.8 12.3-21.3 18-1.37 1.06-2.72 2.14-4.06 3.24-6.61 5.4-13.5 10.2-20.6 15-0.59 0.39-1.18 0.78-1.78 1.18-10.9 7.2-21.9 13.9-33.4 20.1-0.93 0.49-1.86 0.99-2.83 1.5-41.5 21.9-85.9 34.7-132 41.7-1.03 0.16-2.06 0.31-3.12 0.47-3.31 0.48-6.63 0.91-9.95 1.35-1.19 0.17-2.39 0.34-3.63 0.51-15.6 2.04-31.2 1.78-46.9 1.75-4.29 0-8.58 0.01-12.9 0.02-7.51 0.01-15 0.01-22.5 0.01-11.2-0.01-22.3 0-33.5 0.01-21.1 0.02-42.2 0.03-63.3 0.03-16.3 0-32.6 0-48.9 0.01-4.7 0-9.4 0-14.1 0.01h-3.54c-32.8 0.01-65.7 0.02-98.6 0.02h-3.75-18.8-3.78-7.56c-39.2-0.01-78.3 0.01-118 0.04-44 0.03-88.1 0.05-132 0.04h-14.1-3.51c-18.6 0-37.2 0.02-55.7 0.03-18.7 0.02-37.4 0.02-56.1 0.01-11.1-0.01-22.2-0.01-33.3 0.01-7.43 0.02-14.9 0.01-22.3 0-4.22-0.01-8.44-0.01-12.6 0.01-22 0.08-43.3-1.43-65-4.51-1.2-0.17-2.4-0.34-3.64-0.52-44.5-6.34-86.3-20.3-126-40.5l-2.42-1.21c-31.4-15.8-59.4-37.2-85.3-60.8-2.11-1.9-4.26-3.74-6.42-5.58-3.32-2.88-6.14-6-8.98-9.34-1.97-2.25-4.07-4.32-6.21-6.41-4.08-4.02-7.69-8.29-11.3-12.8-2.04-2.52-4.13-4.97-6.25-7.41-12.2-14.1-22.4-29.6-32.1-45.5-0.67-1.11-0.67-1.11-1.36-2.24-15-24.7-26.8-51.3-35.6-78.8-0.43-1.31-0.43-1.31-0.87-2.65-13.9-42.5-19.6-86.5-19.5-131 0-4.33-0.01-8.66-0.02-13-0.01-7.56-0.02-15.1-0.02-22.7 0.01-11.2 0-22.5-0.02-33.7-0.03-21.3-0.04-42.5-0.04-63.8 0-16.4-0.01-32.9-0.02-49.3v-14.2c0-1.18 0-2.36-0.01-3.58-0.01-33.1-0.03-66.3-0.02-99.4v-3.78-19-3.81-7.61c0-39.5-0.02-79-0.06-118-0.05-44.4-0.08-88.8-0.07-133v-14.2-3.54c0-18.7-0.02-37.4-0.05-56.2-0.02-18.8-0.03-37.7-0.01-56.6 0.01-10.2 0.01-20.4-0.01-30.6-0.2-79-0.2-79 6.37-113 0.39-2.05 0.77-4.09 1.15-6.14 12.2-65.6 40.8-128 83.9-179 1.94-2.32 3.8-4.71 5.69-7.08 6.46-7.9 13.6-15.2 20.7-22.6 0.73-0.76 1.46-1.52 2.21-2.3 1.07-1.1 1.07-1.1 2.16-2.22 0.98-1.01 0.98-1.01 1.97-2.03 1.66-1.45 1.66-1.45 3.66-1.45v-2c1.26-1.31 1.26-1.31 3.13-2.88 0.73-0.62 1.47-1.24 2.22-1.89 0.88-0.73 1.75-1.47 2.65-2.23 1.03-0.91 2.06-1.81 3.09-2.71 60.6-53.1 136-84.5 216-95 1.93-0.25 3.86-0.53 5.79-0.8 15.6-2.06 31.4-1.77 47.1-1.75zm-18.6 74.7c-1.24 0.04-2.48 0.07-3.76 0.11-63.3 2.18-126 24.7-176 62.5-0.58 0.43-1.17 0.86-1.77 1.31-11.8 8.79-23 18.1-33.2 28.7-2.58 2.59-5.17 5.17-7.79 7.72-6.56 6.41-12.6 13-18.2 20.3-0.49 0.62-0.98 1.25-1.49 1.89-34 43.4-57 93.4-66.8 148-0.22 1.25-0.22 1.25-0.45 2.51-3.46 20.5-3.59 41-3.56 61.8 0 4.33 0 8.65-0.01 13-0.01 7.56-0.01 15.1-0.01 22.7 0.01 11.2 0 22.5 0 33.7-0.02 21.2-0.02 42.5-0.02 63.7v49.2c0 2.36 0 4.72-0.01 7.09v10.7c-0.01 33.1-0.01 66.1-0.01 99.2v3.77c0 6.31 0.01 12.6 0.01 18.9v3.8 7.6c0 39.4 0 78.9-0.02 118-0.02 44.4-0.03 88.7-0.03 133v14.2 3.53c0 17.6 0 35.1-0.02 52.7-0.01 20-0.01 40 0 59.9 0.01 11.2 0.01 22.3 0 33.5-0.01 7.47-0.01 15 0 22.4 0.01 4.24 0.01 8.49 0 12.7-0.18 67.2 16.3 134 55.4 189 0.39 0.55 0.78 1.11 1.17 1.68 5.61 8.07 11.5 15.8 17.8 23.3 0.83 1 1.65 2.01 2.5 3.05 6.3 7.64 13.1 14.7 20.1 21.8 1.29 1.3 1.29 1.3 2.61 2.64 5.96 5.94 12.2 11.3 18.8 16.6 1.25 1.02 2.49 2.05 3.73 3.08 9.32 7.66 19.1 14.4 29.3 20.9 0.94 0.59 0.94 0.59 1.89 1.2 51.6 32.7 111 49 172 48.9 1.42 0.01 2.85 0.01 4.28 0.01h11.7c4.25 0 8.5 0 12.8 0.01h22.3c11.1 0 22.1 0 33.2 0.01 20.9 0.01 41.8 0.01 62.8 0.01 16.2 0 32.3 0.01 48.5 0.01h14 3.51c32.6 0.01 65.1 0.01 97.6 0.01h3.72 18.6 3.74 7.49c38.8 0 77.7 0.01 117 0.02 43.7 0.02 87.3 0.03 131 0.02h14 3.48c18.4 0 36.9 0.01 55.3 0.02 18.5 0.01 37.1 0.01 55.6 0 11 0 22 0 33 0.01 7.37 0.01 14.7 0 22.1 0 4.18-0.01 8.37-0.01 12.6 0 22.8 0.04 45.4-0.39 67.9-4.44 1.81-0.32 1.81-0.32 3.65-0.65 57.8-10.7 113-37 156-76.8 2.11-1.92 4.26-3.8 6.42-5.67 10.7-9.32 20.5-19.5 29.2-30.7 0.93-1.13 1.86-2.26 2.79-3.38 7.77-9.43 14.6-19.3 21.2-29.6 0.4-0.63 0.8-1.25 1.21-1.89 31.6-50 49-109 48.9-168 0-1.44 0-2.88 0.01-4.32v-11.8-12.9c0.01-7.51 0.01-15 0.01-22.5 0-11.2 0-22.3 0.01-33.5 0.01-21.1 0.01-42.2 0.01-63.4 0-16.3 0-32.6 0.01-48.9v-14.1-3.53c0.01-32.8 0.01-65.7 0.01-98.5v-3.75-18.8-3.78-7.56c0-39.2 0.01-78.4 0.02-118 0.01-44 0.02-88.1 0.02-132v-14.1-3.5c0-18.6 0.01-37.2 0.02-55.8 0.01-18.7 0.01-37.4 0-56.1 0-11.1 0-22.2 0.01-33.3v-22.3c-0.01-4.22-0.01-8.45 0-12.7 0.03-16.9-0.07-33.6-2.26-50.4-0.23-1.78-0.23-1.78-0.46-3.6-0.38-2.73-0.82-5.44-1.29-8.15-0.17-0.99-0.34-1.98-0.51-3-7.49-42-22.4-84.9-46.7-120-0.84-1.25-1.67-2.5-2.51-3.75-5.85-8.67-11.9-17.1-18.5-25.2-0.43-0.54-0.86-1.08-1.31-1.64-7.4-9.08-15.6-17.4-23.8-25.7-0.76-0.76-0.76-0.76-1.53-1.55-6.77-6.81-13.8-13.1-21.4-19.1-0.73-0.58-1.46-1.16-2.21-1.76-45.6-35.9-99.2-59.5-157-67.9-0.81-0.12-1.62-0.24-2.46-0.36-12.1-1.68-24.3-2.14-36.5-2.51-0.68-0.02-1.37-0.04-2.07-0.06-15.4-0.47-30.9-0.53-46.3-0.51-4.01 0-8.02 0-12-0.01h-21c-10.4 0.01-20.8 0-31.2 0h-55.7-48.8-3.28-13.2c-41.1 0-82.2 0-123 0.01h-109c-41-0.01-82.1-0.01-123-0.01h-13.2-3.27-48.7-55.4c-10.3 0.01-20.6 0.01-31 0-6.92 0-13.8 0-20.8 0.01-3.92 0-7.85 0-11.8-0.01-15.2-0.01-30.4 0.1-45.5 0.57z" fill="#000100"/>
<path transform="translate(975,348)" d="m0 0v2c0.99 0.33 1.98 0.66 3 1 1.36 1.65 2.69 3.31 4 5l2 1v2h2v2c0.99 0.33 1.98 0.66 3 1v2l4 2v2c0.53 0.21 1.06 0.41 1.61 0.63 3.36 1.93 5.88 4.59 8.58 7.31 0.93 0.93 0.93 0.93 1.88 1.87 2.1 2.09 4.18 4.18 6.27 6.27l4.52 4.52c4.16 4.15 8.31 8.31 12.5 12.5 4.47 4.48 8.95 8.95 13.4 13.4 8.27 8.26 16.5 16.5 24.8 24.8 7.62 7.64 15.2 15.3 22.9 22.9l7.69 7.69c19.3 19.3 38.5 38.5 57.8 57.8 17.1 17.1 34.2 34.2 51.4 51.4 19.2 19.2 38.5 38.4 57.7 57.7l6.14 6.14c0.5 0.51 1.01 1.01 1.53 1.53 7.62 7.63 15.2 15.3 22.9 22.9 8.67 8.67 17.3 17.3 26 26 4.42 4.43 8.85 8.86 13.3 13.3 4.05 4.04 8.1 8.09 12.1 12.1l4.41 4.41c1.99 1.98 3.97 3.97 5.95 5.96 0.59 0.58 1.17 1.16 1.77 1.76 3.92 3.95 3.92 3.95 3.92 6.18h-2.19c-79.2-0.1-159-0.19-238-0.29h-3.64c-26.1-0.03-52.3-0.06-78.4-0.09-12.8-0.02-25.7-0.03-38.5-0.05h-3.87c-38.2-0.05-76.5-0.09-115-0.14-59.1-0.07-118-0.14-177-0.21-2.41 0-4.83 0-7.25-0.01-153-0.17-153-0.17-462-0.21v-74c312-0.33 624-0.66 945-1-5.44-6.26-5.44-6.26-11.1-12.2-0.74-0.75-1.48-1.49-2.24-2.25-0.78-0.79-1.57-1.57-2.39-2.38-0.85-0.86-1.71-1.72-2.59-2.6-2.35-2.36-4.71-4.71-7.06-7.06l-7.65-7.65c-4.98-4.99-9.96-9.97-14.9-15-4.06-4.05-8.11-8.1-12.2-12.2-0.57-0.58-1.15-1.16-1.75-1.75-1.17-1.17-2.34-2.35-3.52-3.52-11-11-22-22-33-33-9.43-9.42-18.8-18.8-28.3-28.3-11-11-21.9-21.9-32.8-32.9-1.17-1.17-2.34-2.33-3.51-3.5-0.57-0.58-1.15-1.15-1.74-1.74-4.04-4.05-8.09-8.09-12.1-12.1-4.93-4.93-9.86-9.86-14.8-14.8-2.51-2.51-5.03-5.02-7.54-7.54-2.72-2.73-5.45-5.45-8.18-8.18l-2.4-2.4c-3.15-3.14-6.27-6.2-9.75-8.99-0.81-0.69-1.62-1.38-2.46-2.09v-2c-0.99-0.33-1.98-0.66-3-1v-2c-0.54-0.22-1.08-0.43-1.64-0.66-3.18-1.8-5.57-4.26-8.11-6.84-0.51-0.5-1.01-1-1.54-1.51-3.71-3.74-3.71-3.74-3.71-5.99-0.99-0.33-1.98-0.66-3-1v-2c-0.59-0.27-1.19-0.53-1.8-0.81-2.23-1.21-3.67-2.43-5.43-4.23-0.58-0.58-1.15-1.16-1.74-1.76s-1.18-1.2-1.78-1.82-1.2-1.23-1.82-1.86c-1.48-1.5-2.96-3.01-4.43-4.52 1.56-3.72 3.85-6.11 6.68-8.95 0.47-0.48 0.94-0.96 1.43-1.45 1.56-1.58 3.13-3.14 4.7-4.71 1.09-1.09 2.18-2.18 3.26-3.28l6.85-6.85c2.93-2.92 5.85-5.86 8.77-8.8 2.24-2.26 4.49-4.51 6.75-6.76 1.08-1.08 2.15-2.16 3.23-3.25 1.5-1.51 3.01-3.01 4.52-4.52 0.86-0.85 1.72-1.71 2.6-2.6 2.21-1.83 2.21-1.83 5.21-1.83z" fill="#000100"/>
<path transform="translate(237,863)" d="m0 0c34.4 0.03 68.9 0.05 103 0.08h2.04c72.2 0.05 144 0.11 217 0.16 1.6 0 3.2 0.01 4.81 0.01 33.6 0.02 67.3 0.05 101 0.08 16.9 0.01 33.8 0.03 50.7 0.04 2.54 0 5.09 0 7.64 0.01l118 0.09h2.56c13.6 0.01 27.2 0.02 40.9 0.03 39.2 0.03 78.5 0.06 118 0.09h2.45c17.7 0.01 35.4 0.03 53.1 0.04 7.12 0.01 14.2 0.02 21.4 0.02h2.36c25.1 0.03 50.3 0.04 75.4 0.06 25.3 0.02 50.6 0.04 75.9 0.06 3.49 0 6.98 0.01 10.5 0.01h2.07c10.2 0.01 20.4 0.02 30.6 0.02l34 0.03c5.72 0.01 11.4 0.01 17.1 0.01 5.19 0 10.4 0.01 15.6 0.02h5.63c2.52 0 5.05 0 7.58 0.01 1.11 0 1.11 0 2.24-0.01 4.99 0.03 4.99 0.03 6.1 1.14 0.1 2.23 0.13 4.47 0.13 6.71v2.12c0.01 2.33 0.01 4.66 0 6.98 0 1.61 0 3.22 0.01 4.83 0 3.38 0 6.76-0.01 10.1-0.01 4.34 0 8.69 0 13 0.01 3.32 0.01 6.65 0 9.98 0 1.6 0 3.2 0.01 4.8 0 2.23-0.01 4.47-0.01 6.7v3.86c-0.13 2.85-0.13 2.85-1.13 3.85-2.06 0.1-4.12 0.12-6.18 0.12-0.99 0.01-0.99 0.01-2 0.01-2.23 0-4.47 0-6.7-0.01-1.61 0-3.23 0-4.84 0.01-4.47 0-8.95 0-13.4-0.01h-14.6-25.6c-12.7-0.01-25.3-0.01-38-0.01-21.3 0.01-42.6 0-63.9 0-21.1-0.01-42.2-0.01-63.3-0.02h-3.97-18-42.6-2.05c-33 0-65.9-0.01-98.8-0.01-11.4-0.01-22.9-0.01-34.3-0.01h-2.15c-33-0.01-65.9-0.01-98.9-0.01-2.14-0.01-4.28-0.01-6.42-0.01h-42.5c-28.2 0-56.4 0-84.6-0.01h-4.03c-89.4-0.01-179-0.02-268-0.04l2.85 3.39c0.8 0.94 0.8 0.94 1.61 1.9 1.67 1.86 3.53 3.24 5.54 4.71v2h2c2.12 1.88 2.12 1.88 4 4v2c0.99 0.33 1.98 0.66 3 1v2h2c1.41 1.43 1.41 1.43 3.06 3.43 4.1 4.81 8.5 9.25 13 13.7 0.84 0.84 1.69 1.68 2.56 2.55 2.67 2.67 5.35 5.33 8.02 8 1.81 1.8 3.61 3.6 5.42 5.4 3.31 3.3 6.61 6.59 9.92 9.89 8.04 8.01 8.04 8.01 11 11 3.15 3.19 6.31 6.29 9.76 9.16 2.82 2.35 4.99 4.91 7.25 7.81l3 2v2c0.6 0.27 1.2 0.55 1.81 0.83 2.13 1.14 3.51 2.24 5.21 3.93 0.58 0.57 1.15 1.14 1.74 1.72l1.88 1.88c0.66 0.66 1.33 1.32 2.02 2.01 2.23 2.21 4.45 4.44 6.68 6.66l4.8 4.77c4.34 4.33 8.68 8.65 13 13 2.71 2.71 5.41 5.41 8.12 8.11 7.5 7.47 15 15 22.5 22.4 0.48 0.48 0.95 0.96 1.45 1.45 0.97 0.97 1.94 1.94 2.91 2.92l1.46 1.46c0.48 0.48 0.97 0.96 1.46 1.46 7.83 7.82 15.7 15.6 23.5 23.4 8.05 8.02 16.1 16 24.1 24.1 4.52 4.51 9.03 9.02 13.6 13.5 4.25 4.22 8.49 8.46 12.7 12.7 1.56 1.56 3.12 3.11 4.69 4.67 2.13 2.11 4.24 4.23 6.36 6.36 0.63 0.62 1.26 1.24 1.91 1.87 1.69 1.73 1.69 1.73 4.09 4.75-0.44 3.69-1.95 5.25-4.62 7.75-2.68 2.51-5.14 5.1-7.52 7.89-3.82 4.38-7.86 8.49-12 12.6-0.75 0.74-1.49 1.49-2.26 2.25-2.35 2.35-4.7 4.69-7.06 7.03-1.6 1.6-3.21 3.2-4.82 4.8-3.91 3.91-7.82 7.8-11.7 11.7-4.15-1.63-6.93-4.66-10-7.77-0.6-0.6-1.2-1.19-1.81-1.81-2.01-2-4-4.01-6-6.02l-4.3-4.3c-3.09-3.1-6.18-6.19-9.26-9.29-4.87-4.89-9.75-9.78-14.6-14.7-7.72-7.73-15.4-15.5-23.1-23.2-13.8-13.8-27.6-27.7-41.5-41.6-4.86-4.87-9.71-9.73-14.6-14.6-3.01-3.02-6.02-6.04-9.04-9.07-1.4-1.4-2.8-2.81-4.2-4.21-1.91-1.92-3.81-3.83-5.72-5.74-0.56-0.56-1.12-1.12-1.69-1.7-2.31-2.3-4.47-4.25-7.19-6.07v-2c-0.99-0.33-1.98-0.66-3-1v-2l-4-2v-2c-0.58-0.26-1.17-0.52-1.77-0.78-2.41-1.32-4.05-2.77-5.98-4.72-0.61-0.61-1.23-1.22-1.86-1.84-1.39-1.66-1.39-1.66-1.39-3.66-0.6-0.27-1.2-0.54-1.81-0.81-2.19-1.19-3.6-2.29-5.19-4.19v-2c-0.6-0.27-1.2-0.54-1.81-0.81-2.19-1.19-3.6-2.29-5.19-4.19v-2c-0.88-0.4-0.88-0.4-1.78-0.8-2.3-1.24-3.83-2.55-5.67-4.39-0.62-0.61-1.24-1.23-1.88-1.86-0.63-0.65-1.27-1.29-1.92-1.95-0.65-0.64-1.3-1.28-1.97-1.95l-1.86-1.86c-0.56-0.57-1.12-1.13-1.7-1.71-1.22-1.48-1.22-1.48-1.22-3.48-0.89-0.4-0.89-0.4-1.79-0.81-2.27-1.22-3.76-2.49-5.58-4.31-0.97-0.96-0.97-0.96-1.96-1.95-1.06-1.06-1.06-1.06-2.14-2.15-0.75-0.75-1.51-1.5-2.28-2.28-2.54-2.53-5.07-5.07-7.59-7.6-1.82-1.81-3.63-3.63-5.44-5.44-4.42-4.41-8.84-8.83-13.2-13.2-5.13-5.14-10.3-10.3-15.4-15.4-9.16-9.16-18.3-18.3-27.5-27.5-8.89-8.91-17.8-17.8-26.7-26.7l-1.66-1.66c-0.55-0.55-1.09-1.1-1.66-1.66-10.1-10.1-20.2-20.2-30.4-30.4l-10.8-10.8c-4.82-4.82-9.63-9.64-14.4-14.5-1.77-1.77-3.54-3.55-5.32-5.32-2.41-2.41-4.81-4.82-7.22-7.24-0.71-0.71-1.43-1.42-2.16-2.15-0.64-0.65-1.28-1.29-1.94-1.95-0.55-0.56-1.11-1.11-1.68-1.69-1.18-1.3-1.18-1.3-1.18-2.3z" fill="#000100"/>
</svg>
