<?xml version="1.0" encoding="UTF-8"?>
<svg version="1.1" viewBox="0 0 1600 1600" width="1280" height="1280" xmlns="http://www.w3.org/2000/svg">
<path transform="translate(1586 111)" d="m0 0c8.26 7.63 12.8 17.7 13.9 28.9 0.03 1.37 0.05 2.73 0.06 4.1 0.04 0.65 0.07 1.29 0.1 1.96 0.16 15-8.41 31-13.7 44.7-0.8 2.08-1.6 4.15-2.4 6.22-1.65 4.29-3.31 8.58-4.96 12.9-3.43 8.88-6.83 17.8-10.2 26.7-7.14 18.7-14.3 37.3-21.5 56-8.19 21.3-16.3 42.5-24.5 63.8-3.92 10.2-7.84 20.5-11.8 30.7-0.57 1.5-0.57 1.5-1.16 3.04-4.47 11.7-8.94 23.3-13.4 35-2.7 7.02-5.39 14-8.07 21.1-0.57 1.48-0.57 1.48-1.15 2.99-0.39 1.01-0.77 2.02-1.17 3.05-6.26 16.4-12.5 32.8-18.9 49.1-5.82 15-11.6 30-17.3 45-0.57 1.48-0.57 1.48-1.15 2.99-0.37 0.98-0.74 1.95-1.12 2.95-3.04 7.93-6.08 15.8-9.14 23.8-2.4 6.24-4.79 12.5-7.17 18.7-1.63 4.27-3.26 8.53-4.89 12.8-0.81 2.13-1.62 4.26-2.43 6.39l-3.45 9.03c-0.51 1.34-0.51 1.34-1.03 2.72-6.25 16.3-13 32-29.8 39.6-8.91 3.6-18.8 2.81-27.6-0.87-11.7-5.69-20.4-14-29.4-23.2-0.6-0.62-1.21-1.23-1.83-1.87-2.5-2.55-5-5.11-7.48-7.69-15.3-15.9-32.3-27.2-55-27.8-8.65-0.1-16.6 0.36-24.8 3.28-0.99 0.34-1.98 0.68-3 1.03-10.2 3.84-18 9.98-25.9 17.3-0.56 0.52-1.12 1.04-1.69 1.57-7.02 6.55-13.8 13.4-20.6 20.1-1.47 1.48-2.94 2.95-4.42 4.42-3.95 3.96-7.91 7.91-11.9 11.9-4.15 4.16-8.3 8.32-12.5 12.5-7.85 7.86-15.7 15.7-23.6 23.6-8.92 8.94-17.8 17.9-26.8 26.8-15.2 15.3-30.5 30.5-45.8 45.8-0.64 0.65-1.28 1.29-1.95 1.95-1.18 1.18-2.35 2.37-3.53 3.55-3.17 3.17-6.34 6.34-9.52 9.51-0.89 0.9-1.79 1.8-2.71 2.72-34.7 34.7-69.4 69.4-104 104-0.73 0.73-1.47 1.46-2.22 2.22-1.18 1.18-2.36 2.36-3.55 3.53-2.06 2.03-3.9 4.04-5.72 6.3-1.94 2.37-4.01 4.33-6.34 6.31-4.38 3.79-8.47 7.82-12.5 11.9-1.03 1.03-1.03 1.03-2.08 2.09-1.32 1.33-2.65 2.67-3.97 4-2.25 2.27-4.51 4.53-6.77 6.78-0.89 0.9-1.79 1.8-2.71 2.72-8.29 8.28-8.29 8.28-11 11-2.39 2.34-2.39 2.34-4.62 5.21-2.57 3.15-5.54 5.68-8.61 8.33-2.08 1.79-4.13 3.6-6.14 5.48-0.59 0.54-1.18 1.08-1.78 1.64-1.34 1.6-1.34 1.6-1.12 3.61 1.32 2.82 3.2 4.36 5.53 6.44 11.1 10.8 16.6 24 16.9 39.5-0.1 16.1-6.38 28.2-17.3 39.8-2.2 2.32-2.2 2.32-4.24 4.96-2.33 2.89-5.03 5.01-7.91 7.36-1.68 1.66-3.34 3.32-5 5-1.29 1.3-2.59 2.6-3.88 3.9-1.56 1.56-3.11 3.13-4.67 4.69-1.78 1.79-3.57 3.59-5.36 5.38-0.47 0.47-0.94 0.95-1.43 1.44-21.7 21.8-43.5 43.6-65.2 65.4-3.15 3.15-6.29 6.3-9.44 9.45-0.62 0.63-1.25 1.25-1.89 1.9-10.2 10.2-20.3 20.3-30.4 30.5-10.4 10.4-20.8 20.9-31.3 31.3-6.42 6.44-12.8 12.9-19.2 19.3-4.4 4.42-8.8 8.83-13.2 13.2-2.55 2.54-5.09 5.08-7.61 7.64-2.75 2.77-5.51 5.52-8.28 8.27-0.79 0.81-1.58 1.62-2.39 2.45-5.45 5.37-10.8 9.07-18.4 10.5-6.89-0.09-12.8-1.45-18-6.11-4.61-5.03-7.31-10.4-7.72-17.2 0.42-9.38 5.92-16.4 12.4-22.7 0.69-0.68 1.37-1.36 2.07-2.07 2.27-2.26 4.56-4.51 6.85-6.76 1.64-1.63 3.27-3.26 4.91-4.89 3.51-3.5 7.04-6.99 10.6-10.5 5.57-5.5 11.1-11 16.7-16.6 7.78-7.75 15.6-15.5 23.4-23.2 0.49-0.48 0.99-0.97 1.5-1.48 3.5-3.48 7.01-6.95 10.5-10.4 4.02-3.99 8.03-7.97 12-12 0.5-0.49 0.99-0.98 1.5-1.49 8.25-8.18 16.5-16.4 24.7-24.6 5.53-5.5 11.1-11 16.6-16.5 3.44-3.4 6.87-6.81 10.3-10.2 1.59-1.58 3.19-3.16 4.8-4.74 2.18-2.15 4.34-4.31 6.51-6.47 0.64-0.63 1.29-1.26 1.95-1.9 1.94-1.9 1.94-1.9 4.19-4.82-0.44-4.24-3.08-6.51-5.99-9.38-0.52-0.53-1.05-1.06-1.59-1.61-1.76-1.78-3.53-3.55-5.31-5.32-1.26-1.27-2.53-2.54-3.79-3.82-3.44-3.46-6.88-6.91-10.3-10.4-2.88-2.88-5.75-5.76-8.62-8.64-6.77-6.79-13.6-13.6-20.3-20.4-7-7-14-14-21-21-5.99-6.02-12-12-18-18-3.6-3.59-7.18-7.18-10.8-10.8-3.37-3.38-6.74-6.75-10.1-10.1-1.24-1.24-2.48-2.48-3.71-3.73-1.68-1.7-3.37-3.38-5.07-5.06-0.49-0.5-0.98-1-1.49-1.52-1.5-1.52-1.5-1.52-3.89-3.23-3.65 0.18-5.34 1.99-7.85 4.53-0.71 0.71-1.41 1.42-2.14 2.15-1.08 1.12-1.08 1.12-2.19 2.26-0.74 0.74-1.48 1.48-2.24 2.25-3.73 3.58-3.73 3.58-6.58 7.81h-2l-1 3c-1.66 1.34-3.33 2.67-5 4-1.57 1.74-3.07 3.52-4.58 5.32-1.7 2.02-3.44 3.92-5.42 5.68h-2l-1 3c-1.93 2.19-1.93 2.19-4 4h-2l-1 3c-1.93 2.19-1.93 2.19-4 4h-2v2c-1.71 1.66-1.71 1.66-3.93 3.5-2.99 2.39-2.99 2.39-5.07 5.5h-2l-1 3c-1.93 2.19-1.93 2.19-4 4h-2l-1 3c-1.66 1.34-3.33 2.67-5 4-1.57 1.74-3.07 3.52-4.58 5.32-1.7 2.02-3.44 3.92-5.42 5.68h-2c-0.26 0.6-0.53 1.2-0.81 1.82-1.18 2.18-2.28 3.6-4.19 5.18h-2l-1 3c-1.93 2.19-1.93 2.19-4 4h-2v2h-2v2h-2c-0.26 0.6-0.53 1.2-0.81 1.82-1.18 2.18-2.28 3.6-4.19 5.18h-2c-0.26 0.6-0.53 1.2-0.81 1.82-1.18 2.18-2.28 3.6-4.19 5.18h-2c-0.26 0.6-0.53 1.2-0.81 1.82-1.18 2.18-2.28 3.6-4.19 5.18h-2c-0.25 0.59-0.51 1.17-0.78 1.77-1.31 2.41-2.77 4.05-4.72 5.98-0.6 0.62-1.21 1.23-1.84 1.86-1.66 1.39-1.66 1.39-3.66 1.39l-2 4h-2l-1 3h-2c-0.4 0.9-0.4 0.9-0.81 1.82-1.18 2.18-2.28 3.6-4.19 5.18h-2v2h-2v2h-2c-0.4 0.9-0.4 0.9-0.81 1.82-1.18 2.18-2.28 3.6-4.19 5.18h-2c-0.4 0.9-0.4 0.9-0.81 1.82-1.18 2.18-2.28 3.6-4.19 5.18h-2c-0.4 0.9-0.4 0.9-0.81 1.82-1.18 2.18-2.28 3.6-4.19 5.18h-2l-2 4h-2l-1 3h-2l-2 4h-2l-1 3c-1.93 2.19-1.93 2.19-4 4h-2l-1 3c-1.93 2.19-1.93 2.19-4 4h-2c-0.4 0.9-0.4 0.9-0.81 1.82-1.18 2.18-2.28 3.6-4.19 5.18h-2l-2 4h-2l-2 4h-2l-1 3h-2l-1 3c-1.93 2.19-1.93 2.19-4 4h-2v2c-1.47 1.25-2.95 2.49-4.47 3.69-1.82 1.57-3.1 3.39-4.53 5.31h-2v2c-1.11 1.15-2.23 2.3-3.38 3.41-16.7 16.5-26.3 38.1-27.6 61.6-0.04 0.69-0.08 1.38-0.12 2.09-0.7 23.5 8.17 47.7 24.1 64.9 1.22 1.37 1.22 1.37 2.46 2.77 14.3 15.3 33.1 23.8 53.5 27.2 0.74 0.13 1.48 0.27 2.24 0.4 23 3.52 46.7-3.57 65.8-16.4 3.51-2.71 6.82-5.6 10.1-8.62 6.31-5.88 12.2-8.56 20.9-8.38 7.02 1.09 12.5 4.58 17 10 3.65 5.88 4.71 11.5 3.74 18.3-4.32 15.7-22.4 26.1-35.6 33.8-33 18.5-71.5 23.5-108 13.8-0.25 0.58-0.51 1.16-0.77 1.76-1.35 2.48-2.86 4.13-4.86 6.13-1.12 1.13-1.12 1.13-2.26 2.28-1.21 1.21-1.21 1.21-2.45 2.44-0.83 0.84-1.67 1.68-2.53 2.54-1.78 1.78-3.55 3.55-5.33 5.32-2.7 2.69-5.38 5.38-8.06 8.07-8.26 8.27-16.4 16.4-25.7 23.5-1.09 0.89-2.19 1.79-3.28 2.68-31.5 24.9-69.8 39.3-110 43.3-1.09 0.11-2.18 0.22-3.3 0.34-54.6 4.85-110-13.4-152-48.3-3.97-3.42-7.81-6.98-11.6-10.6-1.31-1.26-2.64-2.5-3.98-3.74-7.81-7.42-14.1-16-20.4-24.6-0.68-0.91-1.36-1.82-2.06-2.75-31.2-42.8-42.3-99.3-34.9-151 3.95-23.8 11.3-46.8 23-68 0.32-0.59 0.64-1.18 0.97-1.79 11.4-21.4 27.4-38.8 44-56.2 0.77-0.81 1.53-1.62 2.32-2.46 1.68-1.54 1.68-1.54 3.68-1.54 0.41-0.89 0.41-0.89 0.82-1.81 1.18-2.19 2.28-3.6 4.18-5.19h2l1-3h2c0.25-0.57 0.5-1.14 0.75-1.73 1.46-2.65 3.18-4.45 5.32-6.6 1.19-1.19 1.19-1.19 2.41-2.42 0.83-0.82 1.67-1.65 2.52-2.5 0.84-0.84 1.67-1.68 2.53-2.54 0.79-0.8 1.59-1.59 2.41-2.41 0.73-0.73 1.46-1.46 2.22-2.21 1.84-1.59 1.84-1.59 3.84-1.59l1-3h2c0.38-0.93 0.38-0.93 0.75-1.87 1.49-2.53 2.69-2.85 5.25-4.13l1-2c1.26-2.51 2.53-2.8 5-4l1-3h2l1-3c1.94-2.18 1.94-2.18 4-4h2l1-3h2c0.27-0.59 0.54-1.18 0.81-1.79 1.23-2.26 2.48-3.72 4.31-5.52 0.91-0.9 0.91-0.9 1.84-1.82 0.63-0.62 1.27-1.23 1.92-1.87 0.62-0.61 1.25-1.23 1.89-1.86 1.21-1.19 2.42-2.38 3.63-3.56 1.34-1.31 2.63-2.66 3.93-4.02 1.67-1.56 1.67-1.56 3.67-1.56l1-3h2c0.25-0.57 0.5-1.14 0.75-1.73 1.45-2.62 3.14-4.42 5.25-6.52 1.06-1.06 1.06-1.06 2.13-2.14 1.87-1.61 1.87-1.61 3.87-1.61l1-3h2c0.41-0.89 0.41-0.89 0.82-1.81 1.18-2.19 2.28-3.6 4.18-5.19h2l1-3h2l2-4h2v-2h2c0.34-0.83 0.34-0.83 0.69-1.68 1.69-2.98 3.78-5.04 6.31-7.32h2l1-3c1.94-2.18 1.94-2.18 4-4h2l1-3h2l2-4h2v-2h2c0.34-0.83 0.34-0.83 0.69-1.68 1.69-2.98 3.78-5.04 6.31-7.32h2l1-3c1.94-2.18 1.94-2.18 4-4h2l1-3c0.71-0.55 1.41-1.11 2.13-1.68 3.24-2.61 5.69-5.51 8.32-8.71 0.52-0.53 1.03-1.06 1.55-1.61h2l1-3h2l1-3c1.94-2.18 1.94-2.18 4-4h2l1-3h2l1-3c1.44-1.69 1.44-1.69 3-3h2c0.34-0.83 0.34-0.83 0.69-1.68 1.69-2.98 3.78-5.04 6.31-7.32h2c0.41-0.89 0.41-0.89 0.82-1.81 1.18-2.19 2.28-3.6 4.18-5.19h2l1-3c1.65-1.36 3.32-2.69 5-4l1-2h2c0.38-0.93 0.38-0.93 0.75-1.87 1.48-2.51 2.69-2.89 5.25-4.13l1-3h2l1-3h2c0.41-0.89 0.41-0.89 0.82-1.81 1.18-2.19 2.28-3.6 4.18-5.19h2l2-4h2v-2h2c0.38-0.93 0.38-0.93 0.75-1.87 1.48-2.51 2.69-2.89 5.25-4.13l1-3h2c0.31-0.8 0.31-0.8 0.63-1.62 1.91-3.3 4.42-5.97 7.37-8.38h2c0.25-0.57 0.5-1.14 0.75-1.73 1.46-2.65 3.18-4.45 5.32-6.6 0.79-0.79 1.59-1.59 2.41-2.42 0.83-0.82 1.67-1.65 2.52-2.5 0.84-0.84 1.67-1.68 2.53-2.54 1.19-1.2 1.19-1.2 2.41-2.41 0.73-0.73 1.46-1.46 2.22-2.21 1.84-1.59 1.84-1.59 3.84-1.59l1-3h2l1-3c1.44-1.68 1.44-1.68 3-3h2c0.38-0.93 0.38-0.93 0.75-1.87 1.48-2.51 2.69-2.89 5.25-4.13l1-3h2c0.41-0.89 0.41-0.89 0.82-1.81 1.18-2.19 2.28-3.6 4.18-5.19h2l1-3h2c0.38-0.93 0.38-0.93 0.75-1.87 1.49-2.53 2.69-2.85 5.25-4.13l1-2c1.26-2.51 2.53-2.8 5-4l1-3h2l1-3c1.94-2.18 1.94-2.18 4-4h2l1-3h2c0.38-0.93 0.38-0.93 0.75-1.87 1.46-2.48 2.63-3.08 5.25-4.13v-2c1.88-2.12 1.88-2.12 4-4h2l1-3h2c0.41-0.89 0.41-0.89 0.82-1.81 1.18-2.19 2.28-3.6 4.18-5.19h2l1-3h2c0.38-0.93 0.38-0.93 0.75-1.87 1.48-2.51 2.69-2.89 5.25-4.13l1-3h2l1-3h2l1-3h2c0.41-0.89 0.41-0.89 0.82-1.81 1.18-2.19 2.28-3.6 4.18-5.19h2l1-3h2l1-3c1.44-1.68 1.44-1.68 3-3h2c0.34-0.83 0.34-0.83 0.69-1.68 1.69-2.98 3.78-5.04 6.31-7.32h2l1-3c1.94-2.18 1.94-2.18 4-4h2c0.23-0.55 0.46-1.11 0.69-1.68 1.69-2.98 3.78-5.04 6.31-7.32h2c0.23-0.55 0.46-1.11 0.69-1.68 1.69-2.98 3.78-5.04 6.31-7.32h2l1-3c1.94-2.19 1.94-2.19 4-4h2l1-3h2c0.25-0.62 0.5-1.23 0.75-1.87 1.49-2.53 2.69-2.85 5.25-4.13 0.25-0.55 0.5-1.1 0.75-1.67 1.84-3.42 4.5-5.87 7.25-8.58 0.55-0.55 1.1-1.11 1.66-1.68 4.09-4.07 4.09-4.07 6.34-4.07 0.27-0.59 0.53-1.18 0.81-1.78 1.24-2.3 2.54-3.83 4.38-5.67 0.62-0.62 1.23-1.24 1.87-1.88 0.64-0.63 1.28-1.26 1.94-1.92 0.65-0.65 1.29-1.3 1.95-1.97 0.92-0.92 0.92-0.92 1.87-1.86l1.7-1.7c1.48-1.22 1.48-1.22 3.48-1.22l1-3c1.94-2.19 1.94-2.19 4-4h2c0.23-0.55 0.46-1.11 0.69-1.68 1.69-2.98 3.78-5.04 6.31-7.32h2c0.25-0.62 0.5-1.23 0.75-1.87 1.48-2.51 2.69-2.89 5.25-4.13l1-3h2c0.27-0.6 0.54-1.19 0.82-1.81 1.18-2.19 2.28-3.6 4.18-5.19h2l1-3h2c0.25-0.62 0.5-1.23 0.75-1.87 1.49-2.53 2.69-2.85 5.25-4.13l1-2c1.26-2.51 2.53-2.8 5-4l1-3h2l1-3c1.94-2.18 1.94-2.18 4-4h2l1-3h2l1-3c1.44-1.68 1.44-1.68 3-3h2c0.25-0.62 0.5-1.23 0.75-1.87 1.48-2.51 2.69-2.89 5.25-4.13l1-3h2l2-4h2l1-3h2l1-3h2c0.25-0.62 0.5-1.23 0.75-1.87 1.48-2.51 2.69-2.89 5.25-4.13l1-3h2l1-3c1.44-1.68 1.44-1.68 3-3h2l1-3c1.94-2.19 1.94-2.19 4-4h2l1-3h2l2-4h2v-2h2v-2c1.88-2.12 1.88-2.12 4-4h2l1-3h2l1-3c1.94-2.18 1.94-2.18 4-4h2l1-3h2l2-4h2v-2h2l1-3h2v-2c1.88-2.12 1.88-2.12 4-4h2l1-3h2l2-4h2l1-3h2c0.25-0.62 0.5-1.24 0.75-1.87 1.48-2.51 2.69-2.89 5.25-4.13l1-3h2l1-3h2v-2c1.14-1.14 2.28-2.27 3.44-3.39 5.74-5.89 9.6-11.6 11.6-19.6 0.23-0.86 0.46-1.73 0.69-2.62 1.53-11.6-2.1-22.8-8.69-32.4-7-8.1-17.5-12.2-28-13-13.7-0.47-22.7 5.49-32.4 14.5-6.11 5.78-12 11.8-17.9 17.8-1.65 1.66-3.31 3.31-4.96 4.96-4.05 4.06-8.1 8.11-12.2 12.2-4.85 4.86-9.71 9.72-14.6 14.6-8.96 8.97-17.9 17.9-26.9 26.9-12.8 12.8-25.6 25.6-38.4 38.4-5.13 5.14-10.3 10.3-15.4 15.4l-1.73 1.73c-13.6 13.6-27.1 27.2-40.7 40.7-0.59 0.6-1.19 1.19-1.8 1.8-13.9 13.9-27.7 27.7-41.6 41.6-0.6 0.59-1.19 1.19-1.81 1.81-3.01 3.01-6.02 6.02-9.03 9.04l-1.8 1.8c-1.2 1.2-2.4 2.41-3.6 3.61-19.8 19.8-39.6 39.7-59.5 59.5-2.79 2.8-5.59 5.59-8.38 8.39l-1.67 1.67c-8.87 8.88-17.7 17.8-26.6 26.6-8.89 8.91-17.8 17.8-26.7 26.7-4.82 4.83-9.65 9.66-14.5 14.5-4.4 4.42-8.81 8.83-13.2 13.2-1.6 1.6-3.2 3.21-4.8 4.81-2.16 2.17-4.33 4.34-6.5 6.5-0.63 0.63-1.26 1.27-1.91 1.93-4.31 4.27-4.31 4.27-6.54 4.27l-1 3c-3.46 3.24-7.26 6.09-11 9-1.42 1.13-1.42 1.13-2.87 2.28-29.1 22.5-65.2 35.7-102 36.7-1.23 0.04-2.46 0.08-3.73 0.12-29.8 0.5-60.1-5.74-86.3-20.1-1.98-1.08-3.98-2.12-5.98-3.17-40.6-21.6-69.6-61.2-83.3-104-2.45-8.03-4.18-16.2-5.61-24.4-0.22-1.26-0.45-2.52-0.68-3.83-6.5-42.9 4.97-90.6 30.3-126 1.92-2.56 3.9-5.06 5.96-7.5 1.03-1.26 2.04-2.53 3.03-3.82 7.61-9.68 16.4-18.2 25.1-26.9 1.8-1.8 3.59-3.6 5.38-5.4 4.84-4.87 9.69-9.73 14.5-14.6 3.04-3.04 6.07-6.08 9.1-9.12 8.43-8.44 16.8-16.9 25.3-25.3 0.54-0.53 1.08-1.07 1.63-1.63l6.55-6.55c8.77-8.78 17.5-17.6 26.3-26.4 9.02-9.06 18-18.1 27.1-27.2 5.06-5.06 10.1-10.1 15.2-15.2 4.75-4.77 9.52-9.54 14.3-14.3 1.74-1.74 3.48-3.49 5.21-5.24 17.4-17.5 34.8-30.7 60.5-31.6 21 0.59 37.9 8.37 52.2 23.4 13.3 14.4 19.2 32.2 18.4 51.6-1.88 27.2-19.1 44.5-37.4 62.7-1.73 1.72-3.45 3.44-5.17 5.16-3.7 3.68-7.4 7.36-11.1 11-5.36 5.33-10.7 10.7-16.1 16-8.69 8.67-17.4 17.3-26.1 26-0.77 0.78-0.77 0.78-1.57 1.57-7.37 7.34-14.8 14.7-22.1 22-0.52 0.52-1.04 1.04-1.58 1.57-0.52 0.52-1.04 1.03-1.57 1.57-8.68 8.63-17.4 17.3-26 25.9-5.33 5.31-10.7 10.6-16 15.9-4.1 4.07-8.19 8.15-12.3 12.2-1.67 1.67-3.35 3.33-5.02 4.99-18 17.5-18 17.5-24.4 41.1 0.52 11.3 4.13 20.5 12.1 28.7 6.44 5.22 13.7 9.2 22 10 1.16 0.12 1.16 0.12 2.33 0.23 11 0.6 20.6-2.89 28.8-10.1 0.55-0.48 1.11-0.96 1.68-1.45 6.39-5.6 12.4-11.6 18.4-17.6l3.82-3.82c3.47-3.46 6.93-6.93 10.4-10.4 3.75-3.75 7.5-7.5 11.2-11.2 6.48-6.49 13-13 19.4-19.5 9.37-9.39 18.8-18.8 28.1-28.2 15.2-15.2 30.4-30.5 45.7-45.7 14.8-14.8 29.5-29.6 44.3-44.3l2.76-2.76c4.57-4.57 9.14-9.15 13.7-13.7 31.5-31.5 62.9-63 94.4-94.5 0.67-0.68 1.34-1.35 2.04-2.04 3.1-3.1 6.2-6.21 9.3-9.32 0.56-0.55 1.11-1.1 1.67-1.67l4.38-4.38c2.52-2.53 5.05-5.05 7.57-7.58 0.77-0.76 1.54-1.53 2.33-2.32 17.7-17.7 17.7-17.7 19.9-19.9 3.14-3.15 6.27-6.31 9.4-9.47 6.62-6.69 13.2-13.4 19.9-20 4.01-4.03 8.01-8.06 12-12.1 3.88-3.93 7.77-7.84 11.7-11.8 1.46-1.47 2.93-2.95 4.39-4.44 12.6-12.7 26-24.3 41.5-33.4 0.83-0.49 1.67-0.99 2.53-1.49 7.56-4.37 15.2-8.03 23.4-11.1 0.67-0.26 1.34-0.52 2.02-0.78 18.3-7.04 38.4-11 58-11.2 0.83-0.01 1.66-0.02 2.51-0.03 31.4-0.24 62 6.78 89.5 22 0.64 0.36 1.28 0.71 1.94 1.07 14.2 7.96 26.3 17.8 38.1 28.9 0.76 0.69 1.52 1.39 2.3 2.1 33.1 31.3 49.7 78.6 51 123 0.53 42.3-14.3 82.4-40.3 116-0.61 0.79-0.61 0.79-1.24 1.59-5.34 6.82-5.34 6.82-7.76 9.41h-2c-0.38 0.87-0.38 0.87-0.77 1.76-1.35 2.46-2.84 4.11-4.82 6.09-0.73 0.74-1.47 1.48-2.22 2.25-0.79 0.79-1.59 1.57-2.4 2.39-0.82 0.81-1.63 1.63-2.47 2.47-1.72 1.72-3.44 3.44-5.16 5.15-2.65 2.64-5.29 5.29-7.92 7.94-1.67 1.66-3.35 3.33-5.02 5-0.79 0.8-1.58 1.59-2.4 2.41-1.1 1.1-1.1 1.1-2.22 2.21-0.65 0.64-1.3 1.29-1.96 1.95-1.64 1.38-1.64 1.38-3.64 1.38-0.25 0.58-0.5 1.16-0.76 1.75-1.39 2.54-2.97 4.24-5.01 6.29-0.77 0.78-1.55 1.56-2.35 2.36-1.25 1.25-1.25 1.25-2.53 2.52-1.29 1.29-1.29 1.29-2.6 2.61-1.82 1.82-3.63 3.63-5.45 5.44-2.79 2.78-5.57 5.57-8.35 8.36-1.76 1.76-3.53 3.52-5.29 5.28-0.84 0.84-1.67 1.68-2.53 2.55-0.78 0.77-1.55 1.53-2.35 2.33-1.02 1.02-1.02 1.02-2.07 2.06-1.71 1.45-1.71 1.45-3.71 1.45-0.26 0.6-0.53 1.2-0.81 1.82-1.18 2.18-2.28 3.6-4.19 5.18h-2c-0.25 0.58-0.5 1.16-0.76 1.75-1.39 2.54-2.97 4.24-5.01 6.29-0.77 0.78-1.55 1.56-2.35 2.36-1.25 1.25-1.25 1.25-2.53 2.52-1.29 1.29-1.29 1.29-2.6 2.61-1.82 1.82-3.63 3.63-5.45 5.44-2.79 2.78-5.57 5.57-8.35 8.36-1.76 1.76-3.53 3.52-5.29 5.28-0.84 0.84-1.67 1.68-2.53 2.55-0.78 0.77-1.55 1.53-2.35 2.33-1.02 1.02-1.02 1.02-2.07 2.06-1.71 1.45-1.71 1.45-3.71 1.45-0.23 0.56-0.46 1.12-0.7 1.69-1.63 2.91-3.66 4.93-6.01 7.3-0.94 0.93-1.87 1.87-2.83 2.83-0.48 0.48-0.97 0.96-1.47 1.46-1.49 1.47-2.97 2.96-4.44 4.45-1.4 1.4-1.4 1.4-2.83 2.82l-2.59 2.59c-2.13 1.86-2.13 1.86-4.13 1.86-0.25 0.59-0.51 1.17-0.78 1.77-1.31 2.4-2.71 3.98-4.64 5.91-0.72 0.72-1.43 1.44-2.17 2.18-0.79 0.79-1.58 1.57-2.39 2.38-0.84 0.84-1.68 1.69-2.54 2.55-2.35 2.35-4.69 4.69-7.04 7.03-2.55 2.54-5.09 5.09-7.63 7.64-4.46 4.47-8.93 8.94-13.4 13.4-6.64 6.63-13.3 13.3-19.9 19.9-11.8 11.9-23.7 23.7-35.6 35.6-10.4 10.4-20.8 20.7-31.1 31.1-1.03 1.04-1.03 1.04-2.08 2.09l-8.37 8.37c-26.2 26.2-52.4 52.4-78.6 78.5-23.3 23.3-46.6 46.6-69.8 69.8-26.1 26.1-52.3 52.3-78.4 78.4-2.78 2.79-5.57 5.57-8.35 8.36-0.69 0.68-1.37 1.37-2.08 2.07-10.4 10.4-20.7 20.7-31.1 31.1-11.8 11.8-23.6 23.6-35.4 35.4-6.6 6.6-13.2 13.2-19.8 19.8-4.4 4.41-8.8 8.81-13.2 13.2-2.51 2.52-5.03 5.03-7.54 7.55-2.69 2.7-5.4 5.39-8.1 8.09-0.79 0.79-1.58 1.59-2.39 2.41-0.72 0.71-1.43 1.42-2.17 2.15-0.62 0.61-1.24 1.23-1.87 1.87-1.56 1.3-1.56 1.3-3.56 1.3-0.4 0.9-0.4 0.9-0.81 1.82-1.18 2.18-2.28 3.6-4.19 5.18h-2c-0.39 0.89-0.39 0.89-0.8 1.79-1.23 2.27-2.53 3.75-4.32 5.59-11.7 13.2-17.4 30.4-17.2 48 1.48 19.5 9.2 36.3 23.5 49.8 14.4 12.2 33 18.3 51.8 16.8 17.8-2.41 31-8.92 43.8-21.1 2.16-1.86 2.16-1.86 5.16-2.86v-2c1.99-1.68 3.99-3.35 6-5l1-2h2l1-3c1.94-2.19 1.94-2.19 4-4h2v-2c1.66-1.35 3.33-2.68 5-4l2-3h2v-2c1.02-0.7 2.03-1.4 3.07-2.12 1.69-1.28 1.69-1.28 2.93-2.88 0-3.05-0.28-5.1-1-8-0.34-1.77-0.67-3.54-1-5.31-0.17-0.94-0.34-1.88-0.52-2.85-5.64-33.6 2.43-70.6 21.5-98.8 1.96-2.71 3.97-5.38 5.99-8.04 0.59-0.81 1.17-1.62 1.77-2.46 0.53-0.73 1.06-1.47 1.61-2.22 0.46-0.65 0.92-1.29 1.4-1.95 0.4-0.45 0.81-0.9 1.22-1.37h2c0.23-0.55 0.46-1.1 0.69-1.67 1.69-3 3.94-5.24 6.37-7.64 0.52-0.53 1.05-1.05 1.58-1.6 1.76-1.76 3.53-3.53 5.3-5.29 1.27-1.28 2.55-2.55 3.82-3.83 3.5-3.52 7.01-7.03 10.5-10.5 3.79-3.78 7.57-7.57 11.3-11.4 7.41-7.42 14.8-14.8 22.2-22.3 6.03-6.03 12.1-12.1 18.1-18.1 17.1-17.1 34.2-34.2 51.3-51.3 0.93-0.92 1.85-1.84 2.8-2.79 1.38-1.39 1.38-1.39 2.79-2.8 15-15 29.9-29.9 44.8-44.9 15.3-15.4 30.7-30.7 46-46.1 8.62-8.62 17.2-17.2 25.8-25.9 7.33-7.35 14.7-14.7 22-22 3.74-3.74 7.49-7.49 11.2-11.2 3.43-3.44 6.86-6.87 10.3-10.3 1.24-1.24 2.47-2.48 3.71-3.72 13.1-13.2 26.7-22.8 46-22.9 16.8 0.21 29.5 6.29 41.2 18.2 1.02 1.01 2.04 2.02 3.06 3.02 2.67 2.64 5.31 5.31 7.94 7.98 3.42-1.47 5.64-3.39 8.26-6.01 0.85-0.85 1.7-1.69 2.58-2.57 0.94-0.94 1.88-1.89 2.82-2.84 1.01-1 2.01-2 3.02-3.01 2.77-2.77 5.54-5.55 8.31-8.33 3.01-3.02 6.03-6.03 9.04-9.05 5.29-5.28 10.6-10.6 15.8-15.9 7.86-7.87 15.7-15.7 23.6-23.6 13.2-13.2 26.4-26.5 39.6-39.7 18-18.1 36.1-36.1 54.2-54.2 8.41-8.41 16.8-16.8 25.2-25.2l2.55-2.55c20-20 40.1-40.1 60.1-60.2l2.66-2.66c20.5-20.5 40.9-41 61.4-61.4 7.1-7.11 14.2-14.2 21.3-21.3 1.31-1.32 1.31-1.32 2.65-2.66 20-20 40-40 60-60.1 0.84-0.84 1.68-1.68 2.55-2.54 8.38-8.4 16.8-16.8 25.2-25.2 4.13-4.13 8.26-8.26 12.4-12.4 1.22-1.22 1.22-1.22 2.46-2.47 13.1-13.1 26.2-26.2 39.2-39.3 13.1-13.2 26.3-26.3 39.4-39.5 7.81-7.82 15.6-15.6 23.4-23.5 5.22-5.23 10.4-10.4 15.6-15.7 2.98-2.98 5.96-5.96 8.92-8.94 2.7-2.71 5.41-5.42 8.12-8.12 1.44-1.43 2.86-2.87 4.29-4.31 4.49-4.46 8.53-8.07 14.2-10.8l2-1c8.4-0.89 15-0.62 22 4.29 4.9 4.21 7.46 9.41 8.25 15.8 0.39 7.49-1.72 13-6.56 18.7-0.9 0.96-1.79 1.93-2.72 2.92-0.73 0.79-0.73 0.79-1.47 1.59-4.85 5.2-9.84 10.2-14.9 15.3-1 1-1.99 2-2.99 3-2.72 2.72-5.44 5.44-8.16 8.15-2.96 2.97-5.93 5.94-8.9 8.9-5.19 5.2-10.4 10.4-15.6 15.6l-23.2 23.2c-13.8 13.8-27.6 27.6-41.4 41.4l-38.6 38.6c-3.25 3.25-6.49 6.5-9.74 9.74-30.4 30.5-60.9 60.9-91.4 91.4l-81.2 81.2c-30.4 30.4-60.8 60.8-91.2 91.2l-9.72 9.72c-1.19 1.2-1.19 1.2-2.41 2.42-12.1 12-24.1 24.1-36.2 36.2-13.7 13.7-27.4 27.4-41.1 41.1l-23 23c-5.11 5.12-10.2 10.2-15.4 15.4l-8.76 8.76c-2.65 2.66-5.31 5.31-7.96 7.96-1.42 1.41-2.83 2.82-4.24 4.24-0.83 0.83-1.66 1.66-2.52 2.51l-2.18 2.18c-1.89 1.76-1.89 1.76-4.89 3.76 1.3 2.83 2.66 4.92 4.83 7.13 0.57 0.59 1.14 1.17 1.72 1.77 0.92 0.93 0.92 0.93 1.85 1.87 0.63 0.64 1.27 1.28 1.92 1.94 1.33 1.35 2.67 2.7 4.01 4.04 2.05 2.06 4.08 4.14 6.11 6.23 1.3 1.3 2.6 2.61 3.9 3.92 0.91 0.94 0.91 0.94 1.84 1.9 2.82 3.11 2.82 3.11 6.64 4.21 3.33-1.54 5.63-4.05 8.16-6.63 0.6-0.59 1.2-1.19 1.82-1.8 2.01-2.02 4.02-4.04 6.02-6.06l4.36-4.36c4.01-4.01 8-8.02 12-12 4.3-4.33 8.62-8.64 12.9-13 7.48-7.49 15-15 22.4-22.5 10.8-10.8 21.6-21.7 32.5-32.5 5.05-5.05 10.1-10.1 15.1-15.2l1.53-1.53c12-12 24-24.1 36.1-36.2 0.52-0.53 1.05-1.06 1.59-1.6 11.7-11.8 23.5-23.5 35.2-35.3 4.78-4.79 9.56-9.58 14.3-14.4l1.59-1.59c12-12 24-24 35.9-36l1.53-1.53c5.04-5.05 10.1-10.1 15.1-15.1 10.8-10.8 21.6-21.6 32.4-32.5 7.88-7.91 15.8-15.8 23.6-23.7 4.27-4.28 8.54-8.55 12.8-12.8 3.91-3.93 7.82-7.85 11.7-11.8 1.41-1.41 2.82-2.82 4.22-4.24 11-11.1 22.6-21.4 36.7-28.6 0.71-0.36 1.41-0.73 2.14-1.1 27.4-13.7 60-15 89-5.89 3.2 1.16 6.28 2.45 9.37 3.86 1.13 0.51 2.26 1.01 3.41 1.53 22.6 10.7 39.3 28.9 56.6 46.5 1.35-2.62 2.55-5.25 3.65-7.98 0.31-0.77 0.62-1.55 0.94-2.34 0.33-0.84 0.66-1.67 1-2.53 0.36-0.88 0.71-1.77 1.07-2.67 3.67-9.25 7.24-18.5 10.8-27.8 1.57-4.11 3.14-8.21 4.71-12.3 0.8-2.09 1.6-4.19 2.4-6.29 3.64-9.52 7.29-19 11-28.5 4.03-10.5 8.05-20.9 12-31.4 1.57-4.1 3.14-8.2 4.7-12.3 0.58-1.51 0.58-1.51 1.17-3.05 4.99-13 10-26.1 15.2-39.1 2.93-7.44 5.78-14.9 8.56-22.4 6.86-18.4 13.9-36.7 20.9-55 0.37-0.97 0.73-1.93 1.11-2.92 5.93-15.5 11.9-30.9 17.8-46.4 0.4-1.02 0.8-2.05 1.2-3.11 0.79-2.04 1.57-4.07 2.35-6.11 9.28-24.1 18.6-48.2 27.8-72.3 3.5-9.14 7-18.3 10.5-27.4 1.7-4.38 3.39-8.77 5.08-13.2 0.81-2.1 1.62-4.2 2.43-6.3 1.13-2.89 2.24-5.79 3.36-8.7 0.5-1.29 0.5-1.29 1.02-2.61 0.3-0.79 0.61-1.58 0.92-2.4 0.26-0.68 0.53-1.37 0.8-2.08 0.71-1.99 0.71-1.99 0.56-4.83-0.48 0.51-0.96 1.01-1.46 1.53-0.94 0.98-0.94 0.98-1.91 1.97-0.94 0.98-0.94 0.98-1.9 1.97-1.73 1.53-1.73 1.53-3.73 1.53-0.27 0.6-0.54 1.2-0.83 1.82-1.13 2.11-2.21 3.48-3.89 5.17-0.55 0.56-1.11 1.12-1.68 1.7-0.9 0.9-0.9 0.9-1.83 1.82-0.96 0.97-0.96 0.97-1.94 1.95-2.11 2.13-4.24 4.26-6.36 6.38-1.48 1.48-2.96 2.96-4.43 4.44-3.1 3.11-6.21 6.22-9.32 9.32-3.96 3.96-7.92 7.93-11.9 11.9-3.05 3.07-6.11 6.13-9.17 9.18-1.46 1.46-2.92 2.93-4.38 4.39-19.7 19.8-19.7 19.8-30.9 20.3-5.96-0.06-10.5-2.09-15.4-5.38-2.43-2.5-2.43-2.5-4-5-0.55-0.7-1.11-1.4-1.68-2.12-2.6-5.69-3.05-12.2-1.57-18.3 5.88-14 22.8-26.3 33.3-36.8l2.88-2.88c4.5-4.52 9-9.03 13.5-13.5 5.16-5.17 10.3-10.4 15.5-15.5 4.01-4.03 8.03-8.06 12-12.1 2.39-2.39 4.78-4.78 7.16-7.18 2.66-2.68 5.32-5.34 7.99-8 1.16-1.17 1.16-1.17 2.34-2.37 17.8-17.7 42.9-24 64-7.26zm-969 265c-1.89 1.9-3.78 3.8-5.67 5.69-4.13 4.14-8.25 8.28-12.4 12.4-1.6 1.61-3.21 3.22-4.83 4.83 2.51 2.51 4.13 2.65 7.59 3.37 1.15 0.24 2.3 0.49 3.48 0.74 1.24 0.25 2.47 0.51 3.75 0.77 1.88 0.39 1.88 0.39 3.8 0.79 3.79 0.79 7.59 1.56 11.4 2.33 1.64 0.33 1.64 0.33 3.3 0.67 2.88 0.58 5.76 1.15 8.64 1.71 0.85 0.16 1.7 0.33 2.58 0.5 0.79 0.15 1.57 0.3 2.39 0.46 0.67 0.13 1.35 0.26 2.04 0.39 1.02 0.14 1.02 0.14 2.05 0.27 1.18 0.2 1.18 0.2 2.38 0.4 4-0.6 6.06-3.23 8.73-6.05 0.57-0.57 1.13-1.15 1.71-1.74 1.8-1.84 3.59-3.69 5.37-5.55 1.8-1.84 3.6-3.69 5.4-5.53 1.12-1.14 2.24-2.3 3.35-3.45 3.85-3.97 3.85-3.97 6.06-5.08v-2c0.81-0.36 0.81-0.36 1.63-0.73 3.01-1.61 5.67-3.58 8.44-5.58 18.8-13.2 41.9-17.3 64.5-13.6 23.8 4.4 42.4 18.6 56.1 38.2 11.5 17.9 15.2 40.9 11.2 61.7-6 27.4-23.6 44.9-42.8 64-1.47 1.48-2.95 2.96-4.42 4.43l-24.4 24.4c-6.98 6.98-14 14-21 20.9-8.08 8.08-16.2 16.2-24.2 24.2-6.94 6.95-13.9 13.9-20.8 20.8-4.14 4.14-8.28 8.28-12.4 12.4-3.89 3.89-7.78 7.77-11.7 11.7-1.43 1.42-2.85 2.85-4.28 4.28l-7.55 7.55c-2.33 2.32-4.52 4.3-7.27 6.13v3c12 2.82 24 5.49 36.1 7.96 1.35 0.28 2.69 0.56 4.02 0.84 1.9 0.4 3.8 0.78 5.7 1.16 1.64 0.34 1.64 0.34 3.32 0.68 2.96 0.38 4.12 0.44 6.85-0.64 2.06-1.76 3.94-3.53 5.84-5.45 0.58-0.57 1.16-1.14 1.76-1.74 1.94-1.93 3.88-3.87 5.81-5.81 1.39-1.39 2.78-2.77 4.18-4.15 3.78-3.77 7.56-7.55 11.3-11.3 3.16-3.16 6.32-6.32 9.49-9.47 7.47-7.46 14.9-14.9 22.4-22.4 7.67-7.68 15.4-15.4 23-23 6.61-6.59 13.2-13.2 19.8-19.8 3.94-3.93 7.87-7.87 11.8-11.8 3.72-3.71 7.43-7.42 11.1-11.1 1.35-1.36 2.7-2.71 4.06-4.06 27.8-27.6 43.7-61 44.5-101-0.49-37.6-16.4-72.2-43.2-98.3-20.6-19.2-46.5-29.7-74-34-0.8-0.13-1.61-0.26-2.44-0.4-56.6-7.84-96.7 26.3-134 63.5zm-368 58.2c-1.15 1.16-1.15 1.16-2.32 2.33-2.42 2.43-4.83 4.87-7.25 7.31-1.64 1.66-3.29 3.32-4.94 4.97-4.03 4.05-8.04 8.1-12.1 12.2 2.92 2.92 6.42 3.11 10.3 3.88 0.84 0.17 1.68 0.34 2.54 0.51 2.69 0.55 5.37 1.08 8.06 1.61 1.78 0.36 3.56 0.72 5.33 1.08 4.91 0.99 9.82 1.96 14.7 2.92 1.17 0.23 2.34 0.46 3.54 0.7 0.96 0.18 1.92 0.36 2.91 0.55 0.78 0.15 1.56 0.3 2.37 0.46 4.74 0.75 4.74 0.75 9.05-0.94l3.66-3.66c0.65-0.67 1.3-1.35 1.97-2.05 0.66-0.64 1.31-1.28 1.98-1.93 6.48-6.58 11.2-13.5 11.8-22.9-0.13-7.03-2.77-12.6-7.52-17.7-16.2-14.4-32-1.62-44.2 10.7zm297 12.4c-1.09 1.08-1.09 1.08-2.19 2.17-2.43 2.42-4.83 4.85-7.24 7.29-1.73 1.73-3.46 3.46-5.2 5.19-4.23 4.21-8.43 8.44-12.6 12.7-4.89 4.93-9.8 9.85-14.7 14.8-8.76 8.76-17.5 17.5-26.2 26.3-8.48 8.53-17 17-25.5 25.6-0.53 0.52-1.05 1.05-1.59 1.59-1.06 1.05-2.11 2.11-3.17 3.17l-1.58 1.58c-0.51 0.52-1.03 1.04-1.57 1.57-8.09 8.11-16.2 16.2-24.3 24.3-2.45 2.46-4.89 4.91-7.34 7.36-5.57 5.59-11.1 11.2-16.7 16.8-1.69 1.7-3.38 3.4-5.07 5.1-2.3 2.3-4.6 4.62-6.89 6.93l-2.06 2.06c-0.61 0.61-1.22 1.23-1.85 1.87-0.53 0.53-1.06 1.07-1.6 1.62-1.34 1.34-1.34 1.34-1.13 3.37 1.05 0.2 2.1 0.4 3.18 0.6 3.95 0.74 7.91 1.48 11.9 2.23 1.7 0.32 3.4 0.64 5.1 0.96 2.47 0.46 4.94 0.92 7.4 1.39 0.81 0.15 1.62 0.3 2.45 0.46 6.05 1.15 12 2.44 18 3.84 3.07 0.54 5.85 0.71 8.96 0.52 1.77-1.25 1.77-1.25 3.07-3.18 3.29-4.12 6.83-7.85 10.6-11.6 0.55-0.55 1.1-1.11 1.67-1.68 3.09-3.08 6.28-5.85 9.7-8.57 1.69-1.98 3.36-3.98 5-6 1.66-1.68 3.33-3.34 5-5 1.24-1.25 1.24-1.25 2.5-2.53 0.83-0.84 1.65-1.67 2.5-2.53 1.24-1.25 1.24-1.25 2.5-2.54 2.4-2.3 4.91-4.32 7.5-6.4 1.69-1.98 3.36-3.98 5-6 1.66-1.68 3.33-3.34 5-5 0.83-0.83 1.65-1.67 2.5-2.53 0.83-0.84 1.65-1.67 2.5-2.53 0.83-0.84 1.65-1.67 2.5-2.54 2.5-2.4 2.5-2.4 5.16-4.52 2.53-1.9 2.53-1.9 4.84-4.88 2.5-3 2.5-3 4.88-4.87 3.05-2.47 5.39-5.26 7.93-8.24 2.03-2.26 4.31-4.02 6.69-5.89 0.64-0.8 1.28-1.61 1.94-2.44 1.95-2.42 4.02-4.18 6.44-6.12 1.85-1.64 3.4-3.42 5-5.31 3-3.53 6.25-6.48 9.78-9.47 1.7-1.52 3.11-3.06 4.53-4.84 2.31-2.82 2.31-2.82 4.69-4.69 2.32-1.88 4.02-3.68 5.94-5.94 2.4-2.82 4.86-5.3 7.68-7.69 2.59-2.2 4.88-4.4 7.07-7 3.62-4.27 7.54-8.22 11.5-12.2 0.63-0.65 1.27-1.29 1.93-1.95 3.68-3.67 7.45-7.1 11.5-10.4l-1-3c-3.03-1.03-3.03-1.03-6.78-1.72-0.7-0.14-1.4-0.28-2.11-0.43-2.24-0.46-4.49-0.91-6.73-1.35-1.46-0.29-2.92-0.59-4.38-0.89-2.9-0.6-5.8-1.18-8.71-1.75-2.83-0.56-5.65-1.14-8.47-1.74-1-0.21-1-0.21-2.03-0.43-1.81-0.38-3.62-0.77-5.43-1.15-8.83-1.41-11.8-0.09-17.9 6.13zm-374 64.3c-0.96 0.97-1.93 1.93-2.89 2.89-2.62 2.61-5.21 5.24-7.81 7.88-2.72 2.76-5.46 5.5-8.2 8.25-4.6 4.61-9.19 9.24-13.8 13.9-6.43 6.52-12.9 13-19.4 19.5-5.04 5.06-10.1 10.1-15.1 15.2-0.54 0.54-1.07 1.08-1.63 1.64-3.09 3.12-6.18 6.24-9.27 9.36-1.37 1.39-2.74 2.78-4.12 4.16-27.7 28.1-44.3 62-44.1 102 0.9 36.8 16.4 69.8 42.3 95.5 20.2 19.2 46.6 30.4 73.8 34.7 0.79 0.14 1.57 0.27 2.38 0.4 27.6 3.94 56.6-2.85 80.6-16.4 1.13-0.63 2.26-1.25 3.43-1.9 11.2-6.57 20.7-14.9 29.7-24.2 1.85-1.86 1.85-1.86 4.6-4.04 2.85-2.3 4.94-4.99 7.25-7.82 1.66-1.68 3.33-3.34 5-5 0.83-0.83 1.65-1.67 2.5-2.53 0.83-0.84 1.65-1.67 2.5-2.53 0.83-0.84 1.65-1.67 2.5-2.54 2.4-2.3 4.91-4.32 7.5-6.4 1.69-1.98 3.36-3.98 5-6 1.66-1.68 3.33-3.34 5-5 0.83-0.83 1.65-1.67 2.5-2.53 0.83-0.84 1.65-1.67 2.5-2.53 0.83-0.84 1.65-1.67 2.5-2.54 2.4-2.3 4.91-4.32 7.5-6.4 1.69-1.98 3.36-3.98 5-6 1.66-1.68 3.33-3.34 5-5 0.83-0.83 1.65-1.67 2.5-2.53 0.83-0.84 1.65-1.67 2.5-2.53 0.83-0.84 1.65-1.67 2.5-2.54 2.4-2.3 4.91-4.32 7.5-6.4 1.69-1.98 3.36-3.98 5-6 1.66-1.68 3.33-3.34 5-5 0.89-0.87 1.77-1.74 2.68-2.64 1.41-1.39 1.41-1.39 2.84-2.81 1.57-1.54 3.13-3.09 4.69-4.64 1.08-1.07 2.16-2.14 3.24-3.2 1.57-1.55 3.14-3.1 4.7-4.66 0.93-0.92 1.86-1.84 2.82-2.79 2.26-2 2.26-2 2.03-4.26-6.08-1.24-12.2-2.49-18.2-3.73-2.07-0.43-4.14-0.85-6.2-1.27-2.99-0.61-5.97-1.22-8.95-1.83-1.37-0.28-1.37-0.28-2.76-0.57-1.76-0.36-3.52-0.71-5.27-1.04-2.58-0.56-2.58-0.56-5.18-1.38-2.6-0.76-4.68-1.19-7.4-1.18-1.97 1.13-1.97 1.13-3.71 2.89-0.69 0.65-1.38 1.29-2.09 1.96-0.73 0.71-1.45 1.42-2.2 2.15-0.72 0.71-1.45 1.42-2.2 2.15-2.44 2.4-4.86 4.82-7.27 7.26-1.4 1.4-2.79 2.81-4.19 4.22-1.49 1.49-2.98 2.99-4.47 4.49-3.12 3.14-6.24 6.28-9.36 9.41-8.87 8.91-17.7 17.8-26.6 26.7-4.91 4.94-9.82 9.87-14.7 14.8-3.1 3.11-6.19 6.22-9.28 9.34-2.38 2.4-4.77 4.79-7.17 7.19-0.84 0.85-1.68 1.7-2.54 2.58-7.4 7.38-15.5 13.4-24.9 18-1.01 0.5-1.01 0.5-2.04 1.01-20.1 9.65-44.1 10.8-65.2 3.51-20.3-7.42-38.6-22.7-48-42.5-9.56-21.7-11.1-45.4-2.98-67.8 7.56-18.2 20-30.7 33.7-44.4 1.15-1.14 2.29-2.29 3.44-3.43 3.06-3.07 6.13-6.13 9.2-9.2 3.23-3.22 6.45-6.44 9.67-9.66 6.08-6.07 12.2-12.2 18.2-18.2 6.94-6.92 13.9-13.8 20.8-20.8 14.2-14.2 28.5-28.5 42.7-42.7l-1-3c-2.91-1.03-2.91-1.03-6.53-1.72-0.67-0.14-1.34-0.28-2.03-0.43-2.17-0.46-4.33-0.91-6.5-1.35-1.4-0.29-2.8-0.59-4.2-0.89-4.24-0.9-8.49-1.76-12.7-2.61-0.72-0.14-1.44-0.29-2.19-0.44-2.14-0.43-4.28-0.86-6.43-1.28-1.25-0.24-2.5-0.49-3.79-0.74-1.77-0.27-1.77-0.27-3.59-0.54-1.02-0.19-2.05-0.39-3.11-0.59-6.23 0.95-9.37 5.16-13.7 9.55zm425 195c-0.54 0.54-1.08 1.07-1.63 1.63-0.62 0.61-1.24 1.23-1.89 1.87-0.68 0.68-1.36 1.37-2.06 2.08l-2.19 2.19c-2.45 2.44-4.88 4.89-7.31 7.34-1.75 1.75-3.49 3.49-5.24 5.23-3.76 3.76-7.52 7.53-11.3 11.3-5.43 5.45-10.9 10.9-16.3 16.3-8.83 8.83-17.6 17.7-26.4 26.5-8.57 8.58-17.1 17.2-25.7 25.8-0.53 0.53-1.05 1.06-1.6 1.6-2.65 2.65-5.29 5.31-7.94 7.96-22 22-44 44-65.9 66.1 3.45 2.3 6.58 2.88 10.6 3.62 1.14 0.22 1.14 0.22 2.29 0.44 2.42 0.47 4.85 0.92 7.27 1.38 1.58 0.3 3.15 0.6 4.73 0.91 5.59 1.09 5.59 1.09 11.2 2.04 2.94 0.61 2.94 0.61 6.53 1.92 5.24 1.72 10.4 3.12 15.6 0.64 5.99-4.11 10.9-9.51 15.9-14.7 1.73-1.74 3.47-3.47 5.21-5.19 4.21-4.2 8.38-8.45 12.5-12.7 4.83-4.96 9.72-9.88 14.6-14.8 8.72-8.76 17.4-17.6 26-26.4 8.4-8.57 16.8-17.1 25.3-25.6 0.52-0.52 1.05-1.05 1.58-1.59 2.1-2.11 4.19-4.22 6.29-6.33 16-16.2 32-32.3 48-48.6 1.67-1.71 3.35-3.41 5.03-5.11 2.27-2.31 4.55-4.63 6.82-6.96 0.67-0.68 1.34-1.36 2.04-2.06 0.9-0.93 0.9-0.93 1.82-1.87 0.79-0.81 0.79-0.81 1.6-1.63 1.31-1.34 1.31-1.34 1.1-3.38-9.85-2.64-19.8-4.65-29.8-6.64-2.75-0.55-5.51-1.1-8.27-1.66-1.76-0.35-3.52-0.7-5.27-1.05-0.83-0.17-1.65-0.33-2.49-0.5-5.55-1.53-5.55-1.53-10.6-0.01zm109 188c-0.79 0.62-1.59 1.25-2.42 1.9-0.6 0.57-1.2 1.14-1.83 1.72v2h-2c-2.16 1.84-2.16 1.84-4 4v2c-0.99 0.33-1.98 0.66-3 1v2h-2c-2.66 2.34-2.66 2.34-5 5v2h-2v2l-4 2v3h2v2c1.99 1.69 3.99 3.36 6 5l1 2h2v2h2v2c1.46 1.23 2.93 2.45 4.42 3.64 2.19 1.88 3.83 4.08 5.58 6.36 2.03 2.27 2.03 2.27 4 4h2c0.23 0.56 0.46 1.12 0.69 1.69 1.69 2.97 3.78 5.03 6.31 7.31h2l1 3h2l1 3c1.67 1.34 3.33 2.67 5 4 0.92 1.07 1.82 2.15 2.69 3.25 0.77 0.91 1.53 1.82 2.31 2.75h2c0.21 0.53 0.42 1.06 0.63 1.61 1.95 3.4 4.6 5.9 7.37 8.64 0.55 0.56 1.1 1.11 1.66 1.68 2.67 3.06 2.67 3.06 6.34 4.07 0.23 0.56 0.46 1.12 0.69 1.69 1.69 2.97 3.78 5.03 6.31 7.31h2c0.23 0.56 0.46 1.12 0.69 1.69 1.69 2.97 3.78 5.03 6.31 7.31h2c0.41 0.9 0.41 0.9 0.82 1.82 1.18 2.18 2.28 3.6 4.18 5.18h2c0.23 0.56 0.46 1.12 0.69 1.69 1.69 2.97 3.78 5.03 6.31 7.31h2c0.31 0.8 0.31 0.8 0.63 1.61 1.95 3.4 4.6 5.9 7.37 8.64 0.55 0.56 1.1 1.11 1.66 1.68 2.67 3.06 2.67 3.06 6.34 4.07v2h2l1 3c1.72 1.89 1.72 1.89 3.82 3.69 0.68 0.62 1.37 1.25 2.08 1.89 2.23 1.8 2.23 1.8 6.1 1.42 2.17-1.8 4.07-3.57 6.01-5.58 0.57-0.57 1.14-1.14 1.72-1.73 1.2-1.2 2.39-2.42 3.57-3.63 1.82-1.86 3.65-3.71 5.48-5.55 1.16-1.18 2.32-2.35 3.48-3.53 0.82-0.83 0.82-0.83 1.66-1.67 4.67-4.49 4.67-4.49 6.15-10.5-2.61-9.36-12.6-16.5-19.3-23.2-1.12-1.13-2.25-2.26-3.38-3.39-3.03-3.05-6.07-6.09-9.11-9.13-1.9-1.9-3.8-3.81-5.71-5.71-6.63-6.65-13.3-13.3-19.9-19.9-6.19-6.18-12.4-12.4-18.5-18.6-5.31-5.33-10.6-10.6-16-16-3.17-3.17-6.35-6.35-9.51-9.53l-8.94-8.94c-1.09-1.09-2.19-2.18-3.28-3.28-1.48-1.5-2.98-2.99-4.48-4.47-0.83-0.84-1.66-1.67-2.52-2.53-5.75-5.15-9.75-6.89-16.2-1.77zm-326 28.7c-0.52 0.52-1.04 1.05-1.58 1.59-0.91 0.9-0.91 0.9-1.85 1.82-0.66 0.67-1.31 1.34-1.99 2.04-0.71 0.7-1.42 1.41-2.15 2.13-2.38 2.38-4.75 4.77-7.11 7.16-1.7 1.7-3.4 3.4-5.1 5.11-3.67 3.66-7.33 7.34-11 11-5.28 5.32-10.6 10.6-15.9 16-8.61 8.62-17.2 17.2-25.8 25.9-8.34 8.38-16.7 16.8-25 25.1-0.51 0.51-1.02 1.03-1.55 1.56-5.61 5.63-11.2 11.2-16.8 16.9-0.73 0.74-0.73 0.74-1.49 1.5-4.05 4.06-4.05 4.06-5.91 5.93-5.78 5.79-11.6 11.6-17.3 17.4-4.05 4.07-8.09 8.13-12.1 12.2-1.66 1.67-3.33 3.34-4.99 5.01-2.26 2.27-4.52 4.54-6.78 6.81-0.67 0.67-1.33 1.34-2.01 2.03-0.6 0.6-1.21 1.21-1.84 1.83-0.52 0.53-1.04 1.05-1.58 1.59-1.48 1.36-1.48 1.36-4.48 3.36v3c4.3 0.9 8.59 1.8 12.9 2.69 1.17 0.24 2.33 0.49 3.53 0.74 2.53 0.53 5.07 1.02 7.61 1.5 3.72 0.73 7.26 1.76 10.9 2.89 11.3 3.46 11.3 3.46 22.8 2.24 6.46-3.72 11.4-9.24 16.4-14.6 1.73-1.74 3.47-3.47 5.22-5.2 3.72-3.71 7.39-7.47 11-11.3 5.25-5.5 10.6-10.9 15.9-16.3 8.69-8.76 17.3-17.6 25.9-26.4 8.32-8.6 16.7-17.2 25.1-25.7 0.78-0.79 0.78-0.79 1.57-1.59 2.6-2.65 5.21-5.29 7.81-7.94 21.6-21.9 43-43.9 64.4-65.9l-1-3c-7.04-1.43-14.1-2.85-21.1-4.27-2.4-0.48-4.79-0.97-7.19-1.46-3.45-0.69-6.89-1.39-10.3-2.08-1.07-0.22-2.14-0.44-3.25-0.66-1-0.2-2-0.4-3.03-0.61-0.88-0.18-1.76-0.35-2.67-0.54-4.18-0.75-4.18-0.75-7.98 0.73zm-219 219c-0.76 0.76-1.53 1.51-2.31 2.29-0.82 0.83-1.64 1.66-2.49 2.52-0.86 0.85-1.71 1.71-2.59 2.59-1.82 1.82-3.63 3.64-5.44 5.47-2.73 2.76-5.48 5.5-8.23 8.23-34.4 34.5-56.6 75.5-57.1 125 0.21 44.6 18.5 86.1 49.6 118 3.9 3.82 8.13 7.15 12.5 10.4 1.1 0.87 2.2 1.74 3.29 2.61 33.3 26 76.4 36.8 118 32.2 46.7-5.91 80.3-30.1 113-62.8 0.88-0.88 1.75-1.77 2.65-2.68 0.79-0.8 1.58-1.59 2.39-2.42 1.94-1.85 1.94-1.85 3.94-2.85v-3c-1.62-1.57-1.62-1.57-3.81-3.06-11.1-8.31-19.9-17.8-28.2-28.9-4.11 1.62-6.77 4.59-9.76 7.72-1.15 1.17-2.3 2.35-3.45 3.52-1.79 1.83-3.56 3.67-5.34 5.51-22.4 23.2-50.5 40-83.4 41.2-0.95 0.04-1.9 0.08-2.89 0.12-32.9 0.69-63.1-11.7-86.8-34.4-20.9-21.6-32.1-51-32.6-80.9 1.04-41.6 21.2-70 49.8-98.4l3.16-3.16c2.74-2.73 5.47-5.45 8.21-8.18 2.79-2.78 5.58-5.57 8.38-8.36 4.89-4.88 9.78-9.76 14.7-14.6 1.7-1.69 3.4-3.39 5.1-5.1-5.28-3.06-10.5-4.13-16.5-5.26-1.51-0.29-1.51-0.29-3.04-0.59-2.11-0.41-4.23-0.82-6.34-1.22-3.24-0.61-6.47-1.24-9.71-1.87-2.05-0.4-4.11-0.8-6.16-1.19-0.97-0.19-1.94-0.38-2.93-0.57-1.35-0.26-1.35-0.26-2.73-0.52-0.79-0.15-1.58-0.3-2.4-0.46-4.94-0.72-6.7-0.31-10.1 3.13z" fill="#000100"/>
</svg>
