<?xml version="1.0" encoding="UTF-8"?>
<!-- Generator: visioncortex VTracer 0.6.2 -->
<svg version="1.1" xmlns="http://www.w3.org/2000/svg" width="1280" height="1280">
<path d="M0 0 C3.32561808 3.51794298 4.73089159 6.47101615 5.21435547 11.41137695 C5.03556087 15.70759579 3.20947847 19.35837312 1.43359375 23.21484375 C1.08103516 24.02630859 0.72847656 24.83777344 0.36523438 25.67382812 C-1.26978024 29.37727073 -3.00155626 32.96344566 -5.03515625 36.46484375 C-6.51043039 39.01531769 -7.66921676 41.34554191 -8.69140625 44.08984375 C-10.48771011 48.71905369 -12.40304027 53.28511843 -14.37890625 57.83984375 C-14.66354736 58.50491943 -14.94818848 59.16999512 -15.24145508 59.85522461 C-16.66729976 63.12771502 -18.18161142 66.26253707 -19.98046875 69.34765625 C-21.51591326 72.02046706 -22.69961274 74.46312859 -23.75390625 77.33984375 C-25.25623434 81.23761625 -26.97829732 84.93230767 -28.87890625 88.65234375 C-31.07839462 92.97453037 -32.9996259 97.2937518 -34.75 101.8125 C-36.22352308 105.51925183 -37.79206139 109.18041088 -39.37890625 112.83984375 C-39.6637085 113.50532227 -39.94851074 114.17080078 -40.24194336 114.85644531 C-41.66766946 118.12849688 -43.1818374 121.26292464 -44.98046875 124.34765625 C-46.51591326 127.02046706 -47.69961274 129.46312859 -48.75390625 132.33984375 C-50.25623434 136.23761625 -51.97829732 139.93230767 -53.87890625 143.65234375 C-56.07839462 147.97453037 -57.9996259 152.2937518 -59.75 156.8125 C-61.22352308 160.51925183 -62.79206139 164.18041088 -64.37890625 167.83984375 C-64.6637085 168.50532227 -64.94851074 169.17080078 -65.24194336 169.85644531 C-66.66766946 173.12849688 -68.1818374 176.26292464 -69.98046875 179.34765625 C-71.51591326 182.02046706 -72.69961274 184.46312859 -73.75390625 187.33984375 C-75.25623434 191.23761625 -76.97829732 194.93230767 -78.87890625 198.65234375 C-81.07839462 202.97453037 -82.9996259 207.2937518 -84.75 211.8125 C-86.22352308 215.51925183 -87.79206139 219.18041088 -89.37890625 222.83984375 C-89.6637085 223.50532227 -89.94851074 224.17080078 -90.24194336 224.85644531 C-91.66882824 228.13115629 -93.18463866 231.26801505 -94.984375 234.35546875 C-96.49928326 236.99172147 -97.66076189 239.37676395 -98.69140625 242.21484375 C-100.39134155 246.57176455 -102.28326117 250.81688611 -104.31640625 255.02734375 C-104.87199219 256.19007813 -105.42757812 257.3528125 -106 258.55078125 C-108.31949727 262.37963953 -110.8883397 264.65706047 -114.87890625 266.65234375 C-119.58667625 267.04465792 -121.94970322 267.12571133 -126.19140625 264.96484375 C-132.27648286 259.7288476 -133.69703438 252.76283108 -135.3125 245.20703125 C-135.94801248 242.34065082 -136.65831523 239.49849721 -137.37890625 236.65234375 C-139.30258023 229.01564803 -140.96853009 221.36245741 -142.4140625 213.62109375 C-142.69466984 211.66134804 -142.69466984 211.66134804 -143.87890625 210.65234375 C-144.20721412 209.20181988 -144.49071018 207.74108327 -144.75390625 206.27734375 C-145.48030376 202.43073878 -146.40258075 198.72077931 -147.50390625 194.96484375 C-148.7183355 190.66857142 -149.17520587 187.09683807 -148.87890625 182.65234375 C-153.27195882 184.78230863 -155.82584029 187.7274415 -158.90234375 191.38671875 C-161.78357788 194.68931913 -164.91869976 197.71478693 -168.05859375 200.76953125 C-169.94274523 202.52987714 -169.94274523 202.52987714 -170.87890625 204.65234375 C-171.53890625 204.65234375 -172.19890625 204.65234375 -172.87890625 204.65234375 C-172.87890625 205.31234375 -172.87890625 205.97234375 -172.87890625 206.65234375 C-174.25390625 208.27734375 -174.25390625 208.27734375 -175.87890625 209.65234375 C-176.53890625 209.65234375 -177.19890625 209.65234375 -177.87890625 209.65234375 C-178.14703125 210.29171875 -178.41515625 210.93109375 -178.69140625 211.58984375 C-179.87890625 213.65234375 -179.87890625 213.65234375 -182.87890625 214.65234375 C-183.56510656 215.97573007 -184.22677086 217.31184323 -184.87890625 218.65234375 C-190.24587873 225.39546302 -190.24587873 225.39546302 -192.87890625 227.65234375 C-193.53890625 227.65234375 -194.19890625 227.65234375 -194.87890625 227.65234375 C-195.14703125 228.29171875 -195.41515625 228.93109375 -195.69140625 229.58984375 C-196.87890625 231.65234375 -196.87890625 231.65234375 -199.87890625 232.65234375 C-200.56385146 233.97638011 -201.22755312 235.31146295 -201.87890625 236.65234375 C-203.18756415 238.07072552 -204.5454827 239.44475611 -205.94140625 240.77734375 C-208.79462558 243.43139375 -208.79462558 243.43139375 -210.87890625 246.65234375 C-211.53890625 246.65234375 -212.19890625 246.65234375 -212.87890625 246.65234375 C-213.18634766 247.45285156 -213.18634766 247.45285156 -213.5 248.26953125 C-215.45723271 251.65171809 -218.13860275 254.08271863 -220.94140625 256.77734375 C-224.88339565 260.34787741 -224.88339565 260.34787741 -227.87890625 264.65234375 C-228.53890625 264.65234375 -229.19890625 264.65234375 -229.87890625 264.65234375 C-230.20890625 265.64234375 -230.53890625 266.63234375 -230.87890625 267.65234375 C-231.53890625 267.65234375 -232.19890625 267.65234375 -232.87890625 267.65234375 C-232.87890625 268.31234375 -232.87890625 268.97234375 -232.87890625 269.65234375 C-233.53890625 269.65234375 -234.19890625 269.65234375 -234.87890625 269.65234375 C-235.14316406 270.2453125 -235.40742187 270.83828125 -235.6796875 271.44921875 C-236.9226105 273.73263429 -238.18292271 275.12661098 -240.06640625 276.90234375 C-243.90642907 280.63106156 -247.39243612 284.59507984 -250.87890625 288.65234375 C-252.12711751 290.09139723 -253.37708417 291.52893019 -254.62890625 292.96484375 C-255.180625 293.60035156 -255.73234375 294.23585938 -256.30078125 294.890625 C-259.31719739 298.25796084 -259.31719739 298.25796084 -260.87890625 299.65234375 C-261.53890625 299.65234375 -262.19890625 299.65234375 -262.87890625 299.65234375 C-262.87890625 300.31234375 -262.87890625 300.97234375 -262.87890625 301.65234375 C-263.53890625 301.65234375 -264.19890625 301.65234375 -264.87890625 301.65234375 C-265.20890625 302.64234375 -265.53890625 303.63234375 -265.87890625 304.65234375 C-266.53890625 304.65234375 -267.19890625 304.65234375 -267.87890625 304.65234375 C-268.23855469 305.50505859 -268.23855469 305.50505859 -268.60546875 306.375 C-270.13735784 309.11454398 -271.98984054 310.9198007 -274.25390625 313.08984375 C-276.80008706 315.56654611 -279.10019477 317.93037292 -281.31640625 320.71484375 C-281.83203125 321.35421875 -282.34765625 321.99359375 -282.87890625 322.65234375 C-283.53890625 322.65234375 -284.19890625 322.65234375 -284.87890625 322.65234375 C-285.12511719 323.22726562 -285.37132812 323.8021875 -285.625 324.39453125 C-287.07683678 327.00874202 -288.78178174 328.71570583 -290.94140625 330.77734375 C-293.79462558 333.43139375 -293.79462558 333.43139375 -295.87890625 336.65234375 C-296.53890625 336.65234375 -297.19890625 336.65234375 -297.87890625 336.65234375 C-298.20890625 337.64234375 -298.53890625 338.63234375 -298.87890625 339.65234375 C-299.53890625 339.65234375 -300.19890625 339.65234375 -300.87890625 339.65234375 C-301.23855469 340.50505859 -301.23855469 340.50505859 -301.60546875 341.375 C-303.13735784 344.11454398 -304.98984054 345.9198007 -307.25390625 348.08984375 C-309.80008706 350.56654611 -312.10019477 352.93037292 -314.31640625 355.71484375 C-314.83203125 356.35421875 -315.34765625 356.99359375 -315.87890625 357.65234375 C-316.53890625 357.65234375 -317.19890625 357.65234375 -317.87890625 357.65234375 C-317.87890625 358.31234375 -317.87890625 358.97234375 -317.87890625 359.65234375 C-318.53890625 359.65234375 -319.19890625 359.65234375 -319.87890625 359.65234375 C-320.20890625 360.64234375 -320.53890625 361.63234375 -320.87890625 362.65234375 C-321.53890625 362.65234375 -322.19890625 362.65234375 -322.87890625 362.65234375 C-322.87890625 363.31234375 -322.87890625 363.97234375 -322.87890625 364.65234375 C-323.53890625 364.65234375 -324.19890625 364.65234375 -324.87890625 364.65234375 C-325.14316406 365.2453125 -325.40742187 365.83828125 -325.6796875 366.44921875 C-326.9226105 368.73263429 -328.18292271 370.12661098 -330.06640625 371.90234375 C-333.30538311 375.04010259 -336.27673645 378.32856004 -339.203125 381.7578125 C-340.87890625 383.65234375 -340.87890625 383.65234375 -343.09765625 385.4453125 C-345.67076876 388.63348918 -345.11287869 390.77961509 -344.69140625 394.77734375 C-344.57410156 396.01742188 -344.45679688 397.2575 -344.3359375 398.53515625 C-344.05966889 401.55142874 -344.05966889 401.55142874 -342.87890625 403.65234375 C-342.69266834 405.85763713 -342.55540631 408.06713845 -342.44140625 410.27734375 C-342.13844286 415.70320207 -341.58871795 421.01791709 -340.81640625 426.40234375 C-339.03836742 439.39101367 -337.69980346 456.11503539 -341.87890625 468.65234375 C-342.02291367 470.31308872 -342.13788969 471.97644275 -342.234375 473.640625 C-342.74728559 479.69296993 -344.27464177 485.09758705 -346.19140625 490.83984375 C-346.48724609 491.77248047 -346.78308594 492.70511719 -347.08789062 493.66601562 C-348.91193073 499.27208272 -351.06717011 504.47358119 -353.87890625 509.65234375 C-354.70455078 511.19535156 -354.70455078 511.19535156 -355.546875 512.76953125 C-356.04832031 513.67960938 -356.54976562 514.5896875 -357.06640625 515.52734375 C-359.01961074 519.06525608 -359.01961074 519.06525608 -360.87890625 522.65234375 C-361.53890625 522.65234375 -362.19890625 522.65234375 -362.87890625 522.65234375 C-363.00265625 523.25046875 -363.12640625 523.84859375 -363.25390625 524.46484375 C-363.87890625 526.65234375 -363.87890625 526.65234375 -365.87890625 529.65234375 C-366.53890625 529.65234375 -367.19890625 529.65234375 -367.87890625 529.65234375 C-368.14703125 530.41546875 -368.41515625 531.17859375 -368.69140625 531.96484375 C-369.8302513 534.54222993 -370.69307296 535.92189239 -372.87890625 537.65234375 C-373.53890625 537.65234375 -374.19890625 537.65234375 -374.87890625 537.65234375 C-374.87890625 538.31234375 -374.87890625 538.97234375 -374.87890625 539.65234375 C-377.11657257 541.35852657 -379.34152013 542.92658297 -381.69140625 544.46484375 C-382.37702637 544.91553223 -383.06264648 545.3662207 -383.76904297 545.83056641 C-392.35323171 551.37088724 -401.02971918 554.88078777 -410.82421875 557.75 C-413.37585962 558.50374558 -415.87158761 559.32855713 -418.37890625 560.21484375 C-426.82789971 563.04664925 -435.35590291 564.77507241 -444.234375 565.41015625 C-446.8188665 565.64684528 -449.27387756 566.07580218 -451.81640625 566.58984375 C-463.78154409 568.80438584 -475.67047281 569.69066686 -487.82421875 569.75390625 C-489.62475701 569.77062819 -491.42529412 569.78747521 -493.22583008 569.80444336 C-496.83638667 569.83662976 -500.44305067 569.82162706 -504.0534668 569.78344727 C-514.09883282 569.40403725 -514.09883282 569.40403725 -522.515625 574.078125 C-523.87947774 575.89431081 -524.86463117 577.62379358 -525.87890625 579.65234375 C-526.53890625 579.65234375 -527.19890625 579.65234375 -527.87890625 579.65234375 C-527.87890625 580.31234375 -527.87890625 580.97234375 -527.87890625 581.65234375 C-529.25390625 583.27734375 -529.25390625 583.27734375 -530.87890625 584.65234375 C-531.53890625 584.65234375 -532.19890625 584.65234375 -532.87890625 584.65234375 C-533.14703125 585.29171875 -533.41515625 585.93109375 -533.69140625 586.58984375 C-534.87890625 588.65234375 -534.87890625 588.65234375 -537.87890625 589.65234375 C-538.5723899 590.97192802 -539.23564448 592.30756254 -539.87890625 593.65234375 C-541.5703125 595.50390625 -541.5703125 595.50390625 -543.44140625 597.27734375 C-546.01906014 599.69756334 -546.01906014 599.69756334 -547.87890625 602.65234375 C-548.53890625 602.65234375 -549.19890625 602.65234375 -549.87890625 602.65234375 C-549.87890625 603.31234375 -549.87890625 603.97234375 -549.87890625 604.65234375 C-551.25390625 606.27734375 -551.25390625 606.27734375 -552.87890625 607.65234375 C-553.53890625 607.65234375 -554.19890625 607.65234375 -554.87890625 607.65234375 C-555.12640625 608.22984375 -555.37390625 608.80734375 -555.62890625 609.40234375 C-557.49614633 612.76337589 -560.2242754 615.03622059 -563.00390625 617.65234375 C-564.81128483 619.58021423 -565.84465309 621.23908637 -566.87890625 623.65234375 C-566.21890625 623.65234375 -565.55890625 623.65234375 -564.87890625 623.65234375 C-564.87890625 624.31234375 -564.87890625 624.97234375 -564.87890625 625.65234375 C-564.30398438 625.89855469 -563.7290625 626.14476562 -563.13671875 626.3984375 C-560.52250798 627.85027428 -558.81554417 629.55521924 -556.75390625 631.71484375 C-554.09985625 634.56806308 -554.09985625 634.56806308 -550.87890625 636.65234375 C-550.87890625 637.31234375 -550.87890625 637.97234375 -550.87890625 638.65234375 C-550.07839844 638.95978516 -550.07839844 638.95978516 -549.26171875 639.2734375 C-545.87953191 641.23067021 -543.44853137 643.91204025 -540.75390625 646.71484375 C-537.18337259 650.65683315 -537.18337259 650.65683315 -532.87890625 653.65234375 C-532.87890625 654.31234375 -532.87890625 654.97234375 -532.87890625 655.65234375 C-531.88890625 655.98234375 -530.89890625 656.31234375 -529.87890625 656.65234375 C-529.87890625 657.31234375 -529.87890625 657.97234375 -529.87890625 658.65234375 C-529.21890625 658.65234375 -528.55890625 658.65234375 -527.87890625 658.65234375 C-527.21890625 660.30234375 -526.55890625 661.95234375 -525.87890625 663.65234375 C-527.49485457 665.69354163 -529.16454445 667.69307312 -530.87890625 669.65234375 C-531.53890625 669.65234375 -532.19890625 669.65234375 -532.87890625 669.65234375 C-533.14703125 670.29171875 -533.41515625 670.93109375 -533.69140625 671.58984375 C-534.87890625 673.65234375 -534.87890625 673.65234375 -537.87890625 674.65234375 C-538.5723899 675.97192802 -539.23564448 677.30756254 -539.87890625 678.65234375 C-541.5703125 680.50390625 -541.5703125 680.50390625 -543.44140625 682.27734375 C-546.01906014 684.69756334 -546.01906014 684.69756334 -547.87890625 687.65234375 C-548.53890625 687.65234375 -549.19890625 687.65234375 -549.87890625 687.65234375 C-550.24822266 688.51472656 -550.24822266 688.51472656 -550.625 689.39453125 C-552.07683678 692.00874202 -553.78178174 693.71570583 -555.94140625 695.77734375 C-558.79462558 698.43139375 -558.79462558 698.43139375 -560.87890625 701.65234375 C-561.53890625 701.65234375 -562.19890625 701.65234375 -562.87890625 701.65234375 C-563.18634766 702.45285156 -563.18634766 702.45285156 -563.5 703.26953125 C-565.45723271 706.65171809 -568.13860275 709.08271863 -570.94140625 711.77734375 C-574.88339565 715.34787741 -574.88339565 715.34787741 -577.87890625 719.65234375 C-578.53890625 719.65234375 -579.19890625 719.65234375 -579.87890625 719.65234375 C-580.20890625 720.64234375 -580.53890625 721.63234375 -580.87890625 722.65234375 C-581.53890625 722.65234375 -582.19890625 722.65234375 -582.87890625 722.65234375 C-582.87890625 723.31234375 -582.87890625 723.97234375 -582.87890625 724.65234375 C-583.53890625 724.65234375 -584.19890625 724.65234375 -584.87890625 724.65234375 C-585.14703125 725.235 -585.41515625 725.81765625 -585.69140625 726.41796875 C-586.89371616 728.68020976 -588.21716538 730.45810693 -589.87890625 732.40234375 C-590.39453125 733.0159375 -590.91015625 733.62953125 -591.44140625 734.26171875 C-592.87890625 735.65234375 -592.87890625 735.65234375 -594.87890625 735.65234375 C-595.24822266 736.51472656 -595.24822266 736.51472656 -595.625 737.39453125 C-597.07683678 740.00874202 -598.78178174 741.71570583 -600.94140625 743.77734375 C-603.79462558 746.43139375 -603.79462558 746.43139375 -605.87890625 749.65234375 C-606.53890625 749.65234375 -607.19890625 749.65234375 -607.87890625 749.65234375 C-607.87890625 750.31234375 -607.87890625 750.97234375 -607.87890625 751.65234375 C-608.53890625 751.65234375 -609.19890625 751.65234375 -609.87890625 751.65234375 C-610.20890625 752.64234375 -610.53890625 753.63234375 -610.87890625 754.65234375 C-611.53890625 754.65234375 -612.19890625 754.65234375 -612.87890625 754.65234375 C-613.13542969 755.23757813 -613.39195312 755.8228125 -613.65625 756.42578125 C-614.98452787 758.84468983 -616.44415426 760.38433247 -618.44140625 762.27734375 C-621.01906014 764.69756334 -621.01906014 764.69756334 -622.87890625 767.65234375 C-623.53890625 767.65234375 -624.19890625 767.65234375 -624.87890625 767.65234375 C-624.87890625 768.31234375 -624.87890625 768.97234375 -624.87890625 769.65234375 C-625.53890625 769.65234375 -626.19890625 769.65234375 -626.87890625 769.65234375 C-627.13027344 770.22339844 -627.38164063 770.79445313 -627.640625 771.3828125 C-629.04822138 773.9626658 -630.66149605 775.8417828 -632.69140625 777.96484375 C-633.69107422 779.04185547 -633.69107422 779.04185547 -634.7109375 780.140625 C-636.87890625 781.65234375 -636.87890625 781.65234375 -639.31640625 781.6953125 C-642.71835788 780.3106767 -644.55988916 778.32191717 -647.06640625 775.65234375 C-650.13878578 772.20731669 -650.13878578 772.20731669 -653.87890625 769.65234375 C-653.87890625 768.99234375 -653.87890625 768.33234375 -653.87890625 767.65234375 C-654.86890625 767.32234375 -655.85890625 766.99234375 -656.87890625 766.65234375 C-656.87890625 765.99234375 -656.87890625 765.33234375 -656.87890625 764.65234375 C-657.53890625 764.65234375 -658.19890625 764.65234375 -658.87890625 764.65234375 C-658.87890625 763.99234375 -658.87890625 763.33234375 -658.87890625 762.65234375 C-659.86890625 762.32234375 -660.85890625 761.99234375 -661.87890625 761.65234375 C-661.87890625 760.99234375 -661.87890625 760.33234375 -661.87890625 759.65234375 C-662.45125 759.40871094 -663.02359375 759.16507813 -663.61328125 758.9140625 C-666.28324163 757.42717077 -668.01719632 755.67150467 -670.12890625 753.46484375 C-674.20646156 749.29385837 -678.44680133 745.43882709 -682.87890625 741.65234375 C-684.31829955 740.40452438 -685.75582546 739.15454743 -687.19140625 737.90234375 C-687.82691406 737.350625 -688.46242188 736.79890625 -689.1171875 736.23046875 C-692.48452334 733.21405261 -692.48452334 733.21405261 -693.87890625 731.65234375 C-693.87890625 730.99234375 -693.87890625 730.33234375 -693.87890625 729.65234375 C-694.51828125 729.38421875 -695.15765625 729.11609375 -695.81640625 728.83984375 C-697.87890625 727.65234375 -697.87890625 727.65234375 -698.87890625 724.65234375 C-700.19849052 723.9588601 -701.53412504 723.29560552 -702.87890625 722.65234375 C-704.73046875 720.9609375 -704.73046875 720.9609375 -706.50390625 719.08984375 C-708.92412584 716.51218986 -708.92412584 716.51218986 -711.87890625 714.65234375 C-711.87890625 713.99234375 -711.87890625 713.33234375 -711.87890625 712.65234375 C-712.53890625 712.65234375 -713.19890625 712.65234375 -713.87890625 712.65234375 C-715.50390625 711.27734375 -715.50390625 711.27734375 -716.87890625 709.65234375 C-716.87890625 708.99234375 -716.87890625 708.33234375 -716.87890625 707.65234375 C-717.45382812 707.40613281 -718.02875 707.15992188 -718.62109375 706.90625 C-721.23530452 705.45441322 -722.94226833 703.74946826 -725.00390625 701.58984375 C-727.65795625 698.73662442 -727.65795625 698.73662442 -730.87890625 696.65234375 C-730.87890625 695.99234375 -730.87890625 695.33234375 -730.87890625 694.65234375 C-731.41515625 694.44609375 -731.95140625 694.23984375 -732.50390625 694.02734375 C-735.88067165 692.07237431 -738.18365464 689.4701068 -740.87890625 686.65234375 C-739.39021918 682.05094734 -737.1326077 679.15007281 -733.87890625 675.65234375 C-733.21890625 675.65234375 -732.55890625 675.65234375 -731.87890625 675.65234375 C-731.87890625 674.99234375 -731.87890625 674.33234375 -731.87890625 673.65234375 C-731.21890625 673.65234375 -730.55890625 673.65234375 -729.87890625 673.65234375 C-729.54890625 672.66234375 -729.21890625 671.67234375 -728.87890625 670.65234375 C-728.21890625 670.65234375 -727.55890625 670.65234375 -726.87890625 670.65234375 C-726.61464844 670.059375 -726.35039063 669.46640625 -726.078125 668.85546875 C-724.835202 666.57205321 -723.57488979 665.17807652 -721.69140625 663.40234375 C-717.13934533 658.98222662 -713.03971143 654.21638235 -708.953125 649.3671875 C-708.33050781 648.63628906 -707.70789063 647.90539062 -707.06640625 647.15234375 C-706.50308594 646.48203125 -705.93976563 645.81171875 -705.359375 645.12109375 C-703.87890625 643.65234375 -703.87890625 643.65234375 -701.87890625 643.65234375 C-701.54890625 642.66234375 -701.21890625 641.67234375 -700.87890625 640.65234375 C-700.21890625 640.65234375 -699.55890625 640.65234375 -698.87890625 640.65234375 C-698.87890625 639.99234375 -698.87890625 639.33234375 -698.87890625 638.65234375 C-698.21890625 638.65234375 -697.55890625 638.65234375 -696.87890625 638.65234375 C-696.61464844 638.059375 -696.35039063 637.46640625 -696.078125 636.85546875 C-694.835202 634.57205321 -693.57488979 633.17807652 -691.69140625 631.40234375 C-687.85138343 627.67362594 -684.36537638 623.70960766 -680.87890625 619.65234375 C-679.63069499 618.21329027 -678.38072833 616.77575731 -677.12890625 615.33984375 C-676.5771875 614.70433594 -676.02546875 614.06882812 -675.45703125 613.4140625 C-672.44061511 610.04672666 -672.44061511 610.04672666 -670.87890625 608.65234375 C-670.21890625 608.65234375 -669.55890625 608.65234375 -668.87890625 608.65234375 C-668.47671875 607.69328125 -668.47671875 607.69328125 -668.06640625 606.71484375 C-666.87890625 604.65234375 -666.87890625 604.65234375 -663.87890625 603.65234375 C-663.19270594 602.32895743 -662.53104164 600.99284427 -661.87890625 599.65234375 C-656.51193377 592.90922448 -656.51193377 592.90922448 -653.87890625 590.65234375 C-653.21890625 590.65234375 -652.55890625 590.65234375 -651.87890625 590.65234375 C-651.50958984 589.78996094 -651.50958984 589.78996094 -651.1328125 588.91015625 C-649.68097572 586.29594548 -647.97603076 584.58898167 -645.81640625 582.52734375 C-642.96318692 579.87329375 -642.96318692 579.87329375 -640.87890625 576.65234375 C-640.21890625 576.65234375 -639.55890625 576.65234375 -638.87890625 576.65234375 C-638.61722656 576.07097656 -638.35554688 575.48960937 -638.0859375 574.890625 C-636.07163073 571.1553571 -633.28276479 568.1796722 -629.87890625 565.65234375 C-626.94140625 565.71484375 -626.94140625 565.71484375 -624.87890625 566.65234375 C-624.87890625 567.31234375 -624.87890625 567.97234375 -624.87890625 568.65234375 C-624.21890625 568.65234375 -623.55890625 568.65234375 -622.87890625 568.65234375 C-622.87890625 569.31234375 -622.87890625 569.97234375 -622.87890625 570.65234375 C-622.2859375 570.91660156 -621.69296875 571.18085937 -621.08203125 571.453125 C-618.79861571 572.696048 -617.40463902 573.95636021 -615.62890625 575.83984375 C-613.17864033 578.36830964 -610.68058574 580.73990251 -608.00390625 583.02734375 C-604.0452035 586.42935392 -600.4001497 590.09218062 -596.76171875 593.83203125 C-595.00137286 595.71618273 -595.00137286 595.71618273 -592.87890625 596.65234375 C-592.87890625 597.31234375 -592.87890625 597.97234375 -592.87890625 598.65234375 C-592.21890625 598.65234375 -591.55890625 598.65234375 -590.87890625 598.65234375 C-590.87890625 599.31234375 -590.87890625 599.97234375 -590.87890625 600.65234375 C-589.55890625 601.31234375 -588.23890625 601.97234375 -586.87890625 602.65234375 C-584.4682378 600.3068285 -582.17696046 598.06078841 -580.19140625 595.33984375 C-579.75828125 594.78296875 -579.32515625 594.22609375 -578.87890625 593.65234375 C-578.21890625 593.65234375 -577.55890625 593.65234375 -576.87890625 593.65234375 C-576.54890625 592.66234375 -576.21890625 591.67234375 -575.87890625 590.65234375 C-575.21890625 590.65234375 -574.55890625 590.65234375 -573.87890625 590.65234375 C-573.87890625 589.99234375 -573.87890625 589.33234375 -573.87890625 588.65234375 C-573.21890625 588.65234375 -572.55890625 588.65234375 -571.87890625 588.65234375 C-571.62238281 588.06710937 -571.36585938 587.481875 -571.1015625 586.87890625 C-569.77328463 584.45999767 -568.31365824 582.92035503 -566.31640625 581.02734375 C-563.73875236 578.60712416 -563.73875236 578.60712416 -561.87890625 575.65234375 C-561.21890625 575.65234375 -560.55890625 575.65234375 -559.87890625 575.65234375 C-559.56953125 575.03359375 -559.26015625 574.41484375 -558.94140625 573.77734375 C-558.25390625 572.40234375 -557.56640625 571.02734375 -556.87890625 569.65234375 C-560.84293606 568.75482757 -564.69927649 568.3964935 -568.75390625 568.15234375 C-570.06875 568.06984375 -571.38359375 567.98734375 -572.73828125 567.90234375 C-574.11846577 567.81861692 -575.49867444 567.73528726 -576.87890625 567.65234375 C-579.58751966 567.48957262 -582.29571735 567.32226933 -585.00390625 567.15234375 C-586.20273437 567.08015625 -587.4015625 567.00796875 -588.63671875 566.93359375 C-591.46498451 566.68825021 -594.10751027 566.23983684 -596.87890625 565.65234375 C-599.21067925 565.50100271 -601.54446017 565.37947577 -603.87890625 565.27734375 C-610.72476996 564.91849457 -617.46910692 564.12376135 -624.25390625 563.15234375 C-625.17558594 563.02166504 -626.09726562 562.89098633 -627.046875 562.75634766 C-633.61254532 561.78552422 -633.61254532 561.78552422 -635.87890625 560.65234375 C-637.80901567 560.2785858 -639.74857473 559.95304802 -641.69140625 559.65234375 C-642.72910156 559.48734375 -643.76679687 559.32234375 -644.8359375 559.15234375 C-655.04530087 557.78785295 -665.26544878 557.48935144 -675.55493164 557.52197266 C-677.57510783 557.52736699 -679.59506454 557.52196929 -681.61523438 557.515625 C-700.59706392 557.53433553 -716.53810022 560.04440822 -732.8203125 570.41796875 C-734.87890625 571.65234375 -734.87890625 571.65234375 -737.87890625 572.65234375 C-737.87890625 573.31234375 -737.87890625 573.97234375 -737.87890625 574.65234375 C-738.53890625 574.65234375 -739.19890625 574.65234375 -739.87890625 574.65234375 C-740.20890625 575.64234375 -740.53890625 576.63234375 -740.87890625 577.65234375 C-741.53890625 577.65234375 -742.19890625 577.65234375 -742.87890625 577.65234375 C-743.12640625 578.35359375 -743.37390625 579.05484375 -743.62890625 579.77734375 C-744.87890625 582.65234375 -744.87890625 582.65234375 -746.81640625 585.52734375 C-759.39234324 604.58179373 -756.10000189 633.3813324 -751.87890625 654.65234375 C-750.28758564 661.79980072 -748.31213083 668.74843545 -745.87890625 675.65234375 C-744.14043945 680.86774414 -744.16571611 686.22676646 -744.87890625 691.65234375 C-747.1281012 695.62323516 -750.72617878 697.90961124 -754.87890625 699.65234375 C-756.9921875 699.8828125 -756.9921875 699.8828125 -759.19140625 699.83984375 C-759.90941406 699.83339844 -760.62742187 699.82695313 -761.3671875 699.8203125 C-763.87890625 699.65234375 -763.87890625 699.65234375 -766.82421875 699.1484375 C-772.65081465 698.27660611 -778.56544379 698.50843985 -784.44140625 698.52734375 C-785.64732422 698.52347656 -786.85324219 698.51960937 -788.09570312 698.515625 C-789.26294922 698.51691406 -790.43019531 698.51820313 -791.6328125 698.51953125 C-793.21557983 698.52122314 -793.21557983 698.52122314 -794.83032227 698.52294922 C-797.92280133 698.65420684 -800.83453611 699.11139214 -803.87890625 699.65234375 C-806.21162609 699.75137431 -808.54511168 699.83312103 -810.87890625 699.90234375 C-825.89417914 700.63836902 -841.18959181 704.47259609 -854.87890625 710.65234375 C-855.719375 711.0184375 -856.55984375 711.38453125 -857.42578125 711.76171875 C-865.16184385 715.35874149 -873.62114065 720.34716428 -879.6328125 726.42578125 C-880.87890625 727.65234375 -880.87890625 727.65234375 -882.87890625 727.65234375 C-883.28109375 728.48765625 -883.28109375 728.48765625 -883.69140625 729.33984375 C-884.98790121 731.86459709 -886.30366948 734.28948859 -887.87890625 736.65234375 C-888.53890625 736.65234375 -889.19890625 736.65234375 -889.87890625 736.65234375 C-890.15734375 737.35746094 -890.43578125 738.06257812 -890.72265625 738.7890625 C-891.49284295 740.69631537 -892.28457737 742.59500902 -893.09765625 744.484375 C-905.50689525 773.35098889 -899.48404726 804.83692072 -889.87890625 833.65234375 C-889.78473847 835.67141183 -889.74899433 837.69358688 -889.75390625 839.71484375 C-889.75132812 840.77832031 -889.74875 841.84179688 -889.74609375 842.9375 C-889.87890625 845.65234375 -889.87890625 845.65234375 -890.87890625 847.65234375 C-891.53890625 847.65234375 -892.19890625 847.65234375 -892.87890625 847.65234375 C-893.21921875 848.58046875 -893.21921875 848.58046875 -893.56640625 849.52734375 C-895.37059346 852.44840875 -896.56376337 852.69545844 -899.87890625 853.65234375 C-903.19441502 853.90875521 -906.49306408 853.86107019 -909.81640625 853.8125 C-910.77409912 853.80729843 -911.73179199 853.80209686 -912.71850586 853.79673767 C-915.77212875 853.77896344 -918.82541247 853.74780378 -921.87890625 853.71484375 C-924.9323669 853.68717688 -927.98577818 853.66246149 -931.03930664 853.6436615 C-932.93697432 853.63145884 -934.8346171 853.6139091 -936.73217773 853.59034729 C-940.93736915 853.55857515 -944.77090696 853.63733508 -948.87890625 854.65234375 C-951.02328374 854.80023185 -953.16946453 854.92309918 -955.31640625 855.02734375 C-967.37706867 855.38548519 -967.37706867 855.38548519 -977.87890625 859.65234375 C-978.99265625 859.79671875 -980.10640625 859.94109375 -981.25390625 860.08984375 C-984.96401172 860.40534592 -984.96401172 860.40534592 -987.87890625 862.65234375 C-989.36757714 863.1078326 -990.86975307 863.52015561 -992.37890625 863.90234375 C-997.51395063 865.36304552 -1001.84128438 867.65653618 -1006.43359375 870.34765625 C-1008.629068 871.51904347 -1010.45017127 872.18918964 -1012.87890625 872.65234375 C-1012.87890625 873.31234375 -1012.87890625 873.97234375 -1012.87890625 874.65234375 C-1014.8125 876.08984375 -1014.8125 876.08984375 -1017.31640625 877.65234375 C-1020.68897276 879.60533535 -1020.68897276 879.60533535 -1022.87890625 882.65234375 C-1023.53890625 882.65234375 -1024.19890625 882.65234375 -1024.87890625 882.65234375 C-1025.14058594 883.22855469 -1025.40226562 883.80476562 -1025.671875 884.3984375 C-1026.95388695 886.79235625 -1028.44287337 888.64064178 -1030.19140625 890.71484375 C-1037.84961692 900.41099822 -1041.96665614 912.62797917 -1043.12890625 924.83984375 C-1043.21116455 925.66572998 -1043.29342285 926.49161621 -1043.37817383 927.3425293 C-1044.01726592 934.55414219 -1043.62375755 941.4577573 -1042.87890625 948.65234375 C-1042.77403242 950.96481179 -1042.66987521 953.27731243 -1042.56640625 955.58984375 C-1042.21983203 960.73647096 -1041.24747109 965.46302253 -1039.81640625 970.40234375 C-1036.53504151 982.07479987 -1036.53504151 982.07479987 -1037.87890625 987.65234375 C-1040.01825439 991.46194708 -1042.60955682 993.92246783 -1046.37890625 996.08984375 C-1051.09114588 997.15009767 -1053.77768946 997.27852585 -1058.06640625 994.83984375 C-1058.99453125 994.11796875 -1059.92265625 993.39609375 -1060.87890625 992.65234375 C-1061.38035156 992.27335937 -1061.88179687 991.894375 -1062.3984375 991.50390625 C-1064.68964723 988.63838274 -1065.44192918 985.3245436 -1066.37890625 981.83984375 C-1066.69927856 980.65092529 -1066.69927856 980.65092529 -1067.02612305 979.43798828 C-1075.25999646 947.35545543 -1075.21807104 911.94503692 -1058.65234375 882.5390625 C-1056.65331263 879.28513299 -1054.51991858 876.22380579 -1052.140625 873.23828125 C-1050.97275774 871.77031188 -1049.91944575 870.21315301 -1048.87890625 868.65234375 C-1048.21890625 868.65234375 -1047.55890625 868.65234375 -1046.87890625 868.65234375 C-1046.54890625 867.66234375 -1046.21890625 866.67234375 -1045.87890625 865.65234375 C-1045.21890625 865.65234375 -1044.55890625 865.65234375 -1043.87890625 865.65234375 C-1043.61078125 865.01296875 -1043.34265625 864.37359375 -1043.06640625 863.71484375 C-1041.87890625 861.65234375 -1041.87890625 861.65234375 -1038.87890625 860.65234375 C-1038.87890625 859.99234375 -1038.87890625 859.33234375 -1038.87890625 858.65234375 C-1037.14342456 857.20707639 -1035.33914662 855.84362155 -1033.50390625 854.52734375 C-1032.50617188 853.80289063 -1031.5084375 853.0784375 -1030.48046875 852.33203125 C-1027.87890625 850.65234375 -1027.87890625 850.65234375 -1025.87890625 850.65234375 C-1025.87890625 849.99234375 -1025.87890625 849.33234375 -1025.87890625 848.65234375 C-1022.93201718 847.17889921 -1019.98479861 845.70621074 -1017.03515625 844.23828125 C-1015.25554989 843.34407311 -1013.48050923 842.44015403 -1011.72265625 841.50390625 C-1006.01669854 838.48168289 -1000.01625665 836.6110726 -993.87890625 834.65234375 C-992.39938705 834.13251268 -990.9201887 833.61176697 -989.44140625 833.08984375 C-978.81697813 829.58015834 -967.94898407 828.00836665 -956.87890625 826.65234375 C-955.79198486 826.48049561 -954.70506348 826.30864746 -953.58520508 826.1315918 C-950.02663713 825.67144629 -946.65539545 825.53816638 -943.0703125 825.5546875 C-941.82958984 825.55791016 -940.58886719 825.56113281 -939.31054688 825.56445312 C-938.03373047 825.57283203 -936.75691406 825.58121094 -935.44140625 825.58984375 C-933.48557617 825.59661133 -933.48557617 825.59661133 -931.49023438 825.60351562 C-928.28641073 825.61525124 -925.08268262 825.63167012 -921.87890625 825.65234375 C-922.13285156 824.70359375 -922.38679687 823.75484375 -922.6484375 822.77734375 C-924.91110905 813.96483351 -926.4981276 805.181831 -927.62890625 796.15234375 C-927.81996948 794.64994141 -927.81996948 794.64994141 -928.01489258 793.1171875 C-929.08953972 784.06816152 -929.03694063 775.50774917 -928.00390625 766.46484375 C-927.92527344 765.69720703 -927.84664062 764.92957031 -927.765625 764.13867188 C-927.27374082 759.72306545 -926.38522175 755.85644562 -924.87890625 751.65234375 C-924.69328125 749.98171875 -924.69328125 749.98171875 -924.50390625 748.27734375 C-923.85402164 744.50801304 -922.69788724 742.00154872 -920.90625 738.6796875 C-919.91942482 736.73230245 -919.23802085 734.85058882 -918.56640625 732.77734375 C-916.64443006 727.45012714 -913.23406508 723.15906134 -909.87890625 718.65234375 C-909.31171875 717.85570312 -908.74453125 717.0590625 -908.16015625 716.23828125 C-905.14549968 712.05618415 -905.14549968 712.05618415 -903.87890625 710.65234375 C-903.21890625 710.65234375 -902.55890625 710.65234375 -901.87890625 710.65234375 C-901.62109375 710.059375 -901.36328125 709.46640625 -901.09765625 708.85546875 C-899.7812073 706.4757341 -898.45309843 705.14255583 -896.37890625 703.40234375 C-895.46625 702.62117187 -895.46625 702.62117187 -894.53515625 701.82421875 C-892.87890625 700.65234375 -892.87890625 700.65234375 -890.87890625 700.65234375 C-890.87890625 699.99234375 -890.87890625 699.33234375 -890.87890625 698.65234375 C-888.47250492 696.94642562 -886.07881363 695.37578143 -883.56640625 693.83984375 C-882.83381592 693.38915527 -882.10122559 692.9384668 -881.34643555 692.47412109 C-872.55153032 687.14217965 -863.80974162 683.45007992 -853.9375 680.5546875 C-851.36721663 679.79640467 -848.84558451 678.97254068 -846.31640625 678.08984375 C-837.75927415 675.23746638 -829.50449985 673.36154347 -820.47265625 672.9609375 C-817.36155226 672.69378835 -814.45706083 672.2105518 -811.39453125 671.6328125 C-804.28837715 670.40854573 -797.32145593 670.4297413 -790.12890625 670.52734375 C-788.84757812 670.53636719 -787.56625 670.54539062 -786.24609375 670.5546875 C-783.12349404 670.57799048 -780.001306 670.61070321 -776.87890625 670.65234375 C-777.33411338 668.15173924 -777.79299553 665.65189802 -778.25390625 663.15234375 C-778.38023437 662.45625 -778.5065625 661.76015625 -778.63671875 661.04296875 C-779.28431239 657.54596307 -780.00067072 654.10286889 -780.91015625 650.6640625 C-787.61626193 624.4761733 -784.3395039 594.10496896 -770.87890625 570.65234375 C-766.5243608 563.73416193 -766.5243608 563.73416193 -763.87890625 560.65234375 C-763.21890625 560.65234375 -762.55890625 560.65234375 -761.87890625 560.65234375 C-761.50765625 559.78609375 -761.50765625 559.78609375 -761.12890625 558.90234375 C-759.69590637 556.32294396 -758.09465949 554.59112783 -755.87890625 552.65234375 C-755.21890625 552.65234375 -754.55890625 552.65234375 -753.87890625 552.65234375 C-753.87890625 551.99234375 -753.87890625 551.33234375 -753.87890625 550.65234375 C-752.453125 549.36328125 -752.453125 549.36328125 -750.56640625 548.02734375 C-749.64408203 547.35832031 -749.64408203 547.35832031 -748.703125 546.67578125 C-746.87890625 545.65234375 -746.87890625 545.65234375 -743.87890625 545.65234375 C-743.87890625 544.99234375 -743.87890625 544.33234375 -743.87890625 543.65234375 C-723.55142582 532.64552831 -701.3246466 528.24087098 -678.37060547 528.4465332 C-676.22091116 528.46512917 -674.07164249 528.46703968 -671.921875 528.46679688 C-660.88931207 528.5059715 -660.88931207 528.5059715 -656.87890625 529.65234375 C-654.10861096 529.96553232 -651.34060402 530.25464378 -648.56640625 530.52734375 C-642.79500792 531.12474426 -637.18150475 531.91835417 -631.50390625 533.15234375 C-624.56379279 534.64112215 -617.64602751 535.38774129 -610.57861328 536.00585938 C-609.36020752 536.11317383 -609.36020752 536.11317383 -608.1171875 536.22265625 C-607.39571533 536.28211426 -606.67424316 536.34157227 -605.9309082 536.40283203 C-603.87890625 536.65234375 -603.87890625 536.65234375 -601.90087891 537.16162109 C-599.66047641 537.70535558 -597.59189352 537.84474157 -595.2890625 537.93359375 C-593.9887207 537.98966797 -593.9887207 537.98966797 -592.66210938 538.046875 C-591.31536133 538.09908203 -591.31536133 538.09908203 -589.94140625 538.15234375 C-588.16131402 538.22164799 -586.38135418 538.29445832 -584.6015625 538.37109375 C-583.42219116 538.4165332 -583.42219116 538.4165332 -582.21899414 538.46289062 C-579.71220605 538.66583977 -577.34290876 539.15636047 -574.87890625 539.65234375 C-571.46881972 539.9591348 -568.04957469 540.07453671 -564.62890625 540.21484375 C-563.63560303 540.25730225 -562.6422998 540.29976074 -561.61889648 540.34350586 C-550.04108484 540.79168503 -538.46312442 540.74759665 -526.87890625 540.65234375 C-526.87890625 539.99234375 -526.87890625 539.33234375 -526.87890625 538.65234375 C-525.50390625 537.02734375 -525.50390625 537.02734375 -523.87890625 535.65234375 C-523.21890625 535.65234375 -522.55890625 535.65234375 -521.87890625 535.65234375 C-521.50958984 534.78996094 -521.50958984 534.78996094 -521.1328125 533.91015625 C-519.68097572 531.29594548 -517.97603076 529.58898167 -515.81640625 527.52734375 C-512.96318692 524.87329375 -512.96318692 524.87329375 -510.87890625 521.65234375 C-510.21890625 521.65234375 -509.55890625 521.65234375 -508.87890625 521.65234375 C-508.56179688 520.84216797 -508.56179688 520.84216797 -508.23828125 520.015625 C-506.37636383 516.77867087 -503.79799465 514.40456343 -501.12890625 511.83984375 C-497.67869379 508.47293001 -494.31963595 505.13155226 -491.25390625 501.40234375 C-490.47015625 500.49484375 -489.68640625 499.58734375 -488.87890625 498.65234375 C-488.21890625 498.65234375 -487.55890625 498.65234375 -486.87890625 498.65234375 C-486.54890625 497.66234375 -486.21890625 496.67234375 -485.87890625 495.65234375 C-485.21890625 495.65234375 -484.55890625 495.65234375 -483.87890625 495.65234375 C-483.87890625 494.99234375 -483.87890625 494.33234375 -483.87890625 493.65234375 C-483.21890625 493.65234375 -482.55890625 493.65234375 -481.87890625 493.65234375 C-481.61464844 493.059375 -481.35039063 492.46640625 -481.078125 491.85546875 C-479.835202 489.57205321 -478.57488979 488.17807652 -476.69140625 486.40234375 C-474.16294036 483.95207783 -471.79134749 481.45402324 -469.50390625 478.77734375 C-466.10189608 474.818641 -462.43906938 471.1735872 -458.69921875 467.53515625 C-456.81506727 465.77481036 -456.81506727 465.77481036 -455.87890625 463.65234375 C-455.21890625 463.65234375 -454.55890625 463.65234375 -453.87890625 463.65234375 C-453.87890625 462.99234375 -453.87890625 462.33234375 -453.87890625 461.65234375 C-453.21890625 461.65234375 -452.55890625 461.65234375 -451.87890625 461.65234375 C-451.54890625 460.66234375 -451.21890625 459.67234375 -450.87890625 458.65234375 C-450.21890625 458.65234375 -449.55890625 458.65234375 -448.87890625 458.65234375 C-448.62238281 458.06710937 -448.36585938 457.481875 -448.1015625 456.87890625 C-446.77328463 454.45999767 -445.31365824 452.92035503 -443.31640625 451.02734375 C-440.73875236 448.60712416 -440.73875236 448.60712416 -438.87890625 445.65234375 C-438.21890625 445.65234375 -437.55890625 445.65234375 -436.87890625 445.65234375 C-436.87890625 444.99234375 -436.87890625 444.33234375 -436.87890625 443.65234375 C-435.50390625 442.02734375 -435.50390625 442.02734375 -433.87890625 440.65234375 C-433.21890625 440.65234375 -432.55890625 440.65234375 -431.87890625 440.65234375 C-431.63269531 440.07742188 -431.38648438 439.5025 -431.1328125 438.91015625 C-429.68097572 436.29594548 -427.97603076 434.58898167 -425.81640625 432.52734375 C-422.96318692 429.87329375 -422.96318692 429.87329375 -420.87890625 426.65234375 C-420.21890625 426.65234375 -419.55890625 426.65234375 -418.87890625 426.65234375 C-418.67394531 426.11867188 -418.46898437 425.585 -418.2578125 425.03515625 C-416.30057979 421.65296941 -413.61920975 419.22196887 -410.81640625 416.52734375 C-406.87441685 412.95681009 -406.87441685 412.95681009 -403.87890625 408.65234375 C-403.21890625 408.65234375 -402.55890625 408.65234375 -401.87890625 408.65234375 C-401.54890625 407.66234375 -401.21890625 406.67234375 -400.87890625 405.65234375 C-400.21890625 405.65234375 -399.55890625 405.65234375 -398.87890625 405.65234375 C-398.87890625 404.99234375 -398.87890625 404.33234375 -398.87890625 403.65234375 C-398.21890625 403.65234375 -397.55890625 403.65234375 -396.87890625 403.65234375 C-396.54890625 402.66234375 -396.21890625 401.67234375 -395.87890625 400.65234375 C-395.21890625 400.65234375 -394.55890625 400.65234375 -393.87890625 400.65234375 C-393.62238281 400.06710937 -393.36585938 399.481875 -393.1015625 398.87890625 C-391.77328463 396.45999767 -390.31365824 394.92035503 -388.31640625 393.02734375 C-385.73875236 390.60712416 -385.73875236 390.60712416 -383.87890625 387.65234375 C-383.21890625 387.65234375 -382.55890625 387.65234375 -381.87890625 387.65234375 C-381.61078125 387.05421875 -381.34265625 386.45609375 -381.06640625 385.83984375 C-379.87890625 383.65234375 -379.87890625 383.65234375 -378.2890625 382.33203125 C-376.63692953 380.70952718 -376.63692953 380.70952718 -376.76953125 378.2421875 C-376.888125 377.36691406 -377.00671875 376.49164063 -377.12890625 375.58984375 C-377.2371875 374.71199219 -377.34546875 373.83414062 -377.45703125 372.9296875 C-377.77415826 370.63116267 -377.77415826 370.63116267 -378.87890625 368.65234375 C-379.05694185 367.23936281 -379.19813678 365.82157739 -379.31640625 364.40234375 C-379.70814177 360.55843896 -380.58540826 357.30457338 -381.87890625 353.65234375 C-383.34873651 348.15645668 -384.10837234 342.75636444 -384.6015625 337.09765625 C-384.85805209 334.83621285 -385.27496928 332.73506348 -385.81640625 330.52734375 C-391.28429721 306.88796555 -392.06648871 278.99224674 -379.0703125 257.6875 C-375.79930584 252.83879366 -375.79930584 252.83879366 -373.87890625 250.65234375 C-373.21890625 250.65234375 -372.55890625 250.65234375 -371.87890625 250.65234375 C-371.87890625 249.99234375 -371.87890625 249.33234375 -371.87890625 248.65234375 C-366.40271577 243.65234375 -366.40271577 243.65234375 -363.87890625 243.65234375 C-363.87890625 242.99234375 -363.87890625 242.33234375 -363.87890625 241.65234375 C-349.99542256 233.40006657 -336.05771587 228.33693953 -319.796875 227.79296875 C-316.95470334 227.7343514 -316.95470334 227.7343514 -314.52612305 227.15185547 C-311.82146581 226.64150513 -309.35528128 226.52300512 -306.60546875 226.51953125 C-305.61546875 226.51824219 -304.62546875 226.51695312 -303.60546875 226.515625 C-302.07019531 226.52142578 -302.07019531 226.52142578 -300.50390625 226.52734375 C-298.98023438 226.52154297 -298.98023438 226.52154297 -297.42578125 226.515625 C-292.12612744 226.52250767 -287.12471533 226.84482916 -281.87890625 227.65234375 C-278.67307412 227.86174492 -275.4641493 227.96945964 -272.25390625 228.08984375 C-266.41220134 228.34621784 -260.66479953 228.69324043 -254.87890625 229.58984375 C-253.86957031 229.74582031 -252.86023438 229.90179688 -251.8203125 230.0625 C-248.87890625 230.65234375 -248.87890625 230.65234375 -245.84375 231.6484375 C-242.51492669 232.61487007 -240.32741209 233.12707312 -236.87890625 232.65234375 C-231.78730765 229.42736741 -226.56795618 224.03044361 -223.87890625 218.65234375 C-223.21890625 218.65234375 -222.55890625 218.65234375 -221.87890625 218.65234375 C-221.54890625 217.66234375 -221.21890625 216.67234375 -220.87890625 215.65234375 C-220.21890625 215.65234375 -219.55890625 215.65234375 -218.87890625 215.65234375 C-218.87890625 214.99234375 -218.87890625 214.33234375 -218.87890625 213.65234375 C-218.21890625 213.65234375 -217.55890625 213.65234375 -216.87890625 213.65234375 C-216.64558594 213.0903125 -216.41226563 212.52828125 -216.171875 211.94921875 C-214.55953549 209.08500233 -212.55955005 207.17982354 -210.19140625 204.90234375 C-205.14251549 199.95501114 -200.51403991 194.7822372 -195.96484375 189.37890625 C-195.02511719 188.27675781 -195.02511719 188.27675781 -194.06640625 187.15234375 C-193.50308594 186.48203125 -192.93976562 185.81171875 -192.359375 185.12109375 C-190.87890625 183.65234375 -190.87890625 183.65234375 -188.87890625 183.65234375 C-188.87890625 182.99234375 -188.87890625 182.33234375 -188.87890625 181.65234375 C-187.50390625 180.02734375 -187.50390625 180.02734375 -185.87890625 178.65234375 C-185.21890625 178.65234375 -184.55890625 178.65234375 -183.87890625 178.65234375 C-183.61078125 178.01296875 -183.34265625 177.37359375 -183.06640625 176.71484375 C-181.87890625 174.65234375 -181.87890625 174.65234375 -178.87890625 173.65234375 C-178.1770986 172.33716762 -177.51572153 171.00018963 -176.87890625 169.65234375 C-175.70824273 168.22476991 -174.49782547 166.82905968 -173.25390625 165.46484375 C-170.95171729 163.35341776 -170.95171729 163.35341776 -169.87890625 160.65234375 C-170.93207031 160.41 -171.98523437 160.16765625 -173.0703125 159.91796875 C-182.02978556 157.84194222 -190.93041182 155.61785829 -199.80712891 153.20849609 C-202.14463948 152.58100975 -204.48591386 151.96907777 -206.828125 151.359375 C-207.67648926 151.13822021 -208.52485352 150.91706543 -209.39892578 150.68920898 C-211.0518754 150.25890877 -212.70517769 149.82996028 -214.35888672 149.40258789 C-217.68905149 148.53318987 -220.95627293 147.6264946 -224.22265625 146.53515625 C-227.41626718 145.47375026 -230.54912532 145.11968142 -233.87890625 144.65234375 C-237.08421906 143.82338354 -240.14448039 142.96497097 -243.19140625 141.66796875 C-246.19040603 140.53462581 -249.10794337 139.94886032 -252.25390625 139.33984375 C-258.42402536 137.93690943 -263.34706811 136.51206903 -266.99609375 130.94921875 C-268.33012928 128.23392519 -268.90702823 126.04605152 -268.69140625 123.02734375 C-267.83638553 120.52805242 -266.91952029 118.08044317 -265.87890625 115.65234375 C-265.21890625 115.65234375 -264.55890625 115.65234375 -263.87890625 115.65234375 C-263.87890625 114.99234375 -263.87890625 114.33234375 -263.87890625 113.65234375 C-255.86555505 109.60042338 -247.86154038 105.58587338 -239.65625 101.93359375 C-236.33388065 100.4009114 -233.07711456 98.74812688 -229.81640625 97.08984375 C-225.08523946 94.68857267 -220.32702435 92.5726905 -215.37109375 90.6796875 C-212.4585007 89.47904178 -209.68496146 88.08393171 -206.87890625 86.65234375 C-202.52265149 84.43270187 -198.16569383 82.52585628 -193.609375 80.765625 C-189.66017218 79.15543501 -185.8210996 77.3211029 -181.96728516 75.49804688 C-176.99406276 73.1527695 -171.97717572 70.92207511 -166.94140625 68.71484375 C-160.33920193 65.81151152 -153.8687247 62.71031927 -147.43701172 59.44824219 C-141.98709953 56.68695335 -136.46154576 54.13445813 -130.87890625 51.65234375 C-129.04485474 50.82059221 -127.21153076 49.98723475 -125.37890625 49.15234375 C-114.37890625 44.15234375 -114.37890625 44.15234375 -111.609375 42.89453125 C-109.84006578 42.08960946 -108.07176903 41.28245689 -106.3046875 40.47265625 C-102.28211428 38.63273487 -98.25597919 36.80788771 -94.19140625 35.0625 C-86.48855124 31.74902396 -78.94819329 28.24209936 -71.47802734 24.43139648 C-67.0594556 22.19352567 -62.60210131 20.26946267 -57.96875 18.51171875 C-55.98064295 17.6941794 -54.21936581 16.75746958 -52.37890625 15.65234375 C-49.78373803 14.09644429 -47.20186558 12.93095467 -44.37890625 11.83984375 C-39.91655441 10.11358226 -35.58462697 8.18073049 -31.25390625 6.15234375 C-30.60566895 5.8488501 -29.95743164 5.54535645 -29.28955078 5.23266602 C-25.91158114 3.64036727 -22.56840153 1.99736592 -19.25390625 0.27734375 C-13.30937927 -2.58483591 -5.7742179 -4.1415908 0 0 Z M-352.87890625 267.65234375 C-355.27573425 270.85950992 -355.27573425 270.85950992 -355.87890625 274.65234375 C-356.53890625 274.65234375 -357.19890625 274.65234375 -357.87890625 274.65234375 C-360.35073226 282.98776608 -361.30058918 290.5394906 -361.12890625 299.21484375 C-361.12375 300.26091797 -361.11859375 301.30699219 -361.11328125 302.38476562 C-361.02292637 311.48237257 -360.31060727 320.4688536 -358.94140625 329.46484375 C-358.78800781 330.50253906 -358.63460937 331.54023438 -358.4765625 332.609375 C-357.86029408 335.74710765 -356.90600204 338.62744595 -355.87890625 341.65234375 C-355.33690697 344.18920151 -354.88717713 346.72993391 -354.44140625 349.28515625 C-353.87868401 351.65327899 -353.05292807 353.52932096 -351.87890625 355.65234375 C-350.33723983 354.27748843 -350.33723983 354.27748843 -348.87890625 352.65234375 C-348.87890625 351.99234375 -348.87890625 351.33234375 -348.87890625 350.65234375 C-348.21890625 350.65234375 -347.55890625 350.65234375 -346.87890625 350.65234375 C-346.87890625 349.99234375 -346.87890625 349.33234375 -346.87890625 348.65234375 C-345.39390625 348.15734375 -345.39390625 348.15734375 -343.87890625 347.65234375 C-343.87890625 346.99234375 -343.87890625 346.33234375 -343.87890625 345.65234375 C-343.21890625 345.65234375 -342.55890625 345.65234375 -341.87890625 345.65234375 C-340.20810344 344.00073594 -340.20810344 344.00073594 -338.50390625 341.90234375 C-336.54132898 339.58330673 -334.62007675 337.40015091 -332.44140625 335.27734375 C-330.64787001 333.78778874 -330.64787001 333.78778874 -330.87890625 331.65234375 C-330.21890625 331.65234375 -329.55890625 331.65234375 -328.87890625 331.65234375 C-327.34433258 330.13514392 -327.34433258 330.13514392 -325.75390625 328.15234375 C-322.49996744 324.30242035 -319.03117907 320.7917004 -315.3828125 317.31640625 C-313.65540532 315.77886691 -313.65540532 315.77886691 -313.87890625 313.65234375 C-313.21890625 313.65234375 -312.55890625 313.65234375 -311.87890625 313.65234375 C-310.21223958 312.31901042 -310.21223958 312.31901042 -308.87890625 310.65234375 C-308.87890625 309.99234375 -308.87890625 309.33234375 -308.87890625 308.65234375 C-308.21890625 308.65234375 -307.55890625 308.65234375 -306.87890625 308.65234375 C-305.34735443 307.1599951 -305.34735443 307.1599951 -303.76171875 305.1953125 C-299.89545399 300.64929793 -295.85326026 296.30054993 -291.75390625 291.96484375 C-291.06425781 291.23201172 -290.37460937 290.49917969 -289.6640625 289.74414062 C-286.78638244 286.69313949 -283.91104364 283.66401633 -280.88671875 280.7578125 C-278.64886478 278.89600494 -278.64886478 278.89600494 -278.87890625 276.65234375 C-277.88890625 276.32234375 -276.89890625 275.99234375 -275.87890625 275.65234375 C-275.87890625 274.99234375 -275.87890625 274.33234375 -275.87890625 273.65234375 C-275.21890625 273.65234375 -274.55890625 273.65234375 -273.87890625 273.65234375 C-272.31026543 272.10155305 -272.31026543 272.10155305 -270.69140625 270.08984375 C-267.276889 266.06559128 -263.66045276 262.3304437 -259.87890625 258.65234375 C-270.08330752 252.93626001 -284.13513928 254.31037106 -295.4621582 254.33666992 C-298.30784307 254.33983423 -301.15248935 254.31627568 -303.99804688 254.29101562 C-321.23400719 254.23056986 -339.18864686 256.00105916 -352.87890625 267.65234375 Z M-372.87890625 415.65234375 C-372.87890625 416.31234375 -372.87890625 416.97234375 -372.87890625 417.65234375 C-373.53890625 417.65234375 -374.19890625 417.65234375 -374.87890625 417.65234375 C-376.54970906 419.30395156 -376.54970906 419.30395156 -378.25390625 421.40234375 C-380.21648352 423.72138077 -382.13773575 425.90453659 -384.31640625 428.02734375 C-386.10994249 429.51689876 -386.10994249 429.51689876 -385.87890625 431.65234375 C-386.53890625 431.65234375 -387.19890625 431.65234375 -387.87890625 431.65234375 C-389.41347992 433.16954358 -389.41347992 433.16954358 -391.00390625 435.15234375 C-394.25784506 439.00226715 -397.72663343 442.5129871 -401.375 445.98828125 C-403.10240718 447.52582059 -403.10240718 447.52582059 -402.87890625 449.65234375 C-403.53890625 449.65234375 -404.19890625 449.65234375 -404.87890625 449.65234375 C-406.54557292 450.98567708 -406.54557292 450.98567708 -407.87890625 452.65234375 C-407.87890625 453.31234375 -407.87890625 453.97234375 -407.87890625 454.65234375 C-408.53890625 454.65234375 -409.19890625 454.65234375 -409.87890625 454.65234375 C-411.41347992 456.16954358 -411.41347992 456.16954358 -413.00390625 458.15234375 C-415.52148527 461.11911736 -418.10059601 463.92808624 -420.87890625 466.65234375 C-424.16430626 469.88700399 -427.20543167 473.26096424 -430.203125 476.76171875 C-431.83705712 478.60512935 -433.54431647 480.31750537 -435.31640625 482.02734375 C-438.11175182 484.27947138 -438.11175182 484.27947138 -437.87890625 486.65234375 C-438.86890625 486.98234375 -439.85890625 487.31234375 -440.87890625 487.65234375 C-440.87890625 488.31234375 -440.87890625 488.97234375 -440.87890625 489.65234375 C-441.53890625 489.65234375 -442.19890625 489.65234375 -442.87890625 489.65234375 C-444.41347992 491.16954358 -444.41347992 491.16954358 -446.00390625 493.15234375 C-449.25784506 497.00226715 -452.72663343 500.5129871 -456.375 503.98828125 C-458.10240718 505.52582059 -458.10240718 505.52582059 -457.87890625 507.65234375 C-458.53890625 507.65234375 -459.19890625 507.65234375 -459.87890625 507.65234375 C-459.87890625 508.31234375 -459.87890625 508.97234375 -459.87890625 509.65234375 C-461.36390625 510.14734375 -461.36390625 510.14734375 -462.87890625 510.65234375 C-462.87890625 511.31234375 -462.87890625 511.97234375 -462.87890625 512.65234375 C-463.53890625 512.65234375 -464.19890625 512.65234375 -464.87890625 512.65234375 C-466.54970906 514.30395156 -466.54970906 514.30395156 -468.25390625 516.40234375 C-470.21648352 518.72138077 -472.13773575 520.90453659 -474.31640625 523.02734375 C-476.10994249 524.51689876 -476.10994249 524.51689876 -475.87890625 526.65234375 C-476.53890625 526.65234375 -477.19890625 526.65234375 -477.87890625 526.65234375 C-479.51566133 528.27033877 -479.51566133 528.27033877 -481.19140625 530.33984375 C-483.31535309 532.85036669 -485.43391969 535.26057796 -487.81640625 537.52734375 C-490.11106471 539.39798074 -490.11106471 539.39798074 -489.87890625 541.65234375 C-457.94001619 542.26134801 -415.01177777 539.74529034 -390.578125 516.51171875 C-387.12173435 513.07262089 -387.12173435 513.07262089 -385.87890625 508.65234375 C-385.21890625 508.65234375 -384.55890625 508.65234375 -383.87890625 508.65234375 C-383.4921875 507.87890625 -383.10546875 507.10546875 -382.70703125 506.30859375 C-377.87890625 496.65234375 -377.87890625 496.65234375 -376.87768555 494.77954102 C-374.28668962 489.8502248 -372.57548715 484.97781343 -371.19140625 479.58984375 C-370.97718018 478.75767334 -370.7629541 477.92550293 -370.54223633 477.06811523 C-368.71125699 469.59310806 -367.97859738 462.35156627 -367.87890625 454.65234375 C-367.86520996 453.90404297 -367.85151367 453.15574219 -367.83740234 452.38476562 C-367.6248962 439.77777487 -368.129295 427.23510403 -368.87890625 414.65234375 C-370.95344185 414.50327255 -370.95344185 414.50327255 -372.87890625 415.65234375 Z " fill="#000000" transform="translate(1200.87890625,38.34765625)"/>
<path d="M0 0 C3.82561706 0.95640427 5.58927128 3.19401726 8.19921875 6.05859375 C9.67170117 7.78978163 9.67170117 7.78978163 11.75 8.6875 C11.75 9.3475 11.75 10.0075 11.75 10.6875 C12.28367187 10.89246094 12.81734375 11.09742188 13.3671875 11.30859375 C16.74937434 13.26582646 19.18037488 15.9471965 21.875 18.75 C25.44553366 22.6919894 25.44553366 22.6919894 29.75 25.6875 C29.75 26.3475 29.75 27.0075 29.75 27.6875 C30.74 28.0175 31.73 28.3475 32.75 28.6875 C32.75 29.3475 32.75 30.0075 32.75 30.6875 C33.41 30.6875 34.07 30.6875 34.75 30.6875 C34.75 31.3475 34.75 32.0075 34.75 32.6875 C35.74 33.0175 36.73 33.3475 37.75 33.6875 C37.75 34.3475 37.75 35.0075 37.75 35.6875 C38.34296875 35.95175781 38.9359375 36.21601562 39.546875 36.48828125 C41.83029054 37.73120425 43.22426723 38.99151646 45 40.875 C47.4702041 43.42420849 49.99154523 45.81569493 52.6875 48.125 C56.28008242 51.21629185 59.60089345 54.5120304 62.91796875 57.89453125 C64.87079541 59.86836338 64.87079541 59.86836338 67.75 62.0625 C68.41 62.59875 69.07 63.135 69.75 63.6875 C69.75 64.3475 69.75 65.0075 69.75 65.6875 C70.389375 65.955625 71.02875 66.22375 71.6875 66.5 C73.75 67.6875 73.75 67.6875 74.75 70.6875 C76.06958427 71.38098365 77.40521879 72.04423823 78.75 72.6875 C80.6015625 74.37890625 80.6015625 74.37890625 82.375 76.25 C84.79521959 78.82765389 84.79521959 78.82765389 87.75 80.6875 C87.75 81.3475 87.75 82.0075 87.75 82.6875 C88.41 82.6875 89.07 82.6875 89.75 82.6875 C91.375 84.0625 91.375 84.0625 92.75 85.6875 C92.75 86.3475 92.75 87.0075 92.75 87.6875 C93.34167969 87.94660156 93.93335938 88.20570313 94.54296875 88.47265625 C96.90831069 89.77464093 98.300917 91.09240423 100.0625 93.125 C100.59488281 93.72183594 101.12726563 94.31867188 101.67578125 94.93359375 C102.03027344 95.51238281 102.38476562 96.09117187 102.75 96.6875 C102.42 97.6775 102.09 98.6675 101.75 99.6875 C101.09 99.6875 100.43 99.6875 99.75 99.6875 C99.75 100.3475 99.75 101.0075 99.75 101.6875 C99.09 101.6875 98.43 101.6875 97.75 101.6875 C97.35361328 102.57695313 97.35361328 102.57695313 96.94921875 103.484375 C95.70629575 105.76779054 94.44598354 107.16176723 92.5625 108.9375 C87.64873179 113.70824793 83.22099511 118.84883307 78.9375 124.1875 C78.215625 125.0125 77.49375 125.8375 76.75 126.6875 C76.09 126.6875 75.43 126.6875 74.75 126.6875 C74.75 127.3475 74.75 128.0075 74.75 128.6875 C73.375 130.3125 73.375 130.3125 71.75 131.6875 C71.09 131.6875 70.43 131.6875 69.75 131.6875 C69.481875 132.326875 69.21375 132.96625 68.9375 133.625 C67.75 135.6875 67.75 135.6875 64.75 136.6875 C64.06379969 138.01088632 63.40213539 139.34699948 62.75 140.6875 C57.38302752 147.43061927 57.38302752 147.43061927 54.75 149.6875 C54.09 149.6875 53.43 149.6875 52.75 149.6875 C52.50378906 150.26242187 52.25757813 150.83734375 52.00390625 151.4296875 C50.55206947 154.04389827 48.84712451 155.75086208 46.6875 157.8125 C43.83428067 160.46655 43.83428067 160.46655 41.75 163.6875 C41.09 163.6875 40.43 163.6875 39.75 163.6875 C39.48960937 164.27660156 39.22921875 164.86570312 38.9609375 165.47265625 C37.67577526 167.82325944 36.31513183 169.29077056 34.375 171.125 C32.18984777 173.23292231 30.32609933 175.22596842 28.4375 177.625 C27.880625 178.305625 27.32375 178.98625 26.75 179.6875 C26.09 179.6875 25.43 179.6875 24.75 179.6875 C24.75 180.3475 24.75 181.0075 24.75 181.6875 C24.09 181.6875 23.43 181.6875 22.75 181.6875 C22.42 182.6775 22.09 183.6675 21.75 184.6875 C21.09 184.6875 20.43 184.6875 19.75 184.6875 C19.4096875 185.491875 19.4096875 185.491875 19.0625 186.3125 C17.29429911 189.51210161 15.21329797 191.97787223 12.75 194.6875 C12.09 194.6875 11.43 194.6875 10.75 194.6875 C10.49992188 195.26628906 10.24984375 195.84507812 9.9921875 196.44140625 C8.58480249 198.98620619 6.97717069 200.62198831 4.875 202.625 C2.50977243 204.91738541 0.42621569 207.09649071 -1.625 209.6875 C-2.16125 210.3475 -2.6975 211.0075 -3.25 211.6875 C-3.91 211.6875 -4.57 211.6875 -5.25 211.6875 C-5.518125 212.326875 -5.78625 212.96625 -6.0625 213.625 C-7.25 215.6875 -7.25 215.6875 -10.25 216.6875 C-10.93620031 218.01088632 -11.59786461 219.34699948 -12.25 220.6875 C-17.61697248 227.43061927 -17.61697248 227.43061927 -20.25 229.6875 C-20.91 229.6875 -21.57 229.6875 -22.25 229.6875 C-22.58 230.6775 -22.91 231.6675 -23.25 232.6875 C-24.9 233.0175 -26.55 233.3475 -28.25 233.6875 C-28.25 233.0275 -28.25 232.3675 -28.25 231.6875 C-29.24 231.3575 -30.23 231.0275 -31.25 230.6875 C-31.25 230.0275 -31.25 229.3675 -31.25 228.6875 C-31.81847656 228.44773437 -32.38695312 228.20796875 -32.97265625 227.9609375 C-35.71220023 226.42904841 -37.51745695 224.57656571 -39.6875 222.3125 C-42.16420236 219.76631919 -44.52802917 217.46621148 -47.3125 215.25 C-47.951875 214.734375 -48.59125 214.21875 -49.25 213.6875 C-49.25 213.0275 -49.25 212.3675 -49.25 211.6875 C-49.91 211.6875 -50.57 211.6875 -51.25 211.6875 C-51.25 211.0275 -51.25 210.3675 -51.25 209.6875 C-52.24 209.3575 -53.23 209.0275 -54.25 208.6875 C-54.25 208.0275 -54.25 207.3675 -54.25 206.6875 C-54.91 206.6875 -55.57 206.6875 -56.25 206.6875 C-56.25 206.0275 -56.25 205.3675 -56.25 204.6875 C-56.83523438 204.43097656 -57.42046875 204.17445313 -58.0234375 203.91015625 C-60.44234608 202.58187838 -61.98198872 201.12225199 -63.875 199.125 C-66.29521959 196.54734611 -66.29521959 196.54734611 -69.25 194.6875 C-69.25 194.0275 -69.25 193.3675 -69.25 192.6875 C-70.06597656 192.36458984 -70.06597656 192.36458984 -70.8984375 192.03515625 C-74.05929113 190.22370359 -76.37763796 187.73253977 -78.875 185.125 C-82.21402902 181.46035984 -82.21402902 181.46035984 -86.25 178.6875 C-86.25 178.0275 -86.25 177.3675 -86.25 176.6875 C-86.91 176.6875 -87.57 176.6875 -88.25 176.6875 C-89.875 175.3125 -89.875 175.3125 -91.25 173.6875 C-91.25 173.0275 -91.25 172.3675 -91.25 171.6875 C-91.889375 171.419375 -92.52875 171.15125 -93.1875 170.875 C-95.25 169.6875 -95.25 169.6875 -96.25 166.6875 C-97.57338632 166.00129969 -98.90949948 165.33963539 -100.25 164.6875 C-106.99311927 159.32052752 -106.99311927 159.32052752 -109.25 156.6875 C-109.25 156.0275 -109.25 155.3675 -109.25 154.6875 C-109.84474121 154.41945557 -110.43948242 154.15141113 -111.05224609 153.87524414 C-113.26812796 152.67770301 -114.67079528 151.48431017 -116.4140625 149.68359375 C-117.26097656 148.82024414 -117.26097656 148.82024414 -118.125 147.93945312 C-118.7025 147.34068359 -119.28 146.74191406 -119.875 146.125 C-121.03160151 144.93400616 -122.19035778 143.74509995 -123.3515625 142.55859375 C-123.86025879 142.03193115 -124.36895508 141.50526855 -124.89306641 140.96264648 C-126.24400105 139.5710783 -126.24400105 139.5710783 -128.25 138.6875 C-127.74396008 136.51875748 -127.25016187 134.68782373 -126.25 132.6875 C-125.59 132.6875 -124.93 132.6875 -124.25 132.6875 C-124.00378906 132.11257813 -123.75757813 131.53765625 -123.50390625 130.9453125 C-122.05206947 128.33110173 -120.34712451 126.62413792 -118.1875 124.5625 C-115.33428067 121.90845 -115.33428067 121.90845 -113.25 118.6875 C-112.59 118.6875 -111.93 118.6875 -111.25 118.6875 C-110.98960937 118.09839844 -110.72921875 117.50929688 -110.4609375 116.90234375 C-109.17577526 114.55174056 -107.81513183 113.08422944 -105.875 111.25 C-103.68984777 109.14207769 -101.82609933 107.14903158 -99.9375 104.75 C-99.380625 104.069375 -98.82375 103.38875 -98.25 102.6875 C-97.59 102.6875 -96.93 102.6875 -96.25 102.6875 C-96.25 102.0275 -96.25 101.3675 -96.25 100.6875 C-95.59 100.6875 -94.93 100.6875 -94.25 100.6875 C-93.755 99.2025 -93.755 99.2025 -93.25 97.6875 C-92.59 97.6875 -91.93 97.6875 -91.25 97.6875 C-90.98574219 97.09453125 -90.72148437 96.5015625 -90.44921875 95.890625 C-89.20629575 93.60720946 -87.94598354 92.21323277 -86.0625 90.4375 C-81.51043908 86.01738287 -77.41080518 81.2515386 -73.32421875 76.40234375 C-72.70160156 75.67144531 -72.07898438 74.94054687 -71.4375 74.1875 C-70.87417969 73.5171875 -70.31085938 72.846875 -69.73046875 72.15625 C-68.25 70.6875 -68.25 70.6875 -66.25 70.6875 C-66.25 70.0275 -66.25 69.3675 -66.25 68.6875 C-65.59 68.6875 -64.93 68.6875 -64.25 68.6875 C-63.755 67.2025 -63.755 67.2025 -63.25 65.6875 C-62.59 65.6875 -61.93 65.6875 -61.25 65.6875 C-60.99347656 65.10226562 -60.73695313 64.51703125 -60.47265625 63.9140625 C-59.14437838 61.49515392 -57.68475199 59.95551128 -55.6875 58.0625 C-53.10984611 55.64228041 -53.10984611 55.64228041 -51.25 52.6875 C-50.59 52.6875 -49.93 52.6875 -49.25 52.6875 C-49.00378906 52.11257813 -48.75757813 51.53765625 -48.50390625 50.9453125 C-47.05206947 48.33110173 -45.34712451 46.62413792 -43.1875 44.5625 C-40.33428067 41.90845 -40.33428067 41.90845 -38.25 38.6875 C-37.59 38.6875 -36.93 38.6875 -36.25 38.6875 C-36.04503906 38.15382813 -35.84007812 37.62015625 -35.62890625 37.0703125 C-33.67167354 33.68812566 -30.9903035 31.25712512 -28.1875 28.5625 C-24.2455106 24.99196634 -24.2455106 24.99196634 -21.25 20.6875 C-20.59 20.6875 -19.93 20.6875 -19.25 20.6875 C-18.755 19.2025 -18.755 19.2025 -18.25 17.6875 C-17.59 17.6875 -16.93 17.6875 -16.25 17.6875 C-16.25 17.0275 -16.25 16.3675 -16.25 15.6875 C-15.59 15.6875 -14.93 15.6875 -14.25 15.6875 C-13.99089844 15.0996875 -13.73179687 14.511875 -13.46484375 13.90625 C-12.16540207 11.53299317 -10.77161971 10.0412907 -8.8125 8.1875 C-6.78568832 6.24426818 -5.18921375 4.59632062 -3.625 2.25 C-2.25 0.6875 -2.25 0.6875 0 0 Z " fill="#000000" transform="translate(443.25,741.3125)"/>
<path d="M0 0 C5.07925901 1.47279629 7.84236352 4.53004633 11.375 8.25 C14.90598896 11.88978833 18.38528127 15.46702002 22.3125 18.6875 C23.199375 19.450625 24.08625 20.21375 25 21 C25 21.66 25 22.32 25 23 C25.99 23.33 26.98 23.66 28 24 C28 24.66 28 25.32 28 26 C28.66 26 29.32 26 30 26 C30 26.66 30 27.32 30 28 C30.59296875 28.26425781 31.1859375 28.52851562 31.796875 28.80078125 C34.08029054 30.04370425 35.47426723 31.30401646 37.25 33.1875 C39.70026592 35.71596589 42.19832051 38.08755876 44.875 40.375 C48.83370275 43.77701017 52.47875655 47.43983687 56.1171875 51.1796875 C57.87753339 53.06383898 57.87753339 53.06383898 60 54 C60 54.66 60 55.32 60 56 C60.66 56 61.32 56 62 56 C63.625 57.375 63.625 57.375 65 59 C65 59.66 65 60.32 65 61 C65.639375 61.268125 66.27875 61.53625 66.9375 61.8125 C69 63 69 63 70 66 C71.31958427 66.69348365 72.65521879 67.35673823 74 68 C75.8515625 69.69140625 75.8515625 69.69140625 77.625 71.5625 C80.04521959 74.14015389 80.04521959 74.14015389 83 76 C83 76.66 83 77.32 83 78 C83.639375 78.268125 84.27875 78.53625 84.9375 78.8125 C87 80 87 80 88 83 C89.32403636 83.68494521 90.6591192 84.34864687 92 85 C93.41838177 86.3086579 94.79241236 87.66657645 96.125 89.0625 C98.77905 91.91571933 98.77905 91.91571933 102 94 C102.38613383 96.62571005 102.38493778 98.3843879 100.95703125 100.66796875 C99.625 102.3125 99.625 102.3125 97 105 C96.34 105 95.68 105 95 105 C95 105.66 95 106.32 95 107 C94.34 107 93.68 107 93 107 C92.67 107.99 92.34 108.98 92 110 C91.34 110 90.68 110 90 110 C90 110.66 90 111.32 90 112 C89.34 112 88.68 112 88 112 C87.731875 112.58265625 87.46375 113.1653125 87.1875 113.765625 C85.98519009 116.02786601 84.66174087 117.80576318 83 119.75 C82.484375 120.36359375 81.96875 120.9771875 81.4375 121.609375 C80 123 80 123 78 123 C77.75378906 123.57492187 77.50757813 124.14984375 77.25390625 124.7421875 C75.80206947 127.35639827 74.09712451 129.06336208 71.9375 131.125 C69.08428067 133.77905 69.08428067 133.77905 67 137 C66.34 137 65.68 137 65 137 C65 137.66 65 138.32 65 139 C64.34 139 63.68 139 63 139 C62.67 139.99 62.34 140.98 62 142 C61.34 142 60.68 142 60 142 C59.74347656 142.58523438 59.48695313 143.17046875 59.22265625 143.7734375 C57.89437838 146.19234608 56.43475199 147.73198872 54.4375 149.625 C51.85984611 152.04521959 51.85984611 152.04521959 50 155 C49.34 155 48.68 155 48 155 C47.731875 155.639375 47.46375 156.27875 47.1875 156.9375 C46 159 46 159 43 160 C42.29257339 161.31216227 41.6319726 162.64987672 41 164 C39.87695108 165.45148775 38.70778017 166.8682176 37.5 168.25 C36.8915625 168.95640625 36.283125 169.6628125 35.65625 170.390625 C34 172 34 172 32 172 C31.76410156 172.56460937 31.52820313 173.12921875 31.28515625 173.7109375 C29.70765058 176.52071963 27.75948714 178.39619051 25.4375 180.625 C22.30957946 183.51070681 22.30957946 183.51070681 20 187 C19.34 187 18.68 187 18 187 C17.67 187.99 17.34 188.98 17 190 C16.34 190 15.68 190 15 190 C15 190.66 15 191.32 15 192 C14.34 192 13.68 192 13 192 C12.60361328 192.88945313 12.60361328 192.88945313 12.19921875 193.796875 C10.95629575 196.08029054 9.69598354 197.47426723 7.8125 199.25 C2.89873179 204.02074793 -1.52900489 209.16133307 -5.8125 214.5 C-6.534375 215.325 -7.25625 216.15 -8 217 C-8.66 217 -9.32 217 -10 217 C-10 217.66 -10 218.32 -10 219 C-11.375 220.625 -11.375 220.625 -13 222 C-13.66 222 -14.32 222 -15 222 C-15.268125 222.639375 -15.53625 223.27875 -15.8125 223.9375 C-17 226 -17 226 -20 227 C-20.6837045 228.32467746 -21.34964186 229.65863633 -22 231 C-25 233 -25 233 -26.9609375 232.84375 C-29.46727599 231.80664442 -30.78257673 230.4804021 -32.625 228.5 C-35.03610916 225.88193354 -35.03610916 225.88193354 -38 224 C-38 223.34 -38 222.68 -38 222 C-38.53367187 221.79503906 -39.06734375 221.59007812 -39.6171875 221.37890625 C-42.99937434 219.42167354 -45.43037488 216.7403035 -48.125 213.9375 C-51.69553366 209.9955106 -51.69553366 209.9955106 -56 207 C-56 206.34 -56 205.68 -56 205 C-56.99 204.67 -57.98 204.34 -59 204 C-59 203.34 -59 202.68 -59 202 C-59.66 202 -60.32 202 -61 202 C-61 201.34 -61 200.68 -61 200 C-61.99 199.67 -62.98 199.34 -64 199 C-64 198.34 -64 197.68 -64 197 C-64.58523437 196.74347656 -65.17046875 196.48695313 -65.7734375 196.22265625 C-68.19234608 194.89437838 -69.73198872 193.43475199 -71.625 191.4375 C-74.04521959 188.85984611 -74.04521959 188.85984611 -77 187 C-77 186.34 -77 185.68 -77 185 C-77.57492188 184.75378906 -78.14984375 184.50757813 -78.7421875 184.25390625 C-81.35639827 182.80206947 -83.06336208 181.09712451 -85.125 178.9375 C-87.77905 176.08428067 -87.77905 176.08428067 -91 174 C-91 173.34 -91 172.68 -91 172 C-91.66 172 -92.32 172 -93 172 C-94.625 170.625 -94.625 170.625 -96 169 C-96 168.34 -96 167.68 -96 167 C-96.639375 166.731875 -97.27875 166.46375 -97.9375 166.1875 C-100 165 -100 165 -101 162 C-102.31958427 161.30651635 -103.65521879 160.64326177 -105 160 C-106.8515625 158.30859375 -106.8515625 158.30859375 -108.625 156.4375 C-111.04521959 153.85984611 -111.04521959 153.85984611 -114 152 C-114 151.34 -114 150.68 -114 150 C-114.66 150 -115.32 150 -116 150 C-117.625 148.625 -117.625 148.625 -119 147 C-119 146.34 -119 145.68 -119 145 C-119.8353125 144.6596875 -119.8353125 144.6596875 -120.6875 144.3125 C-123.71572375 142.59377841 -125.77323664 140.67211603 -128 138 C-128.11800783 134.22374959 -125.45182829 131.67472177 -123 129 C-122.34 129 -121.68 129 -121 129 C-120.79503906 128.46632813 -120.59007812 127.93265625 -120.37890625 127.3828125 C-118.42167354 124.00062566 -115.7403035 121.56962512 -112.9375 118.875 C-108.9955106 115.30446634 -108.9955106 115.30446634 -106 111 C-105.34 111 -104.68 111 -104 111 C-103.505 109.515 -103.505 109.515 -103 108 C-102.34 108 -101.68 108 -101 108 C-101 107.34 -101 106.68 -101 106 C-100.34 106 -99.68 106 -99 106 C-98.731875 105.41734375 -98.46375 104.8346875 -98.1875 104.234375 C-96.98519009 101.97213399 -95.66174087 100.19423682 -94 98.25 C-93.484375 97.63640625 -92.96875 97.0228125 -92.4375 96.390625 C-91 95 -91 95 -89 95 C-88.75378906 94.42507813 -88.50757813 93.85015625 -88.25390625 93.2578125 C-86.80206947 90.64360173 -85.09712451 88.93663792 -82.9375 86.875 C-80.08428067 84.22095 -80.08428067 84.22095 -78 81 C-77.34 81 -76.68 81 -76 81 C-76 80.34 -76 79.68 -76 79 C-74.625 77.375 -74.625 77.375 -73 76 C-72.34 76 -71.68 76 -71 76 C-70.61521484 75.12214844 -70.61521484 75.12214844 -70.22265625 74.2265625 C-68.89437838 71.80765392 -67.43475199 70.26801128 -65.4375 68.375 C-62.85984611 65.95478041 -62.85984611 65.95478041 -61 63 C-60.34 63 -59.68 63 -59 63 C-59 62.34 -59 61.68 -59 61 C-57.625 59.375 -57.625 59.375 -56 58 C-55.34 58 -54.68 58 -54 58 C-53.73574219 57.40703125 -53.47148437 56.8140625 -53.19921875 56.203125 C-51.95629575 53.91970946 -50.69598354 52.52573277 -48.8125 50.75 C-44.26043908 46.32988287 -40.16080518 41.5640386 -36.07421875 36.71484375 C-35.45160156 35.98394531 -34.82898438 35.25304687 -34.1875 34.5 C-33.62417969 33.8296875 -33.06085938 33.159375 -32.48046875 32.46875 C-31 31 -31 31 -29 31 C-28.505 29.515 -28.505 29.515 -28 28 C-27.34 28 -26.68 28 -26 28 C-26 27.34 -26 26.68 -26 26 C-25.34 26 -24.68 26 -24 26 C-23.73574219 25.40703125 -23.47148437 24.8140625 -23.19921875 24.203125 C-21.95629575 21.91970946 -20.69598354 20.52573277 -18.8125 18.75 C-16.24538409 16.26774743 -13.86711909 13.72748498 -11.5625 11 C-8.05103216 6.91392833 -4.13729144 3.43878769 0 0 Z " fill="#000000" transform="translate(298,896)"/>
<path d="M0 0 C0 0.66 0 1.32 0 2 C0.87785156 2.38478516 0.87785156 2.38478516 1.7734375 2.77734375 C4.19234608 4.10562162 5.73198872 5.56524801 7.625 7.5625 C10.04521959 10.14015389 10.04521959 10.14015389 13 12 C13 12.66 13 13.32 13 14 C13.99 14.33 14.98 14.66 16 15 C16 15.66 16 16.32 16 17 C16.66 17 17.32 17 18 17 C18 17.66 18 18.32 18 19 C19.485 19.495 19.485 19.495 21 20 C21 20.66 21 21.32 21 22 C21.57234375 22.24363281 22.1446875 22.48726562 22.734375 22.73828125 C25.40433538 24.22517298 27.13829007 25.98083908 29.25 28.1875 C33.32755531 32.35848538 37.56789508 36.21351666 42 40 C43.4393933 41.24781937 44.87691921 42.49779632 46.3125 43.75 C47.26576172 44.57757812 47.26576172 44.57757812 48.23828125 45.421875 C51.60561709 48.43829114 51.60561709 48.43829114 53 50 C53 50.66 53 51.32 53 52 C53.66 52 54.32 52 55 52 C55 52.66 55 53.32 55 54 C55.99 54.33 56.98 54.66 58 55 C58 55.66 58 56.32 58 57 C58.56847656 57.23976563 59.13695312 57.47953125 59.72265625 57.7265625 C62.46220023 59.25845159 64.26745695 61.11093429 66.4375 63.375 C68.91420236 65.92118081 71.27802917 68.22128852 74.0625 70.4375 C74.701875 70.953125 75.34125 71.46875 76 72 C76 72.66 76 73.32 76 74 C76.56203125 74.23332031 77.1240625 74.46664063 77.703125 74.70703125 C80.56734142 76.31937076 82.47252021 78.3193562 84.75 80.6875 C88.49992061 84.52062891 92.32648333 88.14716612 96.40625 91.625 C97.65053045 92.69849686 98.83796959 93.83796959 100 95 C100.125 97.625 100.125 97.625 100 100 C99.34 100 98.68 100 98 100 C97.73960937 100.58910156 97.47921875 101.17820312 97.2109375 101.78515625 C95.92577526 104.13575944 94.56513183 105.60327056 92.625 107.4375 C90.43984777 109.54542231 88.57609933 111.53846842 86.6875 113.9375 C86.130625 114.618125 85.57375 115.29875 85 116 C84.34 116 83.68 116 83 116 C83 116.66 83 117.32 83 118 C82.34 118 81.68 118 81 118 C80.67 118.99 80.34 119.98 80 121 C79.34 121 78.68 121 78 121 C77.773125 121.53625 77.54625 122.0725 77.3125 122.625 C74.45199885 127.80114494 70.20027172 131.89973475 66 136 C62.72024312 139.20572174 59.52821069 142.32902967 56.6875 145.9375 C56.130625 146.618125 55.57375 147.29875 55 148 C54.34 148 53.68 148 53 148 C52.731875 148.639375 52.46375 149.27875 52.1875 149.9375 C51 152 51 152 48 153 C47.33212478 154.33272837 46.66575139 155.66620942 46 157 C35.951591 168.18156291 24.64716473 176.93264928 10 181 C8.22109375 181.52207031 8.22109375 181.52207031 6.40625 182.0546875 C-11.60706701 186.47170599 -30.57871893 182.8136614 -46.25 173.4375 C-50.36968007 170.89379394 -54.3761459 168.2219605 -58 165 C-58 164.34 -58 163.68 -58 163 C-58.66 163 -59.32 163 -60 163 C-74.34089143 147.55109268 -81.82164978 129.01387577 -81.35546875 107.8359375 C-79.41416427 86.88691549 -70.06536508 72.10892442 -56 57 C-52.0532755 52.57158865 -48.18949798 48.07241194 -44.359375 43.54296875 C-42.95584092 41.94987691 -41.58298581 40.41702762 -40 39 C-39.34 39 -38.68 39 -38 39 C-38 38.34 -38 37.68 -38 37 C-37.34 37 -36.68 37 -36 37 C-35.67 36.01 -35.34 35.02 -35 34 C-34.34 34 -33.68 34 -33 34 C-32.60361328 33.11054687 -32.60361328 33.11054687 -32.19921875 32.203125 C-30.95629575 29.91970946 -29.69598354 28.52573277 -27.8125 26.75 C-23.26043908 22.32988287 -19.16080518 17.5640386 -15.07421875 12.71484375 C-14.45160156 11.98394531 -13.82898438 11.25304688 -13.1875 10.5 C-12.62417969 9.8296875 -12.06085938 9.159375 -11.48046875 8.46875 C-10 7 -10 7 -8 7 C-7.7525 6.401875 -7.505 5.80375 -7.25 5.1875 C-5.55294333 2.21765083 -3.56508774 0 0 0 Z " fill="#000000" transform="translate(155,1050)"/>
<path d="M0 0 C3.5804228 1.37028527 6.33802327 3.27396101 8.9375 6.125 C10.92125154 11.49279828 10.93116392 16.88371836 8.625 22.125 C7.820625 23.053125 7.820625 23.053125 7 24 C6.34 24 5.68 24 5 24 C4.67 24.99 4.34 25.98 4 27 C3.34 27 2.68 27 2 27 C2 27.66 2 28.32 2 29 C1.34 29 0.68 29 0 29 C-0.33 29.99 -0.66 30.98 -1 32 C-1.66 32 -2.32 32 -3 32 C-3 32.66 -3 33.32 -3 34 C-3.66 34 -4.32 34 -5 34 C-5.33 34.99 -5.66 35.98 -6 37 C-6.66 37 -7.32 37 -8 37 C-8 37.66 -8 38.32 -8 39 C-8.66 39 -9.32 39 -10 39 C-10.33 39.99 -10.66 40.98 -11 42 C-11.66 42 -12.32 42 -13 42 C-13 42.66 -13 43.32 -13 44 C-13.66 44 -14.32 44 -15 44 C-15.33 44.99 -15.66 45.98 -16 47 C-16.66 47 -17.32 47 -18 47 C-18 47.66 -18 48.32 -18 49 C-18.66 49 -19.32 49 -20 49 C-20.33 49.99 -20.66 50.98 -21 52 C-21.66 52 -22.32 52 -23 52 C-23 52.66 -23 53.32 -23 54 C-23.66 54 -24.32 54 -25 54 C-25.33 54.99 -25.66 55.98 -26 57 C-26.66 57 -27.32 57 -28 57 C-28 57.66 -28 58.32 -28 59 C-28.66 59 -29.32 59 -30 59 C-30.33 59.99 -30.66 60.98 -31 62 C-31.66 62 -32.32 62 -33 62 C-33 62.66 -33 63.32 -33 64 C-33.66 64 -34.32 64 -35 64 C-35.33 64.99 -35.66 65.98 -36 67 C-36.66 67 -37.32 67 -38 67 C-38 67.66 -38 68.32 -38 69 C-38.66 69 -39.32 69 -40 69 C-40.33 69.99 -40.66 70.98 -41 72 C-41.66 72 -42.32 72 -43 72 C-43 72.66 -43 73.32 -43 74 C-43.66 74 -44.32 74 -45 74 C-45.33 74.99 -45.66 75.98 -46 77 C-46.66 77 -47.32 77 -48 77 C-48 77.66 -48 78.32 -48 79 C-48.66 79 -49.32 79 -50 79 C-50.495 80.485 -50.495 80.485 -51 82 C-51.66 82 -52.32 82 -53 82 C-53 82.66 -53 83.32 -53 84 C-53.66 84 -54.32 84 -55 84 C-55.495 85.485 -55.495 85.485 -56 87 C-56.66 87 -57.32 87 -58 87 C-58 87.66 -58 88.32 -58 89 C-58.66 89 -59.32 89 -60 89 C-60.495 90.485 -60.495 90.485 -61 92 C-61.66 92 -62.32 92 -63 92 C-63 92.66 -63 93.32 -63 94 C-63.66 94 -64.32 94 -65 94 C-65.495 95.485 -65.495 95.485 -66 97 C-66.66 97 -67.32 97 -68 97 C-68 97.66 -68 98.32 -68 99 C-68.66 99 -69.32 99 -70 99 C-70.495 100.485 -70.495 100.485 -71 102 C-71.66 102 -72.32 102 -73 102 C-73 102.66 -73 103.32 -73 104 C-73.66 104 -74.32 104 -75 104 C-75.495 105.485 -75.495 105.485 -76 107 C-76.66 107 -77.32 107 -78 107 C-78 107.66 -78 108.32 -78 109 C-78.66 109 -79.32 109 -80 109 C-80.495 110.485 -80.495 110.485 -81 112 C-81.66 112 -82.32 112 -83 112 C-83 112.66 -83 113.32 -83 114 C-83.66 114 -84.32 114 -85 114 C-85.495 115.485 -85.495 115.485 -86 117 C-86.66 117 -87.32 117 -88 117 C-88 117.66 -88 118.32 -88 119 C-88.66 119 -89.32 119 -90 119 C-90.495 120.485 -90.495 120.485 -91 122 C-91.66 122 -92.32 122 -93 122 C-93 122.66 -93 123.32 -93 124 C-93.66 124 -94.32 124 -95 124 C-95.495 125.485 -95.495 125.485 -96 127 C-96.66 127 -97.32 127 -98 127 C-98 127.66 -98 128.32 -98 129 C-98.66 129 -99.32 129 -100 129 C-100.33 129.99 -100.66 130.98 -101 132 C-101.66 132 -102.32 132 -103 132 C-103 132.66 -103 133.32 -103 134 C-103.66 134 -104.32 134 -105 134 C-105.33 134.99 -105.66 135.98 -106 137 C-106.66 137 -107.32 137 -108 137 C-108 137.66 -108 138.32 -108 139 C-108.66 139 -109.32 139 -110 139 C-110.33 139.99 -110.66 140.98 -111 142 C-111.66 142 -112.32 142 -113 142 C-113 142.66 -113 143.32 -113 144 C-113.66 144 -114.32 144 -115 144 C-115.33 144.99 -115.66 145.98 -116 147 C-116.66 147 -117.32 147 -118 147 C-118 147.66 -118 148.32 -118 149 C-118.66 149 -119.32 149 -120 149 C-120.33 149.99 -120.66 150.98 -121 152 C-121.66 152 -122.32 152 -123 152 C-123 152.66 -123 153.32 -123 154 C-123.66 154 -124.32 154 -125 154 C-125.33 154.99 -125.66 155.98 -126 157 C-126.66 157 -127.32 157 -128 157 C-128 157.66 -128 158.32 -128 159 C-128.66 159 -129.32 159 -130 159 C-130.33 159.99 -130.66 160.98 -131 162 C-131.66 162 -132.32 162 -133 162 C-133 162.66 -133 163.32 -133 164 C-133.66 164 -134.32 164 -135 164 C-135.33 164.99 -135.66 165.98 -136 167 C-136.66 167 -137.32 167 -138 167 C-138 167.66 -138 168.32 -138 169 C-138.66 169 -139.32 169 -140 169 C-140.33 169.99 -140.66 170.98 -141 172 C-141.66 172 -142.32 172 -143 172 C-143 172.66 -143 173.32 -143 174 C-143.66 174 -144.32 174 -145 174 C-145.33 174.99 -145.66 175.98 -146 177 C-146.66 177 -147.32 177 -148 177 C-148 177.66 -148 178.32 -148 179 C-148.66 179 -149.32 179 -150 179 C-150 179.66 -150 180.32 -150 181 C-153.04821139 184.31327325 -156.47229334 184.6690172 -160.7578125 184.9921875 C-165.62056705 185.0091309 -168.20421616 183.6746863 -171.875 180.5625 C-174.54688678 176.95017938 -174.99153413 173.40007632 -174.67924881 168.97824192 C-173.88541788 165.49760196 -172.82800782 164.15628667 -170.38201904 161.58641052 C-169.15018009 160.28350728 -169.15018009 160.28350728 -167.89345551 158.95428276 C-166.93070956 157.96782143 -165.96611562 156.98316139 -165 156 C-164.47720742 155.46406322 -163.95441484 154.92812644 -163.41578007 154.37594914 C-158.98227317 149.83885808 -154.49913746 145.35207716 -150.01269531 140.86743164 C-148.51191251 139.36365165 -147.01133321 137.85966853 -145.51094055 136.35549927 C-141.46203393 132.29781234 -137.40993998 128.24332331 -133.35696125 124.18970418 C-130.82306409 121.65509392 -128.28988124 119.11977199 -125.75695038 116.58419609 C-116.9161726 107.7341896 -108.07283855 98.88674688 -99.22705078 90.04174805 C-90.98525597 81.80055562 -82.74907338 73.55378353 -74.51546216 65.30441576 C-67.43602314 58.21191253 -60.35274565 51.12325844 -53.2664516 44.03760427 C-49.03815108 39.80955877 -44.81141968 35.57997321 -40.58853912 31.34651375 C-36.6235412 27.37185202 -32.65379394 23.40199661 -28.68031883 19.43581009 C-27.22290869 17.97944744 -25.76720764 16.52137217 -24.31334114 15.06147194 C-22.3298755 13.0703078 -20.34035502 11.08539649 -18.34918213 9.10194397 C-17.77457032 8.5221886 -17.19995852 7.94243323 -16.60793424 7.34510952 C-11.4855374 2.26655045 -7.58361813 -0.91526426 0 0 Z " fill="#000000" transform="translate(416,1059)"/>
<path d="M0 0 C3.80595454 2.36814949 6.25232015 4.86075824 8 9 C8.59234016 13.45472255 8.47659502 16.93849292 6.625 21.0625 C6.08875 21.701875 5.5525 22.34125 5 23 C4.34 23 3.68 23 3 23 C2.67 23.99 2.34 24.98 2 26 C1.34 26 0.68 26 0 26 C0 26.66 0 27.32 0 28 C-0.66 28 -1.32 28 -2 28 C-2.33 28.99 -2.66 29.98 -3 31 C-3.66 31 -4.32 31 -5 31 C-5 31.66 -5 32.32 -5 33 C-9.54595467 35.66104663 -12.73814134 36.81649531 -18 36 C-22.16978698 33.59348047 -25.32569925 31.01145112 -28 27 C-28.70740499 22.68153933 -28.4827637 19.03135882 -26.625 15.0625 C-19.92331874 6.54179097 -11.74780149 -3.56803062 0 0 Z " fill="#000000" transform="translate(463,1015)"/>
</svg>
