<?xml version="1.0" encoding="UTF-8"?>
<svg version="1.1" viewBox="0 0 1600 1600" width="1280" height="1280" xmlns="http://www.w3.org/2000/svg">
<path transform="translate(390 -.143)" d="m0 0c1.45-0 2.9-0.01 4.35-0.01 3.98-0.01 7.96-0.01 11.9-0.01 4.33-0.01 8.66-0.01 13-0.02 8.59-0.02 17.2-0.03 25.8-0.03 7.14-0.01 14.3-0.02 21.4-0.03h3.13c2.1-0.01 4.21-0.01 6.31-0.01 27.2-0.04 54.5-0.07 81.7-0.09 3.53 0 7.07 0 10.6-0.01 45-0.04 90-0.07 135-0.09 11.4-0.01 22.9-0.01 34.3-0.02h3.83c40.9-0.02 81.8-0.07 123-0.13 42.1-0.06 84.2-0.1 126-0.11h17.9 3.55c18.8-0.01 37.6-0.04 56.4-0.08 18.9-0.03 37.9-0.05 56.8-0.03 10.2 0.01 20.5 0 30.7-0.04 40.8-0.13 80.5-0.06 121 7.85 1.43 0.28 2.86 0.55 4.29 0.82 42.6 8.11 85.7 24.3 123 47.2 0.72 0.44 1.43 0.88 2.17 1.34 22.3 13.7 43.7 29.1 62.9 47 2.25 2.1 4.4 3.92 6.97 5.63v2c0.54 0.22 1.08 0.43 1.63 0.65 3.22 1.84 5.62 4.35 8.18 6.98 0.54 0.54 1.07 1.09 1.62 1.65 4.03 4.1 7.85 8.34 11.6 12.7 1.28 1.47 1.28 1.47 2.6 2.97 12.2 13.9 23.5 28.4 33.4 44 0.5 0.78 0.99 1.57 1.51 2.37 34.1 53.7 53.7 112 62.2 175 0.25 1.78 0.53 3.56 0.82 5.34 2.16 14.9 1.76 30 1.74 45.1-0.01 4.31 0 8.62 0.01 12.9 0.01 7.54 0.01 15.1 0.01 22.6 0 11.2 0 22.4 0.02 33.7 0.01 21.2 0.02 42.4 0.02 63.6 0 16.4 0.01 32.8 0.01 49.2 0 4.72 0.01 9.44 0.01 14.2v3.56c0.01 33 0.02 66 0.02 99v3.77 18.9 3.79 7.6c0 39.4 0.01 78.7 0.04 118 0.03 44.3 0.05 88.5 0.05 133-0.01 4.73-0.01 9.46-0.01 14.2v3.53c0 18.7 0.02 37.4 0.03 56 0.02 18.8 0.02 37.6 0.01 56.4-0.01 11.1 0 22.3 0.02 33.4 0.01 7.47 0.01 14.9-0.01 22.4-0.01 4.24-0.01 8.48 0.01 12.7 0.33 91.5-27.5 181-94.5 267-0.64 0.74-1.27 1.47-1.92 2.23-3.92 4.51-7.92 8.94-11.9 13.4-1.91 2.15-3.76 4.33-5.59 6.54-0.85 0.95-1.69 1.9-2.56 2.87h-2v2c-1.26 1.27-1.26 1.27-3.13 2.82-3.38 2.87-6.65 5.82-9.88 8.86-6.45 6.07-13 11.8-20 17.3-0.87 0.71-1.73 1.42-2.62 2.14-16.4 13.1-34.5 24.9-53 34.6-2.62 1.37-5.21 2.77-7.81 4.17-27.2 14.6-55.6 25.4-85.5 33-1.03 0.27-2.05 0.53-3.11 0.81-17.8 4.53-35.7 7.48-53.8 9.91-1.79 0.25-3.57 0.53-5.36 0.82-15 2.16-30.1 1.75-45.1 1.74-4.32 0-8.63 0-13 0.01-7.56 0.01-15.1 0.02-22.7 0.02-11.2 0-22.5 0.01-33.7 0.02-22.4 0.03-44.8 0.03-67.2 0.04h-3.52-3.52c-12.9 0-25.8 0.01-38.7 0.02-39 0.02-78 0.03-117 0.04h-3.77-15.2-11.4-3.8c-39.4 0-78.9 0.02-118 0.06-44.4 0.04-88.7 0.06-133 0.06h-14.2-3.54c-18.7 0.01-37.4 0.02-56.1 0.05-18.8 0.02-37.7 0.02-56.5 0.01-11.2-0.01-22.3 0-33.5 0.02-7.49 0.02-15 0.02-22.5 0-4.25-0.01-8.49-0.01-12.7 0.01-67 0.31-133-15.4-193-45.6-0.8-0.4-1.6-0.8-2.43-1.21-28.3-14.2-53.9-33-77.6-53.8-1.38-1.2-1.38-1.2-2.78-2.43-6.51-5.84-12.7-12-18.9-18.1-1.43-1.41-2.85-2.82-4.28-4.23-6.11-6.1-11.6-12.5-17-19.2-0.94-1.1-1.88-2.2-2.83-3.28-50.5-57.9-77.6-132-87.9-208-0.25-1.85-0.53-3.69-0.82-5.54-2.06-15.4-1.76-30.8-1.74-46.2 0-4.35-0.01-8.69-0.02-13-0.02-8.6-0.02-17.2-0.02-25.8 0-10.3-0.02-20.6-0.03-30.9-0.03-24.9-0.04-49.8-0.05-74.7-0.01-11.8-0.02-23.6-0.02-35.4-0.03-40.4-0.05-80.9-0.06-121v-7.61-7.63-15.3-3.83c-0.01-41-0.04-81.9-0.09-123-0.05-43.4-0.08-86.7-0.08-130v-14.3-3.56c0-18.8-0.02-37.6-0.05-56.5-0.03-19-0.04-37.9-0.02-56.9 0.01-10.2 0-20.5-0.02-30.8-0.22-78.9-0.22-78.9 6.74-113 0.51-2.65 1.01-5.31 1.51-7.97 12.2-64.1 41.1-125 83.1-175 1.94-2.33 3.81-4.71 5.69-7.08 6.46-7.9 13.6-15.2 20.7-22.6 0.73-0.76 1.45-1.51 2.2-2.3 1.08-1.1 1.08-1.1 2.17-2.22 0.97-1 0.97-1 1.96-2.02 1.67-1.46 1.67-1.46 3.67-1.46v-2c1.26-1.3 1.26-1.3 3.12-2.87 0.74-0.63 1.47-1.25 2.23-1.89 0.87-0.74 1.75-1.48 2.65-2.24 1.03-0.9 2.06-1.8 3.08-2.7 18.8-16.4 39.3-30.9 60.9-43.3 0.65-0.38 1.31-0.76 1.99-1.15 47.9-27.8 99.7-42.9 154-50.7 0.72-0.11 1.44-0.21 2.19-0.32 10.7-1.49 21.3-2 32.1-1.99zm580 349c-1.37 1.38-1.37 1.38-2.78 2.8l-1.53 1.53c-1.68 1.68-3.35 3.38-5.02 5.07-1.16 1.16-2.32 2.33-3.49 3.5-3.05 3.07-6.11 6.15-9.15 9.23-3.12 3.14-6.24 6.27-9.35 9.41-6.13 6.15-12.2 12.3-18.3 18.5 1.56 3.33 3.21 5.56 6 8h2l1 3c1.5 1.49 1.5 1.49 3.31 2.88 2.17 1.79 3.86 3.34 5.62 5.56 2.91 3.6 6.59 6.52 10.1 9.56l232 232c-312 0.33-623 0.66-944 1-0.85 4.26-1.13 7.68-1.13 12 0 0.68-0.01 1.36-0.01 2.07v6.72 4.68c0 3.26 0 6.52 0.01 9.78 0 4.19 0 8.38-0.01 12.6v9.65 4.64c0 2.15 0 4.3 0.01 6.45v3.72c-0.19 2.65-0.19 2.65 1.13 3.74 2.09 0.1 4.19 0.13 6.28 0.13 1 0.01 1 0.01 2.03 0.01 2.27 0.01 4.54 0.01 6.82 0 1.64 0.01 3.28 0.01 4.92 0.01 4.55 0.01 9.1 0.01 13.6 0.02 4.93 0 9.87 0.01 14.8 0.01 8.67 0.02 17.3 0.03 26 0.03 12.9 0.01 25.8 0.03 38.7 0.04 23.1 0.03 46.1 0.06 69.2 0.08 20.3 0.02 40.6 0.04 60.8 0.06h4.08c5.47 0.01 10.9 0.01 16.4 0.02 15.3 0.02 30.6 0.03 45.9 0.05h2.11c22.2 0.03 44.5 0.05 66.7 0.07h2.19l35.2 0.03c46.1 0.04 92.2 0.09 138 0.15 11.6 0.01 23.1 0.02 34.6 0.04h2.16c22.1 0.02 44.2 0.05 66.3 0.07h2.12c15.4 0.02 30.7 0.03 46.1 0.05 5.51 0 11 0.01 16.5 0.01 1.37 0 2.74 0 4.11 0.01 19.5 0.01 39 0.04 58.5 0.06 31.6 0.04 63.3 0.07 94.9 0.09h3.61c81.3 0.06 163-0.21 244-1.04-1.27-2.77-2.57-4.82-4.72-6.97-0.56-0.56-1.12-1.12-1.69-1.7-0.61-0.61-1.23-1.22-1.86-1.85-0.65-0.65-1.3-1.31-1.98-1.99-2.2-2.21-4.41-4.42-6.63-6.62-1.59-1.6-3.18-3.19-4.77-4.79-4.39-4.4-8.78-8.79-13.2-13.2-4.25-4.24-8.49-8.49-12.7-12.7-9.75-9.76-19.5-19.5-29.3-29.3-7.54-7.53-15.1-15.1-22.6-22.6l-8.13-8.13c-15.1-15.2-30.3-30.3-45.4-45.5l-1.73-1.73c-2.89-2.9-5.79-5.79-8.69-8.69l-1.74-1.74c-1.16-1.17-2.33-2.33-3.49-3.49-18.1-18.1-36.2-36.2-54.3-54.3-20.3-20.3-40.6-40.7-61-61-2.16-2.17-4.33-4.34-6.49-6.5l-1.62-1.62c-8.07-8.06-16.1-16.1-24.2-24.2-9.16-9.18-18.3-18.4-27.5-27.5-4.69-4.68-9.37-9.36-14-14-4.27-4.29-8.55-8.57-12.8-12.8-1.55-1.55-3.1-3.11-4.65-4.67-2.1-2.1-4.2-4.2-6.31-6.29-0.61-0.62-1.22-1.24-1.85-1.87-4.54-4.73-4.54-4.73-9.88-2.17zm-734 513c1.46 3.37 3.32 5.58 5.91 8.16 0.82 0.83 1.64 1.66 2.49 2.51 0.9 0.9 1.81 1.81 2.75 2.74 0.97 0.97 1.94 1.94 2.9 2.91 2.67 2.68 5.34 5.35 8.02 8.01 2.88 2.88 5.76 5.76 8.63 8.65l16.9 16.9c4.59 4.58 9.17 9.16 13.8 13.7 0.65 0.66 1.3 1.31 1.98 1.98 1.32 1.32 2.64 2.65 3.97 3.97 12.4 12.4 24.8 24.8 37.2 37.2 10.7 10.7 21.3 21.3 32 32 12.4 12.4 24.7 24.8 37.1 37.1 1.32 1.32 2.63 2.64 3.95 3.96 0.65 0.64 1.3 1.29 1.97 1.96l13.7 13.7c5.57 5.58 11.2 11.2 16.7 16.7 2.85 2.85 5.7 5.69 8.54 8.54 2.6 2.61 5.21 5.21 7.82 7.81 1.39 1.39 2.79 2.79 4.18 4.19 0.82 0.82 1.64 1.63 2.49 2.47 0.71 0.72 1.42 1.43 2.15 2.16 1.63 1.72 1.63 1.72 3.76 1.5l1 3h2c0.23 0.56 0.46 1.12 0.69 1.69 1.66 2.95 3.76 4.96 6.18 7.31 0.87 0.85 1.73 1.69 2.62 2.57 0.83 0.8 1.65 1.6 2.51 2.43 1.08 1.15 1.08 1.15 2.19 2.32 1.64 1.91 1.64 1.91 3.81 1.68l1 3c1.87 2.21 1.87 2.21 4 4h2l1 3c1.45 1.22 2.9 2.44 4.39 3.62 2.52 2.17 4.48 4.83 6.61 7.38 1.99 1.67 3.99 3.34 6 5 1.33 1.67 2.66 3.34 4 5 0.97 0.81 1.94 1.61 2.93 2.44 3.13 2.62 5.46 5.44 8.07 8.56 0.99 0.83 1.98 1.65 3 2.5 3.1 2.59 5.41 5.4 8 8.5 1.98 1.69 3.98 3.36 6 5 1.68 1.65 3.35 3.31 5 5 1.23 1.21 1.23 1.21 2.5 2.44 2.5 2.56 2.5 2.56 4.93 5.56 2.63 3.08 5.43 5.45 8.57 8 1.68 1.66 3.34 3.33 5 5 0.83 0.83 1.67 1.65 2.53 2.5 0.84 0.83 1.67 1.65 2.53 2.5 0.84 0.83 1.67 1.65 2.54 2.5 2.3 2.4 4.32 4.91 6.4 7.5 1.98 1.69 3.98 3.36 6 5 3.13 2.97 5.98 6.12 8.81 9.38 3.21 3.64 6.58 6.85 10.3 9.98 2.78 2.41 5.33 5.01 7.9 7.64 0.99-0.33 1.98-0.66 3-1v-2c0.6-0.27 1.19-0.53 1.81-0.81 2.19-1.19 3.6-2.28 5.19-4.19v-2c0.99-0.33 1.98-0.66 3-1 2.21-1.87 2.21-1.87 4-4v-2l4-2v-2c0.99-0.33 1.98-0.66 3-1v-2l4-2v-2c0.99-0.33 1.98-0.66 3-1 1.36-1.64 2.69-3.31 4-5 1.64-1.69 3.31-3.35 5-5 1.08-1.09 1.08-1.09 2.18-2.21 1.18-1.19 1.18-1.19 2.38-2.41 0.74-0.76 1.49-1.51 2.25-2.29 1.97-1.88 3.97-3.51 6.19-5.09-0.27-5.53-3.65-8.2-7.37-11.9-0.68-0.68-1.35-1.36-2.04-2.06-2.27-2.27-4.54-4.53-6.82-6.79-1.62-1.63-3.25-3.25-4.87-4.88-4.41-4.42-8.83-8.83-13.3-13.2-4.62-4.61-9.23-9.22-13.8-13.8-7.75-7.74-15.5-15.5-23.3-23.2-7.99-7.96-16-15.9-24-23.9l-1.49-1.49c-0.49-0.49-0.98-0.98-1.49-1.48-8.61-8.62-17.2-17.2-25.8-25.8-3.68-3.67-7.35-7.34-11-11-4.32-4.32-8.65-8.63-13-12.9l-4.77-4.77c-2.16-2.16-4.33-4.31-6.49-6.47-0.64-0.64-1.28-1.27-1.93-1.93-2.77-3.2-2.77-3.2-6.57-4.3l-2-4h-2l-1-3h-2l-2-4h-2l-1-3h-2l-2-4h-2l-1-3c-1.88-2.21-1.88-2.21-4-4h-2l-1-3c-1.45-1.22-2.91-2.43-4.39-3.61-2.52-2.17-4.49-4.83-6.61-7.39-0.83-0.66-1.65-1.32-2.5-2-2.41-1.92-4.16-3.99-6.08-6.38-1.56-1.77-3.23-3.24-5.04-4.77-4.63-4-8.94-8.28-13.3-12.6-0.81-0.82-1.62-1.63-2.45-2.46-2.56-2.57-5.12-5.14-7.67-7.7-1.75-1.76-3.49-3.51-5.24-5.26-4.26-4.26-8.51-8.53-12.8-12.8 0.58 0 1.16 0 1.76 0.01 63.7 0.09 127 0.19 191 0.28h2.92c21 0.03 42 0.06 62.9 0.09 10.3 0.02 20.6 0.03 30.9 0.05h3.11c32.8 0.05 65.5 0.1 98.2 0.15 33.9 0.05 67.8 0.1 102 0.15 4.87 0.01 9.74 0.01 14.6 0.02h2.91c13.1 0.02 26.2 0.04 39.4 0.06 47.7 0.08 95.4 0.14 143 0.18 6.7 0.01 13.4 0.02 20.1 0.03 22.2 0.02 44.5 0.04 66.7 0.05 9.65 0 19.3 0.01 28.9 0.02 45.6 0.07 45.6 0.07 91.2-0.32 0.72-0.01 1.44-0.01 2.18-0.03 14.4-0.2 28.8-0.48 43.2-0.74v-76c-99.9-0.16-200-0.31-321-0.49-4.07 0-8.15-0.01-12.2-0.02-99.7-0.14-199-0.29-625-0.55h-10c-53.2 0.01-106 0.03-160 0.06z" fill="#000100"/>
</svg>
